SplineFontDB: 3.0
FontName: bootstrap-stroke
FullName: bootstrap-stroke
FamilyName: Bootstrap stroke
Weight: Regular
ItalicAngle: 0
UnderlinePosition: 0
UnderlineWidth: 0
Ascent: 1536
Descent: 512
InvalidEm: 0
LayerCount: 2
Layer: 0 0 "Back" 1
Layer: 1 0 "Fore" 0
XUID: [1021 726 1589749430 3637]
OS2Version: 0
OS2_WeightWidthSlopeOnly: 0
OS2_UseTypoMetrics: 0
CreationTime: 1420837126
ModificationTime: 1420852735
PfmFamily: 17
TTFWeight: 400
TTFWidth: 5
LineGap: 184
VLineGap: 184
Panose: 2 0 5 3 0 0 0 0 0 0
OS2TypoAscent: 0
OS2TypoAOffset: 1
OS2TypoDescent: 0
OS2TypoDOffset: 1
OS2TypoLinegap: 184
OS2WinAscent: 0
OS2WinAOffset: 1
OS2WinDescent: 0
OS2WinDOffset: 1
HheadAscent: 0
HheadAOffset: 1
HheadDescent: 0
HheadDOffset: 1
OS2CapHeight: 0
OS2XHeight: 0
OS2Vendor: 'PfEd'
DEI: 91125
Encoding: Original
UnicodeInterp: none
NameList: AGL For New Fonts
DisplaySize: -48
AntiAlias: 1
FitToEm: 1
WinInfo: 0 29 11
BeginChars: 211 211

StartChar: .notdef
Encoding: 0 0 0
Width: 2048
LayerCount: 2
Back
Fore
SplineSet
68 0 m 1
 68 1365 l 1
 612 1365 l 1
 612 0 l 1
 68 0 l 1
136 68 m 1
 544 68 l 1
 544 1297 l 1
 136 1297 l 1
 136 68 l 1
EndSplineSet
EndChar

StartChar: .notdef
Encoding: 1 -1 1
Width: 2048
LayerCount: 2
Back
Fore
SplineSet
68 0 m 1
 68 1365 l 1
 612 1365 l 1
 612 0 l 1
 68 0 l 1
136 68 m 1
 544 68 l 1
 544 1297 l 1
 136 1297 l 1
 136 68 l 1
EndSplineSet
EndChar

StartChar: .notdef
Encoding: 2 -1 2
Width: 2048
LayerCount: 2
Back
Fore
SplineSet
68 0 m 1
 68 1365 l 1
 612 1365 l 1
 612 0 l 1
 68 0 l 1
136 68 m 1
 544 68 l 1
 544 1297 l 1
 136 1297 l 1
 136 68 l 1
EndSplineSet
EndChar

StartChar: bss-asterisk
Encoding: 4 42 4
Width: 2048
LayerCount: 2
Back
Fore
SplineSet
960 1792 m 1
 960 1176 l 1
 556 1580 l 1
 468 1492 l 1
 872 1088 l 1
 256 1088 l 1
 256 960 l 1
 310.667 961.33301 384 963.66602 476 966.99902 c 0
 648.667 972.99902 759.334 972.66601 808.001 965.99902 c 0
 874.001 957.99902 917.668 935.66602 939.001 898.99902 c 0
 959.668 864.99902 969.668 798.66602 969.001 699.99902 c 0
 969.001 671.99902 968.001 623.99902 966.001 555.99902 c 0
 962.001 434.66602 960.001 334.66602 960.001 255.99902 c 1
 1088.001 255.99902 l 1
 1088.001 871.99902 l 1
 1492.001 467.99902 l 1
 1580.001 555.99902 l 1
 1176.001 959.99902 l 1
 1792.001 959.99902 l 1
 1792.001 1087.99902 l 1
 1737.334 1086.66601 1664.001 1084.333 1572.001 1081 c 0
 1399.334 1075 1288.667 1075.33301 1240 1082 c 0
 1174 1090 1130.333 1112.333 1109 1149 c 0
 1088.333 1183 1078.333 1249.333 1079 1348 c 0
 1079 1376 1080 1424 1082 1492 c 0
 1086 1613.333 1088 1713.333 1088 1792 c 1
 960 1792 l 1
960 1792 m 1
 961.33301 1737.333 963.66602 1664 966.99902 1572 c 0
 972.99902 1399.333 972.66601 1288.666 965.99902 1239.999 c 0
 957.99902 1173.999 935.66602 1130.332 898.99902 1108.999 c 0
 864.99902 1088.332 798.66602 1078.332 699.99902 1078.999 c 0
 671.99902 1078.999 623.99902 1079.999 555.99902 1081.999 c 0
 434.66602 1085.999 334.66602 1087.999 255.99902 1087.999 c 1
 255.99902 959.999 l 1
 871.99902 959.999 l 1
 467.99902 555.999 l 1
 555.99902 467.999 l 1
 959.99902 871.999 l 1
 959.99902 255.999 l 1
 1087.99902 255.999 l 1
 1086.66601 310.666 1084.333 383.999 1081 475.999 c 0
 1075 648.666 1075.33301 759.333 1082 808 c 0
 1090 874 1112.333 917.667 1149 939 c 0
 1183 959.667 1249.333 969.667 1348 969 c 0
 1376 969 1424 968 1492 966 c 0
 1613.333 962 1713.333 960 1792 960 c 1
 1792 1088 l 1
 1176 1088 l 1
 1580 1492 l 1
 1492 1580 l 1
 1088 1176 l 1
 1088 1792 l 1
 960 1792 l 1
EndSplineSet
EndChar

StartChar: bss-plus
Encoding: 5 43 5
Width: 2048
LayerCount: 2
Back
Fore
SplineSet
128 1088 m 1
 128 960 l 1
 960 960 l 1
 960 128 l 1
 1088 128 l 1
 1088 960 l 1
 1920 960 l 1
 1920 1088 l 1
 1088 1088 l 1
 1088 1920 l 1
 960 1920 l 1
 960 1088 l 1
 128 1088 l 1
EndSplineSet
EndChar

StartChar: bss-euro
Encoding: 6 8364 6
Width: 2048
LayerCount: 2
Back
Fore
SplineSet
1344 1920 m 0
 1245.333 1920 1150.502 1900.3301 1059.502 1860.9971 c 0
 968.502 1821.6641 888.169 1767.8311 818.502 1699.4981 c 0
 748.835 1631.1651 689.668 1549.8321 641.001 1455.4991 c 0
 592.334 1361.1661 558.667 1259.9991 540 1151.9991 c 1
 256 1151.9991 l 1
 256 1023.9991 l 1
 528 1023.9991 l 1
 528 1018.66609 527.333008 1008.8331 526 994.5001 c 0
 524.666992 980.1671 524 968.6671 524 960.0001 c 0
 524 919.3331 526.66699 876.6661 532 831.9991 c 1
 256 831.9991 l 1
 256 703.9991 l 1
 556 703.9991 l 1
 580 603.9991 617.333 510.6661 668 423.9991 c 0
 718.667 337.3321 778 262.8321 846 200.4991 c 0
 914 138.1661 991.167 89.1661 1077.5 53.4991 c 0
 1163.833 17.8321 1252.666 -0.000900000000001 1343.999 -0.000900000000001 c 0
 1493.999 -0.000900000000001 1635.332 46.6661 1767.999 139.9991 c 1
 1715.999 255.9991 l 1
 1596.666 162.6661 1472.666 115.9991 1343.999 115.9991 c 0
 1189.332 115.9991 1051.499 170.8321 930.499 280.4991 c 0
 809.499 390.1661 727.332 531.3331 683.999 704.0001 c 1
 1407.999 704.0001 l 1
 1407.999 832.0001 l 1
 659.999 832.0001 l 1
 654.66599 881.3331 651.999 920.0001 651.999 948.0001 c 0
 651.999 964.0001 653.33201 989.3331 655.999 1024.0001 c 1
 1407.999 1024.0001 l 1
 1407.999 1152.0001 l 1
 675.999 1152.0001 l 1
 713.999 1336.6671 794.832 1489.5001 918.499 1610.5001 c 0
 1042.166 1731.5001 1183.999 1792.0001 1343.999 1792.0001 c 0
 1454.666 1792.0001 1565.333 1757.3331 1676 1688.0001 c 1
 1728 1804.0001 l 1
 1612.667 1881.3331 1484.667 1920.0001 1344 1920 c 0
EndSplineSet
EndChar

StartChar: bss-minus
Encoding: 7 8722 7
Width: 2048
LayerCount: 2
Back
Fore
SplineSet
128 1088 m 1
 128 960 l 1
 1920 960 l 1
 1920 1088 l 1
 128 1088 l 1
EndSplineSet
EndChar

StartChar: bss-cloud
Encoding: 8 9729 8
Width: 2048
LayerCount: 2
Back
Fore
SplineSet
1600 393 m 1
 448 393.000976562 l 2
 378 393.000976562 314.833 407.667976562 258.5 437.000976562 c 0
 202.167 466.333976562 157.667 504.000976562 125 550.000976562 c 0
 92.333 596.000976562 69.666 648.333976562 56.999 707.000976562 c 0
 44.332 765.667976562 42.999 823.500976562 52.999 880.500976562 c 0
 62.999 937.500976562 86.499 992.500976562 123.499 1045.50097656 c 0
 160.499 1098.50097656 208.999 1141.33397656 268.999 1174.00097656 c 1
 272.999 1254.66797656 293.166 1328.00097656 329.499 1394.00097656 c 0
 365.832 1460.00097656 411.499 1513.33397656 466.499 1554.00097656 c 0
 521.499 1594.66797656 583.666 1624.50097656 652.999 1643.50097656 c 0
 722.332 1662.50097656 791.332 1668.50097656 859.999 1661.50097656 c 0
 928.666 1654.50097656 995.999 1632.33397656 1061.999 1595.00097656 c 0
 1127.999 1557.66797656 1183.666 1507.00097656 1228.999 1443.00097656 c 1
 1312.332 1449.66796656 1389.665 1432.16797656 1460.998 1390.50097656 c 0
 1532.331 1348.83397656 1587.331 1289.66697656 1625.998 1212.99997656 c 1
 1687.998 1209.66696656 1743.498 1195.33397656 1792.498 1170.00097656 c 0
 1841.498 1144.66797656 1880.831 1112.50097656 1910.498 1073.50097656 c 0
 1940.165 1034.50097656 1962.498 990.667976562 1977.498 942.000976562 c 0
 1992.498 893.333976562 1999.165 843.833976562 1997.498 793.500976562 c 0
 1995.831 743.167976562 1985.831 694.000976562 1967.498 646.000976562 c 0
 1949.165 598.000976562 1924.165 555.167976562 1892.498 517.500976562 c 0
 1860.831 479.833976562 1819.664 449.666976562 1768.997 426.999976562 c 0
 1718.33 404.332976562 1661.997 392.999976562 1599.997 392.999976562 c 2
 1600 393 l 1
794.003 1545 m 0
 686.003 1545 592.84 1504.3301 514.507 1422.997 c 0
 436.174 1341.6639 397.007 1245.997 397.007 1135.997 c 2
 397.007 1084.997 l 1
 358.007 1071.997 l 2
 310.674 1055.33 271.841 1029.83 241.508 995.497 c 0
 211.175 961.164 191.175 923.831 181.508 883.498 c 0
 171.841 843.165 170.674 801.498 178.00702 758.498 c 0
 185.34004 715.498 200.17302 676.498 222.50602 641.498 c 0
 244.83902 606.498 275.67202 577.665 315.00502 554.998 c 0
 354.33802 532.331 398.67102 520.998 448.00402 520.998 c 2
 1600.00402 520.998 l 2
 1643.33702 520.998 1682.50402 528.998 1717.50402 544.998 c 0
 1752.50402 560.998 1780.67102 582.331 1802.00402 608.998 c 0
 1823.33702 635.665 1839.83702 665.832 1851.50402 699.499 c 0
 1863.17102 733.166 1869.00402 767.666 1869.00402 802.999 c 0
 1869.00402 838.332 1863.17101 872.832 1851.50402 906.499 c 0
 1839.83703 940.166 1823.33702 970.333 1802.00402 997 c 0
 1780.67102 1023.667 1752.50402 1045 1717.50402 1061 c 0
 1682.50402 1077 1643.33702 1085 1600.00402 1085 c 2
 1549.00402 1085 l 1
 1523.00402 1123 l 1
 1498.33702 1190.333 1457.50402 1240.833 1400.50402 1274.5 c 0
 1343.50402 1308.167 1277.67102 1325 1203.00402 1325 c 1
 1165.00402 1312 l 1
 1139.00402 1351 l 2
 1100.33702 1415 1050.67002 1465.167 990.00302 1501.5 c 0
 929.33602 1537.833 864.00302 1556 794.00302 1556 c 1
 794.003 1545 l 0
EndSplineSet
EndChar

StartChar: bss-envelope
Encoding: 9 9993 9
Width: 2048
LayerCount: 2
Back
Fore
SplineSet
0 1728 m 1
 2048 1728 l 1
 2048 320 l 1
 0 320 l 1
 64 448 l 1
 1984 448 l 1
 1984 1280 l 1
 1024 704 l 1
 64 1280 l 1
 64 448 l 1
 0 320 l 1
 0 1728 l 1
 64 1600 l 1
 64 1408 l 1
 1024 832 l 1
 1984 1408 l 1
 1984 1600 l 1
 64 1600 l 1
 0 1728 l 1
EndSplineSet
EndChar

StartChar: bss-pencil
Encoding: 10 9999 10
Width: 2048
LayerCount: 2
Back
Fore
SplineSet
1896 1657 m 0
 1884 1706.333 1856.001 1744.666 1812.001 1771.999 c 2
 1490.001 1972.999 l 2
 1448.001 1998.999 1401.334 2005.999 1350.001 1993.999 c 0
 1298.668 1981.999 1260.001 1955.332 1234.001 1913.999 c 2
 1128.001 1744.999 l 1
 1765.001 1346.999 l 1
 1871.001 1516.999 l 2
 1898.334 1559.666 1906.667 1606.333 1896 1657 c 0
1764 1585 m 2
 1725.001 1523.999 l 1
 1304.001 1785.999 l 1
 1343.001 1846.999 l 2
 1351.66799 1860.332 1363.668 1868.832 1379.001 1872.499 c 0
 1394.334 1876.166 1408.667 1873.66599 1422 1864.999 c 2
 1745 1663.999 l 2
 1757 1656.66599 1765.333 1644.666 1770 1627.999 c 0
 1774 1612.666 1772 1598.333 1764 1585 c 2
396.002 569.999 m 1
 474.002 1.999 l 1
 1033.002 170.999 l 1
 1716.002 1265.999 l 1
 1078.002 1663.999 l 1
 396.002 569.999 l 1
538.002 467.999 m 1
 876.002 255.999 l 1
 579.002 166.999 l 1
 538.002 467.999 l 1
987.002 339.999 m 1
 824.002 440.999 l 1
 1377.002 1327.999 l 1
 1540.002 1226.999 l 1
 987.002 339.999 l 1
1268 1396 m 1
 716 508 l 1
 566 602 l 1
 1119 1489 l 1
 1268 1396 l 1
EndSplineSet
EndChar

StartChar: bss-glass
Encoding: 11 57345 11
Width: 2048
LayerCount: 2
Back
Fore
SplineSet
652 2048 m 1
 651.99804688 972 l 2
 651.99804688 869.333 688.33104688 781.666 760.99804688 708.999 c 0
 833.66504688 636.332 921.33204688 599.999 1023.99904688 599.999 c 0
 1126.66604688 599.999 1214.33304688 636.332 1287.00004688 708.999 c 0
 1359.66704688 781.666 1396.00004688 869.333 1396.00004688 972 c 2
 1396.00004688 2048 l 1
 1280.00004688 2048 l 1
 1268.00004688 2048 l 1
 780.00004688 2048 l 1
 768.00004688 2048 l 1
 652 2048 l 1
779.998 1920 m 1
 1267.998 1920 l 1
 1267.998 972 l 2
 1267.998 902.667 1243.665 844.667 1194.998 798 c 0
 1146.331 751.333 1089.331 728 1023.998 728 c 0
 959.331 728 902.498 750.833 853.498 796.5 c 0
 804.498 842.167 779.998 896.667 779.998 960 c 2
 779.998 1920 l 1
959.998 576 m 1
 959.998 192 l 1
 767.998 192 l 1
 767.998 64 l 1
 1279.998 64 l 1
 1279.998 192 l 1
 1087.998 192 l 1
 1087.998 576 l 1
 959.998 576 l 1
EndSplineSet
EndChar

StartChar: bss-music
Encoding: 12 57346 12
Width: 2048
LayerCount: 2
Back
Fore
SplineSet
1664 1920 m 1
 576 1702 l 1
 576 576 l 1
 558.667 584.66699 533 589 499 589 c 0
 440.333 589 389.5 568.333 346.5 527 c 0
 303.5 485.667 282 433.667 282 371 c 0
 282 311.667 302.5 260.667 343.5 218 c 0
 384.5 175.333 436.333 154 499 154 c 0
 558.333 154 609.5 174.5 652.5 215.5 c 0
 695.5 256.5 717 308.333 717 371 c 2
 717 1600 l 1
 1536 1766 l 1
 1536 755 l 1
 1518.667 763.66699 1488.667 768 1446 768 c 0
 1387.333 768 1336.5 747.333 1293.5 706 c 0
 1250.5 664.667 1229 612.667 1229 550 c 0
 1229 490.667 1249.5 439.667 1290.5 397 c 0
 1331.5 354.333 1383.333 333 1446 333 c 0
 1505.333 333 1556.5 353.5 1599.5 394.5 c 0
 1642.5 435.5 1664 487.333 1664 550 c 2
 1664 1920 l 1
EndSplineSet
EndChar

StartChar: bss-search
Encoding: 13 57347 13
Width: 2048
LayerCount: 2
Back
Fore
SplineSet
1370 1732 m 0
 1286 1824.667 1186.83 1890.002 1072.497 1928.002 c 0
 958.164 1966.002 842.331 1973.502 724.998 1950.502 c 0
 607.665 1927.502 502.665 1876.002 409.998 1796.002 c 0
 317.998 1716.669 252.831 1619.502 214.498 1504.502 c 0
 176.165 1389.502 168.498 1272.502 191.498 1153.502 c 0
 214.498 1034.502 265.998 928.669 345.998 836.002 c 0
 421.331 748.002 512.331 684.169 618.998 644.502 c 0
 725.665 604.835 834.998 592.835 946.998 608.502 c 0
 1058.998 624.169 1161.331 665.669 1253.998 733.002 c 1
 1343.998 631.002 l 1
 1279.998 567.002 l 1
 1650.998 145.002 l 2
 1676.998 112.335 1711.665 94.168 1754.998 90.501 c 0
 1798.331 86.834 1836.331 100.667 1868.998 132 c 0
 1901.665 158 1919.832 192.5 1923.499 235.5 c 0
 1927.166 278.5 1913.333 316.333 1882 349 c 2
 1510 772 l 1
 1446 708 l 1
 1357 810 l 1
 1433 894.667 1485.333 991.667 1514 1101 c 0
 1542.667 1210.333 1544.667 1320.833 1520 1432.5 c 0
 1495.333 1544.167 1445.333 1644 1370 1732 c 0
434.997 913.002 m 0
 372.33 988.335 332.166 1074.002 314.499 1170.002 c 0
 296.832 1266.002 303.165 1360.335 333.498 1453.002 c 0
 363.831 1545.669 414.664 1625.669 485.997 1693.002 c 0
 561.33 1760.335 646.997 1803.335 742.997 1822.002 c 0
 838.997 1840.669 933.497 1834.169 1026.497 1802.502 c 0
 1119.497 1770.835 1199.664 1717.335 1266.997 1642.002 c 0
 1334.33 1566.669 1377.33 1481.002 1395.997 1385.002 c 0
 1414.664 1289.002 1408.164 1194.502 1376.497 1101.502 c 0
 1344.83 1008.502 1291.33 928.335 1215.997 861.002 c 0
 1140.664 793.669 1054.997 750.669 958.997 732.002 c 0
 862.997 713.335 768.497 720.002 675.497 752.002 c 0
 582.497 784.002 502.33 837.669 434.997 913.002 c 0
EndSplineSet
EndChar

StartChar: bss-heart
Encoding: 14 57349 14
Width: 2048
LayerCount: 2
Back
Fore
SplineSet
1437 1874 m 0
 1355.667 1874 1278.83 1855.998 1206.497 1819.998 c 0
 1134.164 1783.998 1072.997 1733.665 1022.997 1668.998 c 1
 972.997 1733.665 911.33 1783.832 837.997 1819.499 c 0
 764.664 1855.166 687.664 1872.999 606.997 1872.999 c 0
 525.664 1872.999 447.331 1853.666 371.998 1814.999 c 0
 263.331 1758.999 185.498 1676.999 138.498 1568.999 c 0
 91.498 1460.999 76.998 1344.332 94.998 1218.999 c 0
 102.998 1161.666 117.998 1104.666 139.998 1047.999 c 0
 161.998 991.332 187.165 939.332 215.498 891.999 c 0
 243.831 844.666 278.998 795.833 320.998 745.5 c 0
 362.998 695.167 402.998 650.834 440.998 612.501 c 0
 478.998 574.168 524.498 532.668 577.498 488.001 c 2
 714.998 376.001 l 1
 852.998 272.001 l 2
 916.998 225.334 972.331 192.667 1018.998 174 c 0
 1028.998 170 1076.831 198 1162.498 258 c 0
 1248.165 318 1320.332 371.667 1378.999 419 c 0
 1540.332 551.667 1674.332 688 1780.999 828 c 0
 1851.666 922 1902.833 1027 1934.5 1143 c 0
 1966.167 1259 1968.667 1370 1942 1476 c 0
 1914 1590.667 1852.333 1685.667 1757 1761 c 0
 1661.667 1836.333 1555 1874 1437 1874 c 0
EndSplineSet
EndChar

StartChar: bss-star
Encoding: 15 57350 15
Width: 2048
LayerCount: 2
Back
Fore
SplineSet
52 1269 m 1
 623 812 l 1
 423 26 l 1
 1024 483 l 1
 1620 35 l 1
 1424 808 l 1
 1994 1269 l 1
 1292 1272 l 1
 1022 2005 l 1
 752 1272 l 1
 52 1269 l 1
EndSplineSet
EndChar

StartChar: bss-star-empty
Encoding: 16 57351 16
Width: 2048
LayerCount: 2
Back
Fore
SplineSet
1191 1143 m 1
 1024 1591 l 1
 1024 2008 l 1
 1294 1271 l 1
 1998 1271 l 1
 1422 810 l 1
 1624 30 l 1
 1024 490 l 1
 1024 645 l 1
 1408 361 l 1
 1269 841 l 1
 1614 1143 l 1
 1191 1143 l 1
857 1143 m 1
 1024 1591 l 1
 1024 2008 l 1
 754 1271 l 1
 50 1271 l 1
 626 810 l 1
 424 30 l 1
 1024 490 l 1
 1024 645 l 1
 640 361 l 1
 779 841 l 1
 434 1143 l 1
 857 1143 l 1
EndSplineSet
EndChar

StartChar: bss-user
Encoding: 17 57352 17
Width: 2048
LayerCount: 2
Back
Fore
SplineSet
1024 64 m 0
 1312 64 1601.996 119.3271 1893.996 229.994 c 0
 1938.663 248.661 1966.496 260.828 1977.496 266.495 c 0
 1988.496 272.162 2003.329 281.329 2021.996 293.996 c 1
 2021.996 601.996 l 2
 2021.996 716.663 1980.329 815.663 1896.996 898.996 c 0
 1813.663 982.329 1714.663 1023.996 1599.996 1023.996 c 2
 1433.996 1023.996 l 1
 1457.329 1071.329 1474.996 1123.996 1486.996 1181.996 c 0
 1498.996 1239.996 1504.329 1299.329 1502.996 1359.996 c 0
 1501.663 1420.663 1494.82998 1481.163 1482.497 1541.496 c 0
 1470.16402 1601.829 1450.331 1658.496 1422.998 1711.496 c 0
 1395.665 1764.496 1363.165 1811.329 1325.498 1851.996 c 0
 1287.831 1892.663 1241.998 1924.83 1187.998 1948.497 c 0
 1133.998 1972.164 1074.998 1983.997 1010.998 1983.997 c 0
 948.998 1983.997 891.331 1971.997 837.998 1947.997 c 0
 784.665 1923.997 739.498 1891.164 702.498 1849.497 c 0
 665.498 1807.83 633.331 1760.33 605.998 1706.997 c 0
 578.665 1653.664 558.832 1596.664 546.499 1535.997 c 0
 534.166 1475.33 527.499 1414.83 526.499 1354.497 c 0
 525.499 1294.164 531.499 1235.331 544.499 1177.998 c 0
 557.499 1120.665 576.666 1069.332 601.999 1023.999 c 1
 434.999 1023.999 l 2
 319.666 1023.999 220.499 982.332 137.499 898.999 c 0
 54.499 815.666 12.999 716.666 12.999 601.999 c 2
 12.999 293.999 l 1
 32.332 281.332 47.332 272.332 57.999 266.999 c 0
 68.666 261.666 96.333 249.333 141 230 c 0
 447 119.333 741.333 64 1024 64 c 0
1024 1855.99 m 0
 1084 1855.99 1138.333 1841.657 1187 1812.99 c 0
 1235.667 1784.323 1275 1746.656 1305 1699.989 c 0
 1335 1653.322 1358.167 1600.155 1374.5 1540.488 c 0
 1390.833 1480.821 1399 1419.654 1399 1356.987 c 0
 1399 1294.32 1390.83301 1233.153 1374.5 1173.486 c 0
 1358.16699 1113.819 1335 1060.652 1305 1013.985 c 0
 1275 967.318 1235.667 929.651 1187 900.984 c 0
 1138.333 872.317 1084 857.984 1024 857.984 c 0
 964 857.984 909.667 872.317 861 900.984 c 0
 812.333 929.651 773 967.318 743 1013.985 c 0
 713 1060.652 689.833 1113.819 673.5 1173.486 c 0
 657.167 1233.153 649 1294.32 649 1356.987 c 0
 649 1419.654 657.16699 1480.821 673.5 1540.488 c 0
 689.83301 1600.155 713 1653.322 743 1699.989 c 0
 773 1746.656 812.333 1784.323 861 1812.99 c 0
 909.667 1841.657 964 1855.99 1024 1855.99 c 0
153.996 601.994 m 1
 153.996 684.661 181.498 754.327 236.498 810.994 c 0
 291.498 867.661 357.665 895.994 434.998 895.994 c 2
 690.998 895.994 l 1
 754.331 823.994 825.664 775.494 904.997 750.494 c 0
 984.33 725.494 1063.663 725.494 1142.996 750.494 c 0
 1222.329 775.494 1293.662 823.994 1356.995 895.994 c 1
 1612.995 895.994 l 2
 1691.662 895.994 1760.329 867.327 1818.996 809.994 c 0
 1877.663 752.661 1906.996 683.328 1906.996 601.995 c 2
 1906.996 370.995 l 1
 1622.996 250.328 1329.163 191.661 1025.496 194.994 c 0
 721.829 198.327 431.329 261.327 153.996 383.994 c 1
 153.996 601.994 l 1
EndSplineSet
EndChar

StartChar: bss-film
Encoding: 18 57353 18
Width: 2048
LayerCount: 2
Back
Fore
SplineSet
835 1164 m 1
 1213 918 l 1
 835 672 l 1
 835 1164 l 1
0 0 m 1
 0 1824 l 1
 2048 1824 l 1
 2048 0 l 1
 0 0 l 1
1920 128 m 1
 1920 314 l 1
 1664 314 l 1
 1664 128 l 1
 1920 128 l 1
128 1382 m 1
 128 442 l 1
 1920 442 l 1
 1920 1382 l 1
 128 1382 l 1
1536 128 m 1
 1536 314 l 1
 1280 314 l 1
 1280 128 l 1
 1536 128 l 1
1152 128 m 1
 1152 314 l 1
 896 314 l 1
 896 128 l 1
 1152 128 l 1
768 128 m 1
 768 314 l 1
 512 314 l 1
 512 128 l 1
 768 128 l 1
384 128 m 1
 384 314 l 1
 128 314 l 1
 128 128 l 1
 384 128 l 1
128 1696 m 1
 128 1510 l 1
 384 1510 l 1
 384 1696 l 1
 128 1696 l 1
512 1696 m 1
 512 1510 l 1
 768 1510 l 1
 768 1696 l 1
 512 1696 l 1
896 1696 m 1
 896 1510 l 1
 1152 1510 l 1
 1152 1696 l 1
 896 1696 l 1
1280 1696 m 1
 1280 1510 l 1
 1536 1510 l 1
 1536 1696 l 1
 1280 1696 l 1
1664 1696 m 1
 1664 1510 l 1
 1920 1510 l 1
 1920 1696 l 1
 1664 1696 l 1
EndSplineSet
EndChar

StartChar: bss-th-large
Encoding: 19 57360 19
Width: 2048
LayerCount: 2
Back
Fore
SplineSet
1152 1920 m 1
 1152 1152 l 1
 1920 1152 l 1
 1920 1920 l 1
 1792 1920 l 1
 1280 1920 l 1
 1280 1792 l 1
 1792 1792 l 1
 1792 1280 l 1
 1280 1280 l 1
 1280 1920 l 1
 1152 1920 l 1
0 1920 m 1
 0 1152 l 1
 768 1152 l 1
 768 1920 l 1
 640 1920 l 1
 128 1920 l 1
 128 1792 l 1
 640 1792 l 1
 640 1280 l 1
 128 1280 l 1
 128 1920 l 1
 0 1920 l 1
1152 768 m 1
 1152 0 l 1
 1920 0 l 1
 1920 768 l 1
 1792 768 l 1
 1280 768 l 1
 1280 640 l 1
 1792 640 l 1
 1792 128 l 1
 1280 128 l 1
 1280 768 l 1
 1152 768 l 1
0 768 m 1
 0 0 l 1
 768 0 l 1
 768 768 l 1
 640 768 l 1
 128 768 l 1
 128 640 l 1
 640 640 l 1
 640 128 l 1
 128 128 l 1
 128 768 l 1
 0 768 l 1
EndSplineSet
EndChar

StartChar: bss-th
Encoding: 20 57361 20
Width: 2048
LayerCount: 2
Back
Fore
SplineSet
1472 1984 m 1
 1472 1472 l 1
 1984 1472 l 1
 1984 1984 l 1
 1600 1984 l 1
 1600 1856 l 1
 1856 1856 l 1
 1856 1600 l 1
 1600 1600 l 1
 1600 1984 l 1
 1472 1984 l 1
704 1984 m 1
 704 1472 l 1
 1216 1472 l 1
 1216 1984 l 1
 832 1984 l 1
 832 1856 l 1
 1088 1856 l 1
 1088 1600 l 1
 832 1600 l 1
 832 1984 l 1
 704 1984 l 1
-64 1984 m 1
 -64 1472 l 1
 448 1472 l 1
 448 1984 l 1
 64 1984 l 1
 64 1856 l 1
 320 1856 l 1
 320 1600 l 1
 64 1600 l 1
 64 1984 l 1
 -64 1984 l 1
1472 1216 m 1
 1472 704 l 1
 1984 704 l 1
 1984 1216 l 1
 1600 1216 l 1
 1600 1088 l 1
 1856 1088 l 1
 1856 832 l 1
 1600 832 l 1
 1600 1216 l 1
 1472 1216 l 1
704 1216 m 1
 704 704 l 1
 1216 704 l 1
 1216 1216 l 1
 832 1216 l 1
 832 1088 l 1
 1088 1088 l 1
 1088 832 l 1
 832 832 l 1
 832 1216 l 1
 704 1216 l 1
-64 1216 m 1
 -64 704 l 1
 448 704 l 1
 448 1216 l 1
 64 1216 l 1
 64 1088 l 1
 320 1088 l 1
 320 832 l 1
 64 832 l 1
 64 1216 l 1
 -64 1216 l 1
1472 448 m 1
 1472 -64 l 1
 1984 -64 l 1
 1984 448 l 1
 1600 448 l 1
 1600 320 l 1
 1856 320 l 1
 1856 64 l 1
 1600 64 l 1
 1600 448 l 1
 1472 448 l 1
704 448 m 1
 704 -64 l 1
 1216 -64 l 1
 1216 448 l 1
 832 448 l 1
 832 320 l 1
 1088 320 l 1
 1088 64 l 1
 832 64 l 1
 832 448 l 1
 704 448 l 1
-64 448 m 1
 -64 -64 l 1
 448 -64 l 1
 448 448 l 1
 64 448 l 1
 64 320 l 1
 320 320 l 1
 320 64 l 1
 64 64 l 1
 64 448 l 1
 -64 448 l 1
EndSplineSet
EndChar

StartChar: bss-th-list
Encoding: 21 57362 21
Width: 2048
LayerCount: 2
Back
Fore
SplineSet
896 64 m 1
 896 512 l 1
 1920 512 l 1
 1920 64 l 1
 1792 64 l 1
 1792 384 l 1
 1024 384 l 1
 1024 192 l 1
 1792 192 l 1
 1792 64 l 1
 896 64 l 1
0 64 m 1
 0 512 l 1
 640 512 l 1
 640 64 l 1
 128 64 l 1
 128 192 l 1
 512 192 l 1
 512 384 l 1
 128 384 l 1
 128 64 l 1
 0 64 l 1
896 704 m 1
 896 1152 l 1
 1920 1152 l 1
 1920 704 l 1
 1792 704 l 1
 1792 1024 l 1
 1024 1024 l 1
 1024 832 l 1
 1792 832 l 1
 1792 704 l 1
 896 704 l 1
0 704 m 1
 0 1152 l 1
 640 1152 l 1
 640 704 l 1
 128 704 l 1
 128 832 l 1
 512 832 l 1
 512 1024 l 1
 128 1024 l 1
 128 704 l 1
 0 704 l 1
896 1344 m 1
 896 1792 l 1
 1920 1792 l 1
 1920 1344 l 1
 1792 1344 l 1
 1792 1664 l 1
 1024 1664 l 1
 1024 1472 l 1
 1792 1472 l 1
 1792 1344 l 1
 896 1344 l 1
0 1344 m 1
 0 1792 l 1
 640 1792 l 1
 640 1344 l 1
 128 1344 l 1
 128 1472 l 1
 512 1472 l 1
 512 1664 l 1
 128 1664 l 1
 128 1344 l 1
 0 1344 l 1
EndSplineSet
EndChar

StartChar: bss-ok
Encoding: 22 57363 22
Width: 2048
LayerCount: 2
Back
Fore
SplineSet
1816 1632 m 1
 592 652 l 1
 312 1104 l 1
 200 1040 l 1
 520 528 l 1
 560 464 l 1
 616 512 l 1
 1896 1536 l 1
 1816 1632 l 1
EndSplineSet
EndChar

StartChar: bss-remove
Encoding: 23 57364 23
Width: 2048
LayerCount: 2
Back
Fore
SplineSet
1748 390 m 1
 1658 300 l 1
 300 1658 l 1
 390 1748 l 1
 1748 390 l 1
390 300 m 1
 300 390 l 1
 1658 1748 l 1
 1748 1658 l 1
 390 300 l 1
EndSplineSet
EndChar

StartChar: bss-zoom-in
Encoding: 24 57365 24
Width: 2048
LayerCount: 2
Back
Fore
SplineSet
512 1220 m 1
 512 1348 l 1
 768 1348 l 1
 768 1604 l 1
 896 1604 l 1
 896 1348 l 1
 1152 1348 l 1
 1152 1220 l 1
 896 1220 l 1
 896 964 l 1
 768 964 l 1
 768 1220 l 1
 512 1220 l 1
1370 1732 m 0
 1286 1824.667 1186.83 1890.002 1072.497 1928.002 c 0
 958.164 1966.002 842.331 1973.502 724.998 1950.502 c 0
 607.665 1927.502 502.665 1876.002 409.998 1796.002 c 0
 317.998 1716.669 252.831 1619.502 214.498 1504.502 c 0
 176.165 1389.502 168.498 1272.502 191.498 1153.502 c 0
 214.498 1034.502 265.998 928.669 345.998 836.002 c 0
 421.331 748.002 512.331 684.169 618.998 644.502 c 0
 725.665 604.835 834.998 592.835 946.998 608.502 c 0
 1058.998 624.169 1161.331 665.669 1253.998 733.002 c 1
 1343.998 631.002 l 1
 1279.998 567.002 l 1
 1650.998 145.002 l 2
 1676.998 112.335 1711.665 94.168 1754.998 90.501 c 0
 1798.331 86.834 1836.331 100.667 1868.998 132 c 0
 1901.665 158 1919.832 192.5 1923.499 235.5 c 0
 1927.166 278.5 1913.333 316.333 1882 349 c 2
 1510 772 l 1
 1446 708 l 1
 1357 810 l 1
 1433 894.667 1485.333 991.667 1514 1101 c 0
 1542.667 1210.333 1544.667 1320.833 1520 1432.5 c 0
 1495.333 1544.167 1445.333 1644 1370 1732 c 0
434.997 913.002 m 0
 372.33 988.335 332.166 1074.002 314.499 1170.002 c 0
 296.832 1266.002 303.165 1360.335 333.498 1453.002 c 0
 363.831 1545.669 414.664 1625.669 485.997 1693.002 c 0
 561.33 1760.335 646.997 1803.335 742.997 1822.002 c 0
 838.997 1840.669 933.497 1834.169 1026.497 1802.502 c 0
 1119.497 1770.835 1199.664 1717.335 1266.997 1642.002 c 0
 1334.33 1566.669 1377.33 1481.002 1395.997 1385.002 c 0
 1414.664 1289.002 1408.164 1194.502 1376.497 1101.502 c 0
 1344.83 1008.502 1291.33 928.335 1215.997 861.002 c 0
 1140.664 793.669 1054.997 750.669 958.997 732.002 c 0
 862.997 713.335 768.497 720.002 675.497 752.002 c 0
 582.497 784.002 502.33 837.669 434.997 913.002 c 0
EndSplineSet
EndChar

StartChar: bss-zoom-out
Encoding: 25 57366 25
Width: 2048
LayerCount: 2
Back
Fore
SplineSet
512 1216 m 1
 1152 1216 l 1
 1152 1344 l 1
 512 1344 l 1
 512 1216 l 1
1756 92 m 0
 1712 95.33301 1677.333 112.666 1652 143.999 c 2
 1280 567.999 l 1
 1344 631.999 l 1
 1256 731.999 l 1
 1163.333 664.666 1060.666 623.333 947.999 608 c 0
 835.332 592.667 725.332 604.83398 617.999 644.501 c 0
 510.666 684.16802 419.333 748.001 344 836.001 c 0
 264 928.668 212.5 1034.501 189.5 1153.501 c 0
 166.5 1272.501 174.167 1389.501 212.5 1504.501 c 0
 250.833 1619.501 316 1716.668 408 1796.001 c 0
 500.667 1876.001 605.667 1927.501 723 1950.501 c 0
 840.333 1973.501 956.166 1966.001 1070.499 1928.001 c 0
 1184.832 1890.001 1283.999 1824.668 1367.999 1732.001 c 0
 1443.332 1644.001 1493.332 1544.334 1517.999 1433.001 c 0
 1542.666 1321.668 1540.833 1211.501 1512.49998 1102.501 c 0
 1484.16696 993.501 1431.99998 896.668 1355.99998 812.001 c 1
 1447.99998 708.001 l 1
 1511.99998 772.001 l 1
 1879.99998 348.001 l 2
 1911.33298 315.334 1925.33298 277.667 1921.99998 235 c 0
 1918.66698 192.333 1900.66698 158 1867.99998 132 c 1
 1837.99998 102 1800.66698 88.667 1756 92 c 0
816 724 m 0
 968 713.333 1101.333 758.6689 1216 860.002 c 0
 1291.333 927.335 1345 1007.668 1377 1101.001 c 0
 1409 1194.334 1415.667 1289.334 1397 1386.001 c 0
 1378.333 1482.668 1335.333 1568.668 1268 1644.001 c 0
 1200.667 1719.334 1120.667 1772.667 1028 1804 c 0
 935.333 1835.333 841 1841.333 745 1822 c 0
 649 1802.667 563.333 1759.334 488 1692.001 c 0
 416 1624.668 365 1544.668 335 1452.001 c 0
 305 1359.334 298.667 1265.001 316 1169.001 c 0
 333.333 1073.001 373.333 987.334 436 912.001 c 0
 486 855.334 543.833 811.167 609.5 779.5 c 0
 675.167 747.833 744 729.333 816 724 c 0
EndSplineSet
EndChar

StartChar: bss-off
Encoding: 26 57367 26
Width: 2048
LayerCount: 2
Back
Fore
SplineSet
960 788 m 1
 1088 788 l 1
 1088 1940 l 1
 960 1940 l 1
 960 788 l 1
768 1492 m 1
 675.333 1459.333 589.664 1404.833 510.997 1328.5 c 0
 432.33 1252.167 370.163 1164.334 324.496 1065.001 c 0
 278.829 965.668 255.996 866.668 255.996 768.001 c 0
 255.996 628.668 290.329 500.168 358.996 382.501 c 0
 427.663 264.834 520.83 171.667 638.497 103 c 0
 756.164 34.333 884.664 0 1023.997 0 c 0
 1163.33 0 1291.83 34.333 1409.497 103 c 0
 1527.164 171.667 1620.331 264.834 1688.998 382.501 c 0
 1757.665 500.168 1791.998 628.668 1791.998 768.001 c 0
 1791.998 866.668 1769.165 965.668 1723.498 1065.001 c 0
 1677.831 1164.334 1615.664 1252.167 1536.997 1328.5 c 0
 1458.33 1404.833 1372.663 1459.333 1279.996 1492 c 1
 1227.996 1380 l 1
 1358.663 1336 1465.33 1258.167 1547.997 1146.5 c 0
 1630.664 1034.833 1671.997 908.666 1671.997 767.999 c 0
 1671.997 651.332 1642.997 543.499 1584.997 444.499 c 0
 1526.997 345.499 1448.33 267.332 1348.997 209.999 c 0
 1249.664 152.666 1141.331 123.999 1023.998 123.999 c 0
 906.665 123.999 798.332 152.666 698.999 209.999 c 0
 599.666 267.332 520.999 345.499 462.999 444.499 c 0
 404.999 543.499 375.999 651.332 375.999 767.999 c 0
 375.999 908.666 417.332 1034.833 499.999 1146.5 c 0
 582.666 1258.167 689.333 1336 820 1380 c 1
 768 1492 l 1
EndSplineSet
EndChar

StartChar: bss-signal
Encoding: 27 57368 27
Width: 2048
LayerCount: 2
Back
Fore
SplineSet
1152 384 m 0
 1152 348.667 1139.5 318.5 1114.5 293.5 c 0
 1089.5 268.5 1059.333 256 1024 256 c 0
 988.667 256 958.5 268.5 933.5 293.5 c 0
 908.5 318.5 896 348.667 896 384 c 0
 896 419.333 908.5 449.5 933.5 474.5 c 0
 958.5 499.5 988.667 512 1024 512 c 0
 1059.333 512 1089.5 499.5 1114.5 474.5 c 0
 1139.5 449.5 1152 419.333 1152 384 c 0
1024 1792 m 0
 833.333 1792 652.17 1755.833 480.503 1683.5 c 0
 308.836 1611.167 158.003 1510 28.003 1380 c 1
 120.003 1288 l 1
 238.67 1406.667 375.67 1499 531.003 1565 c 0
 686.336 1631 850.669 1664 1024.002 1664 c 0
 1197.335 1664 1361.668 1631 1517.001 1565 c 0
 1672.334 1499 1809.334 1406.667 1928.001 1288 c 1
 2020.001 1380 l 1
 1890.001 1510 1739.168 1611.167 1567.501 1683.5 c 0
 1395.834 1755.833 1214.667 1792 1024 1792 c 0
1024 1536 m 0
 867.333 1536 718.664 1506.5 577.997 1447.5 c 0
 437.33 1388.5 313.997 1306 207.997 1200 c 1
 299.997 1108 l 1
 394.664 1202.667 504.331 1276.334 628.998 1329.001 c 0
 753.665 1381.668 885.332 1408.001 1023.999 1408.001 c 0
 1162.666 1408.001 1294.333 1381.668 1419 1329.001 c 0
 1543.667 1276.334 1653.334 1202.667 1748.001 1108 c 1
 1840.001 1200 l 1
 1734.001 1306 1610.668 1388.5 1470.001 1447.5 c 0
 1329.334 1506.5 1180.667 1536 1024 1536 c 0
1024 1280 m 0
 903.333 1280 788.496 1256.667 679.496 1210 c 0
 570.496 1163.333 474.663 1098.666 391.996 1015.999 c 1
 479.996 927.999 l 1
 550.663 998.666 632.83 1053.666 726.497 1092.999 c 0
 820.164 1132.332 919.331 1151.999 1023.998 1151.999 c 0
 1128.665 1151.999 1227.832 1132.332 1321.499 1092.999 c 0
 1415.166 1053.666 1497.333 998.666 1568 927.999 c 1
 1656 1015.999 l 1
 1573.333 1098.666 1477.5 1163.333 1368.5 1210 c 0
 1259.5 1256.667 1144.667 1280 1024 1280 c 0
1024 1024 m 0
 937.333 1024 855.168 1007.5 777.501 974.5 c 0
 699.834 941.5 631.334 895.333 572.001 836 c 1
 660.001 748 l 1
 707.334 795.333 762.334 831.833 825.001 857.5 c 0
 887.668 883.167 954.001 896 1024.001 896 c 0
 1094.001 896 1160.334 883.167 1223.001 857.5 c 0
 1285.668 831.833 1340.668 795.333 1388.001 748 c 1
 1476.001 836 l 1
 1416.668 895.333 1348.168 941.5 1270.501 974.5 c 0
 1192.834 1007.5 1110.667 1024 1024 1024 c 0
1024 768 m 0
 917.333 768 826.668 730.667 752.001 656 c 1
 844.001 564 l 1
 894.668 614.667 954.668 640 1024.001 640 c 0
 1093.334 640 1153.334 614.667 1204.001 564 c 1
 1296.001 656 l 1
 1221.334 730.667 1130.667 768 1024 768 c 0
EndSplineSet
EndChar

StartChar: bss-cog
Encoding: 28 57369 28
Width: 2048
LayerCount: 2
Back
Fore
SplineSet
920 76 m 0
 908 76 895.9961 83.33301 883.9961 98 c 0
 871.9961 112.66699 860.9961 132.167 850.9961 156.5 c 0
 840.9961 180.833 832.3291 203.5 824.9961 224.5 c 0
 817.6631 245.5 810.6631 267.833 803.9961 291.5 c 0
 797.3291 315.167 793.3291 328.667 791.9961 332 c 2
 691.9961 372 l 2
 687.32911 370.66699 651.1621 355 583.4951 325 c 0
 515.8281 295 466.6611 280 435.9941 280 c 0
 420.6611 280 402.4941 289.5 381.4941 308.5 c 0
 360.4941 327.5 337.6611 352.167 312.9941 382.5 c 0
 288.3271 412.833 273.3271 430.666 267.9941 435.999 c 0
 259.32711 441.33201 255.4941 451.499 256.4941 466.499 c 0
 257.4941 481.499 260.82711 497.332 266.4941 513.999 c 0
 272.16109 530.666 279.9941 549.333 289.9941 570 c 0
 299.9941 590.667 309.6611 609.334 318.9941 626.001 c 2
 344.9941 673.501 l 2
 352.9941 688.501 357.9941 698.668 359.9941 704.001 c 1
 319.9941 792.001 l 2
 316.66109 793.33401 303.1611 797.33401 279.4941 804.001 c 0
 255.8271 810.66799 233.4941 817.668 212.4941 825.001 c 0
 191.4941 832.334 168.8271 841.001 144.4941 851.001 c 0
 120.1611 861.001 100.6611 872.001 85.9941 884.001 c 0
 71.3271 896.001 63.9941 908.001 63.9941 920.001 c 2
 63.9941 1128.001 l 2
 63.9941 1168.001 153.3271 1210.668 331.9941 1256.001 c 1
 371.9941 1344.001 l 1
 352.4941 1374.501 l 2
 344.82711 1386.834 335.8271 1402.501 325.4941 1421.501 c 0
 315.1611 1440.501 305.8281 1459.834 297.4951 1479.501 c 0
 289.1621 1499.168 281.9951 1518.335 275.9951 1537.002 c 0
 269.9951 1555.669 267.16209 1572.836 267.4951 1588.503 c 0
 267.82811 1604.17 271.9951 1616.003 279.9951 1624.003 c 2
 309.9951 1667.003 l 2
 317.32811 1677.003 329.9951 1692.67 347.9951 1714.003 c 0
 365.9951 1735.336 383.4951 1751.669 400.4951 1763.002 c 0
 417.4951 1774.335 433.3281 1780.002 447.9951 1780.002 c 0
 465.9951 1780.002 487.1621 1776.002 511.4951 1768.002 c 0
 535.8281 1760.002 556.6611 1751.835 573.9941 1743.502 c 0
 591.3271 1735.169 614.6601 1723.169 643.9931 1707.502 c 2
 703.9931 1676.002 l 1
 791.9931 1716.002 l 2
 791.9931 1716.668992 793.9931 1722.83598 797.9931 1734.503 c 2
 807.9931 1764.003 l 2
 810.66009 1772.003 814.82708 1783.67 820.4941 1799.003 c 0
 826.16112 1814.336 831.4941 1827.669 836.4941 1839.002 c 2
 853.9941 1877.502 l 2
 860.66109 1891.835 867.1611 1904.168 873.4941 1914.501 c 0
 879.8271 1924.834 886.4941 1934.667 893.4941 1944 c 0
 900.4941 1953.333 907.6611 1960.333 914.9941 1965 c 0
 922.3271 1969.667 929.3271 1972 935.9941 1972 c 2
 1139.9941 1972 l 2
 1151.9941 1972 1163.9941 1964.66699 1175.9941 1950 c 0
 1187.9941 1935.33301 1198.9941 1915.833 1208.9941 1891.5 c 0
 1218.9941 1867.167 1227.6611 1844.5 1234.9941 1823.5 c 0
 1242.3271 1802.5 1249.3271 1780.167 1255.9941 1756.5 c 0
 1262.6611 1732.833 1266.6611 1719.333 1267.9941 1716 c 2
 1355.9941 1676 l 1
 1374.6611 1682.66699 1401.1611 1695.167 1435.4941 1713.5 c 0
 1469.8271 1731.833 1502.1601 1747.5 1532.4931 1760.5 c 0
 1562.8261 1773.5 1589.3261 1780 1611.9931 1780 c 0
 1633.9931 1780 1661.9931 1762 1695.9931 1726 c 0
 1729.9931 1690 1757.9931 1656 1779.9931 1624 c 1
 1793.3261 1614 1796.3261 1594.5 1788.9931 1565.5 c 0
 1781.6601 1536.5 1771.3271 1509.333 1757.9941 1484 c 2
 1714.9941 1402.5 l 2
 1699.6611 1373.5 1690.6611 1354 1687.9941 1344 c 1
 1727.9941 1256 l 2
 1729.9941 1255.333008 1743.8271 1251.33301 1769.4941 1244 c 0
 1795.1611 1236.66699 1818.8281 1229.167 1840.4951 1221.5 c 0
 1862.1621 1213.833 1885.8291 1204.333 1911.4961 1193 c 0
 1937.1631 1181.667 1957.6631 1169 1972.9961 1155 c 0
 1988.3291 1141 1995.9961 1126.667 1995.9961 1112 c 2
 1995.9961 920 l 2
 1995.9961 880 1906.6631 837.333 1727.9961 792 c 1
 1687.9961 704 l 1
 1689.9961 698 1696.4961 685 1707.4961 665 c 2
 1740.4961 603.5 l 2
 1751.4961 582.5 1762.3291 559.167 1772.9961 533.5 c 0
 1783.6631 507.833 1789.6631 486.333 1790.9961 469 c 0
 1792.3291 451.667 1788.66212 436.667 1779.9951 424 c 0
 1776.66209 420.66699 1761.8291 403 1735.4961 371 c 0
 1709.1631 339 1684.8301 313.833 1662.4971 295.5 c 0
 1640.1641 277.167 1619.3311 268 1599.9981 268 c 0
 1581.9981 268 1560.8311 272 1536.4981 280 c 0
 1512.1651 288 1491.3321 296.167 1473.9991 304.5 c 0
 1456.6661 312.833 1433.3331 324.833 1404.0001 340.5 c 2
 1344.0001 372 l 1
 1268.0001 332 l 1
 1262.66709 324.66699 1252.1671 298.167 1236.5001 252.5 c 0
 1220.8331 206.833 1203.5001 166 1184.5001 130 c 0
 1165.5001 94 1146.6671 76 1128.0001 76 c 2
 920 76 l 0
971.996 204 m 1
 1063.9911 204.000976562 l 1
 1070.65809 219.333976562 1079.4911 241.333976562 1090.4911 270.000976562 c 0
 1101.4911 298.667976562 1110.4911 320.334976562 1117.4911 335.001976562 c 0
 1124.4911 349.668976562 1134.3241 367.001976562 1146.9911 387.001976562 c 0
 1159.6581 407.001976562 1174.8251 423.668976562 1192.4921 437.001976562 c 0
 1210.1591 450.334976562 1231.3261 462.001976562 1255.9931 472.001976562 c 0
 1280.6601 482.001976562 1303.8271 488.168976562 1325.4941 490.501976562 c 0
 1347.1611 492.834976562 1369.4941 491.001976562 1392.4941 485.001976562 c 0
 1415.4941 479.001976562 1434.1611 473.334976562 1448.4941 468.001976562 c 0
 1462.8271 462.668976562 1484.1601 452.835976562 1512.4931 438.502976562 c 0
 1540.8261 424.169976562 1561.9931 414.002976562 1575.9931 408.002976562 c 1
 1639.9931 472.002976562 l 1
 1633.9931 488.002976562 1625.3261 507.835976562 1613.9931 531.502976562 c 0
 1602.6601 555.169976562 1593.3271 575.336976562 1585.9941 592.003976562 c 0
 1578.6611 608.670976562 1571.9941 627.337976562 1565.9941 648.004976562 c 0
 1559.9941 668.671976562 1557.66109 689.004976562 1558.9941 709.004976562 c 0
 1560.32711 729.004976562 1565.9941 748.671976562 1575.9941 768.004976562 c 0
 1583.9941 790.671976562 1594.1611 811.004976562 1606.4941 829.004976562 c 0
 1618.8271 847.004976562 1630.6601 861.337976562 1641.9931 872.004976562 c 0
 1653.3261 882.671976562 1668.8261 893.338976562 1688.4931 904.005976562 c 0
 1708.1601 914.672976562 1724.3271 922.505976562 1736.9941 927.505976562 c 2
 1795.4941 949.505976562 l 1
 1855.9941 972.005976562 l 1
 1855.9941 1064.00597656 l 1
 1840.6611 1070.67296656 1818.6611 1079.50597656 1789.9941 1090.50597656 c 0
 1761.3271 1101.50597656 1739.6601 1110.50597656 1724.9931 1117.50597656 c 0
 1710.3261 1124.50597656 1692.9931 1134.33897656 1672.9931 1147.00597656 c 0
 1652.9931 1159.67297656 1636.3261 1174.83997656 1622.9931 1192.50697656 c 0
 1609.6601 1210.17397656 1597.9931 1231.34097656 1587.9931 1256.00797656 c 0
 1577.9931 1280.67497656 1571.8261 1303.84197656 1569.4931 1325.50897656 c 0
 1567.1601 1347.17597656 1568.9931 1369.50897656 1574.9931 1392.50897656 c 0
 1580.9931 1415.50897656 1586.6601 1434.17597656 1591.9931 1448.50897656 c 0
 1597.3261 1462.84197656 1607.1591 1484.17497656 1621.4921 1512.50797656 c 0
 1635.8251 1540.84097656 1645.9921 1562.00797656 1651.9921 1576.00797656 c 1
 1587.9921 1640.00797656 l 1
 1572.6591 1634.67496656 1552.4921 1626.17497656 1527.4921 1614.50797656 c 0
 1502.4921 1602.84097656 1481.1591 1593.34097656 1463.4921 1586.00797656 c 0
 1445.8251 1578.67497656 1425.9921 1572.00797656 1403.9921 1566.00797656 c 0
 1381.9921 1560.00797656 1360.6591 1557.67496656 1339.9921 1559.00797656 c 0
 1319.3251 1560.34098656 1299.3251 1566.00797656 1279.9921 1576.00797656 c 0
 1262.6591 1582.00797656 1246.8261 1589.17497656 1232.4931 1597.50797656 c 0
 1218.1601 1605.84097656 1205.9931 1613.67397656 1195.9931 1621.00697656 c 0
 1185.9931 1628.33997656 1176.3261 1638.17297656 1166.9931 1650.50597656 c 0
 1157.6601 1662.83897656 1150.1601 1673.33897656 1144.4931 1682.00597656 c 0
 1138.8261 1690.67297656 1132.4931 1703.17297656 1125.4931 1719.50597656 c 0
 1118.4931 1735.83897656 1113.1601 1749.00597656 1109.4931 1759.00597656 c 0
 1105.8261 1769.00597656 1100.4931 1784.67297656 1093.4931 1806.00597656 c 0
 1086.4931 1827.33897656 1080.6601 1844.00597656 1075.9931 1856.00597656 c 1
 983.9931 1856.00597656 l 1
 977.32611 1840.67297656 968.4931 1818.67297656 957.4931 1790.00597656 c 0
 946.4931 1761.33897656 937.4931 1739.67197656 930.4931 1725.00497656 c 0
 923.4931 1710.33797656 913.6601 1693.00497656 900.9931 1673.00497656 c 0
 888.3261 1653.00497656 873.1591 1636.33797656 855.4921 1623.00497656 c 0
 837.8251 1609.67197656 816.6581 1598.00497656 791.9911 1588.00497656 c 0
 767.3241 1578.00497656 744.1571 1571.83797656 722.4901 1569.50497656 c 0
 700.8231 1567.17197656 678.4901 1569.00497656 655.4901 1575.00497656 c 0
 632.4901 1581.00497656 613.8231 1586.67197656 599.4901 1592.00497656 c 0
 585.1571 1597.33797656 563.8241 1607.17097656 535.4911 1621.50397656 c 0
 507.1581 1635.83697656 485.9911 1646.00397656 471.9911 1652.00397656 c 1
 407.9911 1588.00397656 l 1
 413.9911 1570.67097656 422.1581 1549.00397656 432.4911 1523.00397656 c 2
 457.9911 1457.50397656 l 2
 464.65809 1439.83697656 470.8251 1420.16997656 476.4921 1398.50297656 c 0
 482.1591 1376.83597656 484.65909 1355.16897656 483.9921 1333.50197656 c 0
 483.32511 1311.83497656 479.32511 1290.00197656 471.9921 1268.00197656 c 0
 461.9921 1243.33497656 450.1591 1222.50197656 436.4921 1205.50197656 c 0
 422.8251 1188.50197656 406.4921 1174.50197656 387.4921 1163.50197656 c 0
 368.4921 1152.50197656 350.8251 1143.66897656 334.4921 1137.00197656 c 0
 318.1591 1130.33497656 296.6591 1122.50197656 269.9921 1113.50197656 c 0
 243.3251 1104.50197656 221.3251 1096.00197656 203.9921 1088.00197656 c 1
 203.9921 984.001976562 l 1
 219.3251 977.334986562 241.3251 968.501976562 269.9921 957.501976562 c 0
 298.6591 946.501976562 320.3261 937.501976562 334.9931 930.501976562 c 0
 349.6601 923.501976562 366.9931 913.668976562 386.9931 901.001976562 c 0
 406.9931 888.334976562 423.6601 873.167976562 436.9931 855.500976562 c 0
 450.3261 837.833976562 461.9931 816.666976562 471.9931 791.999976562 c 0
 481.9931 767.332976562 488.1601 744.165976562 490.4931 722.498976562 c 0
 492.8261 700.831976562 490.9931 678.498976562 484.9931 655.498976562 c 0
 478.9931 632.498976562 473.3261 613.831976562 467.9931 599.498976562 c 0
 462.6601 585.165976562 452.8271 563.832976562 438.4941 535.499976562 c 0
 424.1611 507.166976562 413.9941 485.999976562 407.9941 471.999976562 c 1
 471.9941 407.999976562 l 1
 483.9941 413.332986562 499.1611 420.499976562 517.4941 429.499976562 c 2
 565.9941 453.999976562 l 2
 579.9941 461.332986562 596.3271 468.665976562 614.9941 475.998976562 c 0
 633.6611 483.331976562 650.8281 488.831976562 666.4951 492.498976562 c 0
 682.1621 496.165976562 698.9951 497.832956562 716.9951 497.499956562 c 0
 734.9951 497.166956562 751.9951 493.999956562 767.9951 487.999956562 c 0
 790.6621 479.999956562 810.8291 469.832956562 828.4961 457.499956562 c 0
 846.1631 445.166956562 860.4961 433.166956562 871.4961 421.499956562 c 0
 882.4961 409.832956562 893.3291 393.999956562 903.9961 373.999956562 c 0
 914.6631 353.999956562 922.4961 337.332956562 927.4961 323.999956562 c 2
 948.9961 264.999956562 l 2
 958.32911 238.999956562 965.9961 218.666956562 971.996 204 c 1
1023.99 640.001 m 0
 917.99 640.001 827.49 677.501 752.49 752.501 c 0
 677.49 827.501 639.99 918.001 639.99 1024.001 c 0
 639.99 1130.001 677.49 1220.501 752.49 1295.501 c 0
 827.49 1370.501 917.99 1408.001 1023.99 1408.001 c 0
 1129.99 1408.001 1220.49 1370.501 1295.49 1295.501 c 0
 1370.49 1220.501 1407.99 1130.001 1407.99 1024.001 c 0
 1407.99 918.001 1370.49 827.501 1295.49 752.501 c 0
 1220.49 677.501 1129.99 640.001 1023.99 640.001 c 0
1023.99 768.001 m 0
 1094.657 768.001 1154.99 793.001 1204.99 843.001 c 0
 1254.99 893.001 1279.99 953.334 1279.99 1024.001 c 0
 1279.99 1094.668 1254.99 1155.001 1204.99 1205.001 c 0
 1154.99 1255.001 1094.657 1280.001 1023.99 1280.001 c 0
 953.323 1280.001 892.99 1255.001 842.99 1205.001 c 0
 792.99 1155.001 767.99 1094.668 767.99 1024.001 c 0
 767.99 953.334 792.99 893.001 842.99 843.001 c 0
 892.99 793.001 953.323 768.001 1023.99 768.001 c 0
EndSplineSet
EndChar

StartChar: bss-trash
Encoding: 29 57376 29
Width: 2048
LayerCount: 2
Back
Fore
SplineSet
1280 1600 m 1
 1408 1600 l 1
 1408 320 l 1
 1280 320 l 1
 1280 1600 l 1
768 1984 m 1
 1280 1984 l 1
 1280 1856 l 1
 768 1856 l 1
 768 1984 l 1
960 1600 m 1
 1088 1600 l 1
 1088 320 l 1
 960 320 l 1
 960 1600 l 1
640 1600 m 1
 768 1600 l 1
 768 320 l 1
 640 320 l 1
 640 1600 l 1
1856 1856 m 1
 192 1856 l 1
 192 1728 l 1
 333 1728 l 1
 333 64 l 1
 1702 64 l 1
 1702 1728 l 1
 1843 1728 l 1
 1843 1856 l 1
 1856 1856 l 1
1574 205 m 1
 474 205 l 1
 474 1728 l 1
 1587 1728 l 1
 1574 205 l 1
EndSplineSet
EndChar

StartChar: bss-home
Encoding: 30 57377 30
Width: 2048
LayerCount: 2
Back
Fore
SplineSet
1024 1984 m 1
 992 1964 l 1
 -32 1324 l 1
 32 1212 l 1
 192 1312 l 1
 192 244 l 1
 192 180 l 1
 256 180 l 1
 768 180 l 1
 832 180 l 1
 832 244 l 1
 832 820 l 1
 1216 820 l 1
 1216 244 l 1
 1216 180 l 1
 1280 180 l 1
 1792 180 l 1
 1856 180 l 1
 1856 244 l 1
 1856 1312 l 1
 2016 1212 l 1
 2080 1324 l 1
 1056 1964 l 1
 1024 1984 l 1
1024 1832 m 1
 1728 1392 l 1
 1728 308 l 1
 1344 308 l 1
 1344 884 l 1
 1344 948 l 1
 1280 948 l 1
 768 948 l 1
 704 948 l 1
 704 884 l 1
 704 308 l 1
 320 308 l 1
 320 1392 l 1
 1024 1832 l 1
EndSplineSet
EndChar

StartChar: bss-file
Encoding: 31 57378 31
Width: 2048
LayerCount: 2
Back
Fore
SplineSet
1601 215 m 1
 438 215 l 1
 438 1833 l 1
 993 1833 l 1
 993 1961 l 1
 310 1961 l 1
 310 87 l 1
 1729 87 l 1
 1729 1123 l 1
 1601 1123 l 1
 1601 215 l 1
1087 1961 m 1
 1087 1215 l 1
 1738 1215 l 1
 1087 1961 l 1
1215 1620 m 1
 1457 1343 l 1
 1215 1343 l 1
 1215 1620 l 1
EndSplineSet
EndChar

StartChar: bss-time
Encoding: 32 57379 32
Width: 2048
Flags: H
LayerCount: 2
Back
Fore
SplineSet
1017 85 m 4
 887 85 762.666992188 110.333007812 644 161 c 4
 525.333007812 211.666992188 423.166015625 279.833984375 337.499023438 365.500976562 c 4
 251.83203125 451.16796875 183.665039062 553.334960938 132.998046875 672.001953125 c 4
 82.3310546875 790.668945312 56.998046875 915.001953125 56.998046875 1045.00195312 c 4
 56.998046875 1175.00195312 82.3310546875 1299.33496094 132.998046875 1418.00195312 c 4
 183.665039062 1536.66894531 251.83203125 1638.8359375 337.499023438 1724.50292969 c 4
 423.166015625 1810.16992188 525.333007812 1878.33691406 644 1929.00390625 c 4
 762.666992188 1979.67089844 887 2005.00390625 1017 2005.00390625 c 4
 1147 2005.00390625 1271.33300781 1979.67089844 1390 1929.00390625 c 4
 1508.66699219 1878.33691406 1610.83398438 1810.16992188 1696.50097656 1724.50292969 c 4
 1782.16796875 1638.8359375 1850.33496094 1536.66894531 1901.00195312 1418.00195312 c 4
 1951.66894531 1299.33496094 1977.00195312 1175.00195312 1977.00195312 1045.00195312 c 4
 1977.00195312 915.001953125 1951.66894531 790.668945312 1901.00195312 672.001953125 c 4
 1850.33496094 553.334960938 1782.16796875 451.16796875 1696.50097656 365.500976562 c 4
 1610.83398438 279.833984375 1508.66699219 211.666992188 1390 161 c 4
 1271.33300781 110.333007812 1147 85 1017 85 c 4
1017 222 m 4
 1128.33300781 222 1234.83300781 243.833007812 1336.5 287.5 c 4
 1438.16699219 331.166992188 1525.66699219 389.666992188 1599 463 c 4
 1672.33300781 536.333007812 1730.83300781 623.833007812 1774.5 725.5 c 4
 1818.16699219 827.166992188 1840 933.666992188 1840 1045 c 4
 1840 1134.33300781 1826.16699219 1220.83300781 1798.5 1304.5 c 4
 1770.83300781 1388.16699219 1731.5 1463.66699219 1680.5 1531 c 4
 1629.5 1598.33300781 1570.33300781 1657.33300781 1503 1708 c 4
 1435.66699219 1758.66699219 1360.16699219 1797.83398438 1276.5 1825.50097656 c 4
 1192.83300781 1853.16796875 1106.33300781 1867.00097656 1017 1867.00097656 c 4
 927.666992188 1867.00097656 841.166992188 1853.16796875 757.5 1825.50097656 c 4
 673.833007812 1797.83398438 598.333007812 1758.66699219 531 1708 c 4
 463.666992188 1657.33300781 404.5 1598.33300781 353.5 1531 c 4
 302.5 1463.66699219 263.166992188 1388.16699219 235.5 1304.5 c 4
 207.833007812 1220.83300781 194 1134.33300781 194 1045 c 4
 194 933.666992188 215.833007812 827.166992188 259.5 725.5 c 4
 303.166992188 623.833007812 361.666992188 536.333007812 435 463 c 4
 508.333007812 389.666992188 595.833007812 331.166992188 697.5 287.5 c 4
 799.166992188 243.833007812 905.666992188 222 1017 222 c 4
889 853 m 5
 889 1685 l 5
 1017 1685 l 5
 1017 981 l 5
 1529 981 l 5
 1529 853 l 5
 889 853 l 5
EndSplineSet
EndChar

StartChar: bss-road
Encoding: 33 57380 33
Width: 2048
LayerCount: 2
Back
Fore
SplineSet
316 0 m 1
 316 2048 l 1
 444 2048 l 1
 444 0 l 1
 316 0 l 1
948 0 m 1
 948 240 l 1
 1076 240 l 1
 1076 0 l 1
 948 0 l 1
1580 0 m 1
 1580 2048 l 1
 1708 2048 l 1
 1708 0 l 1
 1580 0 l 1
948 452 m 1
 948 692 l 1
 1076 692 l 1
 1076 452 l 1
 948 452 l 1
948 904 m 1
 948 1144 l 1
 1076 1144 l 1
 1076 904 l 1
 948 904 l 1
948 1356 m 1
 948 1596 l 1
 1076 1596 l 1
 1076 1356 l 1
 948 1356 l 1
948 1808 m 1
 948 2048 l 1
 1076 2048 l 1
 1076 1808 l 1
 948 1808 l 1
EndSplineSet
EndChar

StartChar: bss-download-alt
Encoding: 34 57381 34
Width: 2048
LayerCount: 2
Back
Fore
SplineSet
960 1920 m 1
 960 1016 l 1
 576 1344 l 1
 576 1152 l 1
 1024 768 l 1
 1472 1152 l 1
 1472 1344 l 1
 1088 1016 l 1
 1088 1920 l 1
 960 1920 l 1
0 576 m 1
 0 64 l 1
 2048 64 l 1
 2048 576 l 1
 0 576 l 1
128 448 m 1
 1920 448 l 1
 1920 192 l 1
 128 192 l 1
 128 448 l 1
1280 384 m 1
 1280 320 l 1
 1280 256 l 1
 1792 256 l 1
 1792 384 l 1
 1280 384 l 1
EndSplineSet
EndChar

StartChar: bss-download
Encoding: 35 57382 35
Width: 2048
Flags: H
LayerCount: 2
Back
Fore
SplineSet
1017 2005 m 4
 887 2005 762.666992188 1979.66699219 644 1929 c 4
 525.333007812 1878.33300781 423.166015625 1810.16601562 337.499023438 1724.49902344 c 4
 251.83203125 1638.83203125 183.665039062 1536.66503906 132.998046875 1417.99804688 c 4
 82.3310546875 1299.33105469 56.998046875 1174.99804688 56.998046875 1044.99804688 c 4
 56.998046875 914.998046875 82.3310546875 790.665039062 132.998046875 671.998046875 c 4
 183.665039062 553.331054688 251.83203125 451.1640625 337.499023438 365.497070312 c 4
 423.166015625 279.830078125 525.333007812 211.663085938 644 160.99609375 c 4
 762.666992188 110.329101562 887 84.99609375 1017 84.99609375 c 4
 1147 84.99609375 1271.33300781 110.329101562 1390 160.99609375 c 4
 1508.66699219 211.663085938 1610.83398438 279.830078125 1696.50097656 365.497070312 c 4
 1782.16796875 451.1640625 1850.33496094 553.331054688 1901.00195312 671.998046875 c 4
 1951.66894531 790.665039062 1977.00195312 914.998046875 1977.00195312 1044.99804688 c 4
 1977.00195312 1174.99804688 1951.66894531 1299.33105469 1901.00195312 1417.99804688 c 4
 1850.33496094 1536.66503906 1782.16796875 1638.83203125 1696.50097656 1724.49902344 c 4
 1610.83398438 1810.16601562 1508.66699219 1878.33300781 1390 1929 c 4
 1271.33300781 1979.66699219 1147 2005 1017 2005 c 4
1017 1867 m 4
 1106.33300781 1867 1192.83300781 1853.16699219 1276.5 1825.5 c 4
 1360.16699219 1797.83300781 1435.66699219 1758.66601562 1503 1707.99902344 c 4
 1570.33300781 1657.33203125 1629.5 1598.33203125 1680.5 1530.99902344 c 4
 1731.5 1463.66601562 1770.83300781 1388.16601562 1798.5 1304.49902344 c 4
 1826.16699219 1220.83203125 1840 1134.33203125 1840 1044.99902344 c 4
 1840 933.666015625 1818.16699219 827.166015625 1774.5 725.499023438 c 4
 1730.83300781 623.83203125 1672.33300781 536.33203125 1599 462.999023438 c 4
 1525.66699219 389.666015625 1438.16699219 331.166015625 1336.5 287.499023438 c 4
 1234.83300781 243.83203125 1128.33300781 221.999023438 1017 221.999023438 c 4
 905.666992188 221.999023438 799.166992188 243.83203125 697.5 287.499023438 c 4
 595.833007812 331.166015625 508.333007812 389.666015625 435 462.999023438 c 4
 361.666992188 536.33203125 303.166992188 623.83203125 259.5 725.499023438 c 4
 215.833007812 827.166015625 194 933.666015625 194 1044.99902344 c 4
 194 1134.33203125 207.833007812 1220.83203125 235.5 1304.49902344 c 4
 263.166992188 1388.16601562 302.5 1463.66601562 353.5 1530.99902344 c 4
 404.5 1598.33203125 463.666992188 1657.33203125 531 1707.99902344 c 4
 598.333007812 1758.66601562 673.833007812 1797.83300781 757.5 1825.5 c 4
 841.166992188 1853.16699219 927.666992188 1867 1017 1867 c 4
953 1621 m 5
 953 693 l 5
 561 1017 l 5
 561 825 l 5
 1025 441 l 5
 1473 825 l 5
 1473 1017 l 5
 1081 681 l 5
 1081 1621 l 5
 953 1621 l 5
EndSplineSet
EndChar

StartChar: bss-upload
Encoding: 36 57383 36
Width: 2048
Flags: H
LayerCount: 2
Back
Fore
SplineSet
1017 85 m 0
 887 85 762.666992188 110.333007812 644 161 c 0
 525.333007812 211.666992188 423.166015625 279.833984375 337.499023438 365.500976562 c 0
 251.83203125 451.16796875 183.665039062 553.334960938 132.998046875 672.001953125 c 0
 82.3310546875 790.668945312 56.998046875 915.001953125 56.998046875 1045.00195312 c 0
 56.998046875 1175.00195312 82.3310546875 1299.33496094 132.998046875 1418.00195312 c 0
 183.665039062 1536.66894531 251.83203125 1638.8359375 337.499023438 1724.50292969 c 0
 423.166015625 1810.16992188 525.333007812 1878.33691406 644 1929.00390625 c 0
 762.666992188 1979.67089844 887 2005.00390625 1017 2005.00390625 c 0
 1147 2005.00390625 1271.33300781 1979.67089844 1390 1929.00390625 c 0
 1508.66699219 1878.33691406 1610.83398438 1810.16992188 1696.50097656 1724.50292969 c 0
 1782.16796875 1638.8359375 1850.33496094 1536.66894531 1901.00195312 1418.00195312 c 0
 1951.66894531 1299.33496094 1977.00195312 1175.00195312 1977.00195312 1045.00195312 c 0
 1977.00195312 915.001953125 1951.66894531 790.668945312 1901.00195312 672.001953125 c 0
 1850.33496094 553.334960938 1782.16796875 451.16796875 1696.50097656 365.500976562 c 0
 1610.83398438 279.833984375 1508.66699219 211.666992188 1390 161 c 0
 1271.33300781 110.333007812 1147 85 1017 85 c 0
1017 222 m 0
 1128.33300781 222 1234.83300781 243.833007812 1336.5 287.5 c 0
 1438.16699219 331.166992188 1525.66699219 389.666992188 1599 463 c 0
 1672.33300781 536.333007812 1730.83300781 623.833007812 1774.5 725.5 c 0
 1818.16699219 827.166992188 1840 933.666992188 1840 1045 c 0
 1840 1134.33300781 1826.16699219 1220.83300781 1798.5 1304.5 c 0
 1770.83300781 1388.16699219 1731.5 1463.66699219 1680.5 1531 c 0
 1629.5 1598.33300781 1570.33300781 1657.33300781 1503 1708 c 0
 1435.66699219 1758.66699219 1360.16699219 1797.83398438 1276.5 1825.50097656 c 0
 1192.83300781 1853.16796875 1106.33300781 1867.00097656 1017 1867.00097656 c 0
 927.666992188 1867.00097656 841.166992188 1853.16796875 757.5 1825.50097656 c 0
 673.833007812 1797.83398438 598.333007812 1758.66699219 531 1708 c 0
 463.666992188 1657.33300781 404.5 1598.33300781 353.5 1531 c 0
 302.5 1463.66699219 263.166992188 1388.16699219 235.5 1304.5 c 0
 207.833007812 1220.83300781 194 1134.33300781 194 1045 c 0
 194 933.666992188 215.833007812 827.166992188 259.5 725.5 c 0
 303.166992188 623.833007812 361.666992188 536.333007812 435 463 c 0
 508.333007812 389.666992188 595.833007812 331.166992188 697.5 287.5 c 0
 799.166992188 243.833007812 905.666992188 222 1017 222 c 0
953 469 m 1
 953 1397 l 1
 561 1073 l 1
 561 1265 l 1
 1025 1649 l 1
 1473 1265 l 1
 1473 1073 l 1
 1081 1409 l 1
 1081 469 l 1
 953 469 l 1
EndSplineSet
EndChar

StartChar: bss-inbox
Encoding: 37 57384 37
Width: 2048
LayerCount: 2
Back
Fore
SplineSet
0 0 m 1
 0 896 l 1
 128 896 l 1
 128 128 l 1
 1920 128 l 1
 1920 896 l 1
 2048 896 l 1
 2048 0 l 1
 0 0 l 1
1024 400 m 1
 576 848 l 1
 576 1028 l 1
 960 644 l 1
 960 1824 l 1
 1088 1824 l 1
 1088 644 l 1
 1472 1028 l 1
 1472 848 l 1
 1024 400 l 1
EndSplineSet
EndChar

StartChar: bss-play-circle
Encoding: 38 57385 38
Width: 2048
HStem: 85 137<756.768 1289.23> 1867 138.003<756.433 1289.57>
VStem: 62.998 137.002<778.769 1311.57> 767 128<781 1309> 1846 137.002<778.769 1311.57>
LayerCount: 2
Back
Fore
SplineSet
1023 85 m 0
 893 85 768.666992188 110.333007812 650 161 c 0
 531.333007812 211.666992188 429.166015625 279.833984375 343.499023438 365.500976562 c 0
 257.83203125 451.16796875 189.665039062 553.334960938 138.998046875 672.001953125 c 0
 88.3310546875 790.668945312 62.998046875 915.001953125 62.998046875 1045.00195312 c 0
 62.998046875 1175.00195312 88.3310546875 1299.33496094 138.998046875 1418.00195312 c 0
 189.665039062 1536.66894531 257.83203125 1638.8359375 343.499023438 1724.50292969 c 0
 429.166015625 1810.16992188 531.333007812 1878.33691406 650 1929.00390625 c 0
 768.666992188 1979.67089844 893 2005.00390625 1023 2005.00390625 c 0
 1153 2005.00390625 1277.33300781 1979.67089844 1396 1929.00390625 c 0
 1514.66699219 1878.33691406 1616.83398438 1810.16992188 1702.50097656 1724.50292969 c 0
 1788.16796875 1638.8359375 1856.33496094 1536.66894531 1907.00195312 1418.00195312 c 0
 1957.66894531 1299.33496094 1983.00195312 1175.00195312 1983.00195312 1045.00195312 c 0
 1983.00195312 915.001953125 1957.66894531 790.668945312 1907.00195312 672.001953125 c 0
 1856.33496094 553.334960938 1788.16796875 451.16796875 1702.50097656 365.500976562 c 0
 1616.83398438 279.833984375 1514.66699219 211.666992188 1396 161 c 0
 1277.33300781 110.333007812 1153 85 1023 85 c 0
1023 222 m 0
 1134.33300781 222 1240.83300781 243.833007812 1342.5 287.5 c 0
 1444.16699219 331.166992188 1531.66699219 389.666992188 1605 463 c 0
 1678.33300781 536.333007812 1736.83300781 623.833007812 1780.5 725.5 c 0
 1824.16699219 827.166992188 1846 933.666992188 1846 1045 c 0
 1846 1134.33300781 1832.16699219 1220.83300781 1804.5 1304.5 c 0
 1776.83300781 1388.16699219 1737.5 1463.66699219 1686.5 1531 c 0
 1635.5 1598.33300781 1576.33300781 1657.33300781 1509 1708 c 0
 1441.66699219 1758.66699219 1366.16699219 1797.83398438 1282.5 1825.50097656 c 0
 1198.83300781 1853.16796875 1112.33300781 1867.00097656 1023 1867.00097656 c 0
 933.666992188 1867.00097656 847.166992188 1853.16796875 763.5 1825.50097656 c 0
 679.833007812 1797.83398438 604.333007812 1758.66699219 537 1708 c 0
 469.666992188 1657.33300781 410.5 1598.33300781 359.5 1531 c 0
 308.5 1463.66699219 269.166992188 1388.16699219 241.5 1304.5 c 0
 213.833007812 1220.83300781 200 1134.33300781 200 1045 c 0
 200 933.666992188 221.833007812 827.166992188 265.5 725.5 c 0
 309.166992188 623.833007812 367.666992188 536.333007812 441 463 c 0
 514.333007812 389.666992188 601.833007812 331.166992188 703.5 287.5 c 0
 805.166992188 243.833007812 911.666992188 222 1023 222 c 0
767 541 m 1
 767 661 l 1
 767 1429 l 1
 767 1549 l 1
 867 1481 l 1
 1443 1097 l 1
 1523 1045 l 1
 1443 993 l 1
 867 609 l 1
 767 541 l 1
895 781 m 1
 1295 1045 l 1
 895 1309 l 1
 895 781 l 1
EndSplineSet
EndChar

StartChar: bss-repeat
Encoding: 39 57392 39
Width: 2048
LayerCount: 2
Back
Fore
SplineSet
1000 1968 m 0
 796.667 1965.33301 612.672 1901.501 448.005 1776.501 c 0
 283.338 1651.501 172.671 1488.668 116.004 1288.001 c 0
 92.671 1206.001 80.671 1123.168 80.004 1039.501 c 0
 79.337 955.834 88.67002 875.501 108.003 798.501 c 0
 127.33598 721.501 156.669 647.501 196.002 576.501 c 0
 235.335 505.501 282.335 441.001 337.002 383.001 c 0
 391.669 325.001 454.669 273.668 526.002 229.001 c 0
 597.335 184.334 674.002 149.334 756.002 124.001 c 0
 838.002 100.668 920.835 88.668 1004.502 88.001 c 0
 1088.169 87.334 1168.502 96.66702 1245.502 116 c 0
 1322.502 135.33298 1396.502 164.666 1467.502 203.999 c 0
 1538.502 243.332 1603.002 290.332 1661.002 344.999 c 0
 1719.002 399.666 1770.335 462.666 1815.002 533.999 c 0
 1859.669 605.332 1894.669 681.999 1920.002 763.999 c 0
 1946.669 842.666 1960.002 918.666 1960.002 991.999 c 1
 1944.002 991.999 l 1
 1816.002 991.999 l 1
 1814.66899 949.999 1806.66899 885.999 1792.002 799.999 c 1
 1766.669 716.666 1729.169 639.499 1679.502 568.499 c 0
 1629.835 497.499 1572.168 437.332 1506.501 387.999 c 0
 1440.834 338.666 1368.501 298.666 1289.501 267.999 c 0
 1210.501 237.332 1129.334 220.999 1046.001 218.999 c 0
 962.668 216.999 878.001 227.999 792.001 251.999 c 0
 708.668 277.332 631.501 314.832 560.501 364.499 c 0
 489.501 414.166 429.334 471.499 380.001 536.499 c 0
 330.668 601.499 290.668 673.332 260.001 751.999 c 0
 229.334 830.666 213.001 911.499 211.001 994.499 c 0
 209.001 1077.499 220.001 1161.999 244.001 1247.999 c 0
 275.334 1351.999 325.334 1446.166 394.001 1530.499 c 0
 462.668 1614.832 541.835 1681.499 631.502 1730.499 c 0
 721.169 1779.499 818.669 1811.666 924.002 1826.999 c 0
 1029.335 1842.332 1134.668 1833.33201 1240.001 1799.999 c 0
 1320.001 1778.666 1395.168 1744.833 1465.501 1698.5 c 0
 1535.834 1652.167 1596.667 1596.667 1648 1532 c 1
 1460 1428 l 1
 1908 1224 l 1
 1972 1712 l 1
 1760 1592 l 1
 1636 1766.667 1476 1878.667 1280 1928 c 1
 1190 1956 1096.667 1969.333 1000 1968 c 0
EndSplineSet
EndChar

StartChar: bss-refresh
Encoding: 40 57393 40
Width: 2048
LayerCount: 2
Back
Fore
SplineSet
1882 1050 m 1
 1766.002 1050.00097656 l 1
 1766.002 1012.00097656 1757.66899 943.667976562 1741.002 845.000976562 c 1
 1715.669 761.667976562 1678.169 684.334976562 1628.502 613.001976562 c 0
 1578.835 541.668976562 1521.168 481.168976562 1455.501 431.501976562 c 0
 1389.834 381.834976562 1317.667 341.667976562 1239 311.000976562 c 0
 1160.333 280.333976562 1079.333 263.833976562 996 261.500976562 c 0
 912.667 259.167976562 828 270.000976562 742 294.000976562 c 0
 570 346.667976562 433.667 436.334976562 333 563.001976562 c 1
 538 678.001976562 l 1
 102 883.001976562 l 1
 38 397.001976562 l 1
 230 499.001976562 l 1
 346 343.668976562 504 232.668976562 704 166.001976562 c 0
 786 142.668976562 869 130.668976562 953 130.001976562 c 0
 1037 129.334976562 1117.333 138.667996562 1194 158.000976562 c 0
 1270.667 177.333956562 1344.667 206.666976562 1416 245.999976562 c 0
 1487.333 285.332976562 1551.833 332.332976562 1609.5 386.999976562 c 0
 1667.167 441.666976562 1718.5 504.666976562 1763.5 575.999976562 c 0
 1808.5 647.332976562 1843.667 723.999976562 1869 805.999976562 c 0
 1894.333 881.332976562 1907 958.332976562 1907 1036.99997656 c 1
 1882 1050 l 1
1715 1638 m 1
 1585 1811.333 1422.998 1922.331 1228.998 1970.998 c 0
 1146.998 1994.331 1063.998 2006.331 979.998 2006.998 c 0
 895.998 2007.665 815.665 1998.33198 738.998 1978.999 c 0
 662.331 1959.66602 588.331 1930.333 516.998 1891 c 0
 445.665 1851.667 381.165 1804.667 323.498 1750 c 0
 265.831 1695.333 214.498 1632.333 169.498 1561 c 0
 124.498 1489.667 89.331 1413 63.998 1331 c 0
 55.998 1308.333 49.998 1284.166 45.998 1258.499 c 0
 41.998 1232.832 38.33101 1204.499 34.998 1173.499 c 0
 31.66499 1142.499 28.66499 1118.332 25.998 1100.999 c 1
 153.998 1100.999 l 1
 153.998 1138.999 162.33101 1207.332 178.998 1305.999 c 1
 204.331 1389.332 241.831 1466.499 291.498 1537.499 c 0
 341.165 1608.499 398.832 1668.832 464.499 1718.499 c 0
 530.166 1768.166 602.333 1808.333 681 1839 c 0
 759.667 1869.667 840.667 1886.167 924 1888.5 c 0
 1007.333 1890.833 1092 1880 1178 1856 c 0
 1340.667 1806 1477 1712 1587 1574 c 1
 1408 1459 l 1
 1856 1254 l 1
 1920 1754 l 1
 1715 1638 l 1
EndSplineSet
EndChar

StartChar: bss-list-alt
Encoding: 41 57394 41
Width: 2048
LayerCount: 2
Back
Fore
SplineSet
-64 -64 m 1
 -64 0 l 1
 -64 2048 l 1
 -64 2112 l 1
 0 2112 l 1
 2048 2112 l 1
 2112 2112 l 1
 2112 2048 l 1
 2112 0 l 1
 2112 -64 l 1
 2048 -64 l 1
 0 -64 l 1
 -64 -64 l 1
64 64 m 1
 1984 64 l 1
 1984 1984 l 1
 64 1984 l 1
 64 64 l 1
256 320 m 1
 256 448 l 1
 512 448 l 1
 512 320 l 1
 256 320 l 1
768 320 m 1
 768 448 l 1
 1792 448 l 1
 1792 320 l 1
 768 320 l 1
256 640 m 1
 256 768 l 1
 512 768 l 1
 512 640 l 1
 256 640 l 1
768 640 m 1
 768 768 l 1
 1792 768 l 1
 1792 640 l 1
 768 640 l 1
256 960 m 1
 256 1088 l 1
 512 1088 l 1
 512 960 l 1
 256 960 l 1
768 960 m 1
 768 1088 l 1
 1792 1088 l 1
 1792 960 l 1
 768 960 l 1
256 1280 m 1
 256 1408 l 1
 512 1408 l 1
 512 1280 l 1
 256 1280 l 1
768 1280 m 1
 768 1408 l 1
 1792 1408 l 1
 1792 1280 l 1
 768 1280 l 1
256 1600 m 1
 256 1728 l 1
 512 1728 l 1
 512 1600 l 1
 256 1600 l 1
768 1600 m 1
 768 1728 l 1
 1792 1728 l 1
 1792 1600 l 1
 768 1600 l 1
EndSplineSet
EndChar

StartChar: bss-lock
Encoding: 42 57395 42
Width: 2048
LayerCount: 2
Back
Fore
SplineSet
1408 1357 m 1
 1407.99902344 1664.001 l 2
 1407.99902344 1773.334 1368.99902344 1866.834 1290.99902344 1944.501 c 0
 1212.99902344 2022.168 1119.66602344 2061.001 1010.99902344 2061.001 c 0
 902.999023438 2061.001 811.999023438 2022.334 737.999023438 1945.001 c 0
 663.999023438 1867.668 626.999023438 1774.001 626.999023438 1664.001 c 2
 626.999023438 1344.001 l 1
 523.666023438 1279.334 442.333023438 1192.667 383.000023438 1084 c 0
 323.667023438 975.333 294.000023438 857.333 294.000023438 730 c 0
 294.000023438 632.667 313.500023438 539 352.500023438 449 c 0
 391.500023438 359 443.833023438 281.167 509.500023438 215.5 c 0
 575.167023438 149.833 653.000023438 97.5 743.000023438 58.5 c 0
 833.000023438 19.5 926.667023438 2.27373675443e-013 1024.00002344 2.27373675443e-013 c 0
 1121.33302344 2.27373675443e-013 1215.00002344 19.5 1305.00002344 58.5 c 0
 1395.00002344 97.5 1472.83302344 149.833 1538.50002344 215.5 c 0
 1604.16702344 281.167 1656.50002344 359 1695.50002344 449 c 0
 1734.50002344 539 1754.00002344 632.667 1754.00002344 730 c 1
 1747.33303344 862.667 1714.00002344 982.5 1654.00002344 1089.5 c 0
 1594.00002344 1196.5 1512.00002344 1285.667 1408 1357 c 1
754.999 1664 m 2
 754.999 1740 779.833 1803.833 829.5 1855.5 c 0
 879.167 1907.167 939.667 1933 1011 1933 c 0
 1087.667 1933 1151.667 1907.5 1203 1856.5 c 0
 1254.333 1805.5 1280 1741.333 1280 1664 c 2
 1280 1408 l 1
 1193.333 1450.667 1103.666 1472 1010.999 1472 c 0
 940.999 1472 855.666 1455 754.999 1421 c 1
 754.999 1664 l 2
1024 154.001 m 0
 942 154.001 863.332 169.167 787.999 199.5 c 0
 712.666 229.833 647.333 270.833 592 322.5 c 0
 536.667 374.167 492.5 436.667 459.5 510 c 0
 426.5 583.333 410 660.666 410 741.999 c 0
 410 823.999 425.833 902.166 457.5 976.499 c 0
 489.167 1050.832 531.834 1114.832 585.501 1168.499 c 0
 639.168 1222.166 703.001 1264.833 777.001 1296.5 c 0
 851.001 1328.167 929.001 1344 1011.001 1344 c 0
 1120.334 1344 1221.167 1317.167 1313.5 1263.5 c 0
 1405.833 1209.833 1478.833 1136.833 1532.5 1044.5 c 0
 1586.167 952.167 1613 851.334 1613 742.001 c 0
 1613 632.668 1587.167 533.001 1535.5 443.001 c 0
 1483.833 353.001 1413 282.334 1323 231.001 c 0
 1233 179.668 1133.333 154.001 1024 154.001 c 0
1011 742 m 0
 983.667 742 959.833 732.66699 939.5 714 c 0
 919.167 695.33301 909 670.666 909 639.999 c 0
 909 613.999 921.667 588.332 947 562.999 c 1
 947 345.999 l 1
 1075 345.999 l 1
 1075 562.999 l 1
 1101 575.666 1114 601.333 1114 640 c 0
 1114 672 1104.83301 697 1086.5 715 c 0
 1068.16699 733 1043 742 1011 742 c 0
EndSplineSet
EndChar

StartChar: bss-flag
Encoding: 43 57396 43
Width: 2048
LayerCount: 2
Back
Fore
SplineSet
320 1984 m 1
 320 64 l 1
 448 64 l 1
 448 1984 l 1
 320 1984 l 1
576 1984 m 1
 576 1920 l 1
 576 1088 l 1
 576 1024 l 1
 640 1024 l 1
 1792 1024 l 1
 1948 1024 l 1
 1836 1132 l 1
 1492 1476 l 1
 1840 1880 l 1
 1932 1984 l 1
 1792 1984 l 1
 640 1984 l 1
 576 1984 l 1
704 1856 m 1
 1656 1856 l 1
 1360 1512 l 1
 1320 1468 l 1
 1364 1428 l 1
 1640 1152 l 1
 704 1152 l 1
 704 1856 l 1
EndSplineSet
EndChar

StartChar: bss-headphones
Encoding: 44 57397 44
Width: 2048
LayerCount: 2
Back
Fore
SplineSet
1024 2048 m 0
 910.667 2048 801.496 2030.665 696.496 1995.998 c 0
 591.496 1961.331 497.329 1912.664 413.996 1849.997 c 0
 330.663 1787.33 257.663 1714.33 194.996 1630.997 c 0
 132.329 1547.664 84.162 1454.997 50.495 1352.997 c 0
 16.828 1250.997 -0.00500000000002 1145.664 -0.00500000000002 1036.997 c 2
 -0.00500000000002 383.997 l 1
 127.995 383.997 l 1
 127.995 409.997 l 1
 141.328 304.664 186.995 216.331 264.995 144.998 c 0
 342.995 73.665 437.995 37.998 549.995 37.998 c 1
 549.995 869.998 l 1
 443.328 869.998 351.828 834.331 275.495 762.998 c 0
 199.162 691.665 154.329 603.665 140.996 498.998 c 1
 140.996 1036.998 l 2
 140.996 1156.331 164.496 1270.498 211.496 1379.498 c 0
 258.496 1488.498 321.829 1582.498 401.496 1661.498 c 0
 481.163 1740.498 576.33 1803.331 686.997 1849.998 c 0
 797.664 1896.665 914.331 1919.998 1036.998 1919.998 c 0
 1159.665 1919.998 1276.332 1896.665 1386.999 1849.998 c 0
 1497.666 1803.331 1592.833 1740.498 1672.5 1661.498 c 0
 1752.167 1582.498 1815.5 1488.498 1862.5 1379.498 c 0
 1909.5 1270.498 1933 1156.331 1933 1036.998 c 2
 1933 498.998 l 1
 1919.667 603.665 1874.667 691.665 1798 762.998 c 0
 1721.333 834.331 1629.666 869.998 1522.999 869.998 c 1
 1522.999 37.998 l 1
 1629.666 37.998 1721.333 73.831 1798 145.498 c 0
 1874.667 217.165 1919.667 305.332 1933 409.999 c 1
 1933 383.999 l 1
 2061 383.999 l 1
 2061 1036.999 l 2
 2059 1127.666 2044.833 1216.333 2018.5 1303 c 0
 1992.167 1389.667 1956.5 1470 1911.5 1544 c 0
 1866.5 1618 1812.167 1686.167 1748.5 1748.5 c 0
 1684.833 1810.833 1615.5 1864 1540.5 1908 c 0
 1465.5 1952 1383.667 1986.333 1295 2011 c 0
 1206.333 2035.667 1116 2048 1024 2048 c 0
409.996 703.998 m 1
 409.996 191.999 l 1
 363.329 218.666 325.996 254.166 297.996 298.499 c 0
 269.996 342.832 255.996 392.665 255.996 447.998 c 1
 249.32901 505.331 260.496 557.498 289.496 604.498 c 0
 318.496 651.498 358.663 684.665 409.996 703.998 c 1
1638 191.999 m 1
 1638 703.997 l 1
 1684.667 677.33 1722 641.83 1750 597.497 c 0
 1778 553.164 1792 503.331 1792 447.998 c 0
 1792 392.665 1778 342.832 1750 298.499 c 0
 1722 254.166 1684.667 218.666 1638 191.999 c 1
EndSplineSet
EndChar

StartChar: bss-volume-off
Encoding: 45 57398 45
Width: 2048
LayerCount: 2
Back
Fore
SplineSet
1686 1038 m 1
 1896.999 827 l 1
 1875.666 794.333 1845.333 764 1806 736 c 1
 1595 947 l 1
 1385 736 l 1
 1348.333 760 1318 790.333 1294 827 c 1
 1504 1038 l 1
 1293 1248 l 1
 1315 1280.667 1345.333 1311 1384 1339 c 1
 1595 1129 l 1
 1806 1339 l 1
 1838.667 1317 1869 1286.667 1897 1248 c 1
 1686 1038 l 1
-0.000976562 621 m 1
 -0.000976562 1455 l 1
 342.999023438 1455 l 1
 1125.99902344 1883 l 1
 1125.99902344 193 l 1
 342.999023438 621 l 1
 -0.000976562 621 l 1
292.999 1327 m 1
 127.999 1327 l 1
 127.999 749 l 1
 292.999 749 l 1
 292.999 1327 l 1
423.999 722 m 1
 997.999 408 l 1
 997.999 1667 l 1
 423.999 1353 l 1
 423.999 722 l 1
EndSplineSet
EndChar

StartChar: bss-volume-down
Encoding: 46 57399 46
Width: 2048
LayerCount: 2
Back
Fore
SplineSet
1894 1024 m 0
 1894 1104 1872.5 1180.5 1829.5 1253.5 c 0
 1786.5 1326.5 1731.333 1386.667 1664 1434 c 1
 1574 1331 l 1
 1627.333 1297.667 1670.666 1253.667 1703.999 1199 c 0
 1737.332 1144.333 1753.999 1086 1753.999 1024 c 0
 1753.999 959.333 1738.332 900 1706.999 846 c 0
 1675.666 792 1631.333 749 1574 717 c 1
 1664 614 l 1
 1731.333 661.333 1786.5 721.5 1829.5 794.5 c 0
 1872.5 867.5 1894 944 1894 1024 c 0
1523 1216 m 1
 1446 1101.001 l 1
 1459.333 1094.33401 1471.333 1083.001 1482 1067.001 c 0
 1492.667 1051.001 1498 1036.668 1498 1024.001 c 0
 1498 990.001 1480.667 964.334 1446 947.001 c 1
 1523 845.001 l 1
 1599.667 890.334 1638 958.667 1638 1050 c 1
 1622 1112 1583.667 1167.333 1523 1216 c 1
1280 192.001 m 1
 512 627.001 l 1
 512 1421.001 l 1
 1280 1856.001 l 1
 1280 192.001 l 1
640 704.001 m 1
 1152 384.001 l 1
 1152 1638.001 l 1
 640 1344.001 l 1
 640 704.001 l 1
640 640.001 m 1
 128 640.001 l 1
 128 1408.001 l 1
 640 1408.001 l 1
 640 640.001 l 1
256 768.001 m 1
 512 768.001 l 1
 512 1280.001 l 1
 256 1280.001 l 1
 256 768.001 l 1
EndSplineSet
EndChar

StartChar: bss-volume-up
Encoding: 47 57400 47
Width: 2048
LayerCount: 2
Back
Fore
SplineSet
1651 1664 m 1
 1562.001 1562.001 l 1
 1655.334 1502.001 1729.834 1425.168 1785.501 1331.501 c 0
 1841.168 1237.834 1869.001 1135.334 1869.001 1024.001 c 0
 1869.001 912.668 1841.168 810.168 1785.501 716.501 c 0
 1729.834 622.834 1655.334 546.001 1562.001 486.001 c 1
 1651.001 384.001 l 1
 1761.001 455.334 1848.334 548.167 1913.001 662.5 c 0
 1977.668 776.833 2010.001 897.333 2010.001 1024 c 1
 2022.668 1155.333 1995.668 1278.333 1929.001 1393 c 0
 1862.334 1507.667 1769.667 1598 1651 1664 c 1
1690 1024 m 0
 1690 1104 1668.3301 1180.499 1624.9971 1253.499 c 0
 1581.6641 1326.499 1526.3311 1386.666 1458.9981 1433.999 c 1
 1369.9981 1330.999 l 1
 1428.6651 1298.332 1475.3321 1254.832 1509.9991 1200.499 c 0
 1544.6661 1146.166 1561.9991 1087.333 1561.9991 1024 c 0
 1561.9991 959.333 1546.3321 900 1514.9991 846 c 0
 1483.6661 792 1439.3331 749 1382.0001 717 c 1
 1472.0001 614 l 1
 1541.3331 658.667 1595.0001 717.167 1633.0001 789.5 c 0
 1671.0001 861.833 1690.0001 940 1690 1024 c 0
1318 1216 m 1
 1254 1101 l 1
 1268 1093.66699 1282.167 1082 1296.5 1066 c 0
 1310.833 1050 1318 1036 1318 1024 c 0
 1318 987.333 1296.667 961.666 1254 946.999 c 1
 1344 844.999 l 1
 1412 885.666 1446 945.333 1446 1024 c 1
 1432.667 1104.667 1390 1168.667 1318 1216 c 1
1152 179 m 1
 384 627 l 1
 384 1421 l 1
 1152 1869 l 1
 1152 179 l 1
511.998 704 m 1
 1023.998 384 l 1
 1023.998 1664 l 1
 511.998 1357 l 1
 511.998 704 l 1
511.998 640 m 1
 -0.00200000000001 640 l 1
 -0.00200000000001 1408 l 1
 511.998 1408 l 1
 511.998 640 l 1
127.998 768 m 1
 383.998 768 l 1
 383.998 1280 l 1
 127.998 1280 l 1
 127.998 768 l 1
EndSplineSet
EndChar

StartChar: bss-qrcode
Encoding: 48 57401 48
Width: 2048
LayerCount: 2
Back
Fore
SplineSet
1024 1408 m 1
 1152 1408 l 1
 1152 1280 l 1
 1024 1280 l 1
 1024 1408 l 1
896 1152 m 1
 1024 1152 l 1
 1024 1024 l 1
 896 1024 l 1
 896 1152 l 1
896 1664 m 1
 1024 1664 l 1
 1024 1408 l 1
 896 1408 l 1
 896 1664 l 1
1664 384 m 1
 1792 384 l 1
 1792 256 l 1
 1664 256 l 1
 1664 384 l 1
896 768 m 1
 1024 768 l 1
 1024 640 l 1
 896 640 l 1
 896 768 l 1
1536 128 m 1
 1664 128 l 1
 1664 0 l 1
 1536 0 l 1
 1536 128 l 1
1536 768 m 1
 1664 768 l 1
 1664 640 l 1
 1536 640 l 1
 1536 768 l 1
1408 640 m 1
 1536 640 l 1
 1536 256 l 1
 1408 256 l 1
 1408 640 l 1
512 1024 m 1
 768 1024 l 1
 768 896 l 1
 512 896 l 1
 512 1024 l 1
1792 256 m 1
 2048 256 l 1
 2048 0 l 1
 1792 0 l 1
 1792 256 l 1
1792 1071 m 1
 1792 672 l 1
 1920 672 l 1
 1920 384 l 1
 2048 384 l 1
 2048 1152 l 1
 1920 1152 l 1
 1920 1071 l 1
 1792 1071 l 1
1024 512 m 1
 1280 512 l 1
 1280 384 l 1
 1024 384 l 1
 1024 512 l 1
1265 256 m 1
 768 256 l 1
 768 384 l 1
 896 384 l 1
 896 512 l 1
 768 512 l 1
 768 768 l 1
 128 768 l 1
 128 1024 l 1
 0 1024 l 1
 0 768 l 1
 0 0 l 1
 768 0 l 1
 768 128 l 1
 1024 128 l 1
 1024 0 l 1
 1344 0 l 1
 1344 128 l 1
 1265 128 l 1
 1265 256 l 1
640 128 m 1
 128 128 l 1
 128 640 l 1
 640 640 l 1
 640 128 l 1
1280 943 m 1
 1280 1024 l 1
 1024 1024 l 1
 1024 896 l 1
 1152 896 l 1
 1152 768 l 1
 1280 768 l 1
 1280 896 l 1
 1280 943 l 1
256 911 m 1
 384 911 l 1
 384 1152 l 1
 512 1152 l 1
 512 1280 l 1
 768 1280 l 1
 768 1807 l 1
 1152 1807 l 1
 1152 1935 l 1
 1024 1935 l 1
 1024 2048 l 1
 768 2048 l 1
 0 2048 l 1
 0 1280 l 1
 256 1280 l 1
 256 911 l 1
128 1920 m 1
 640 1920 l 1
 640 1408 l 1
 128 1408 l 1
 128 1920 l 1
1536 1792 m 1
 1809 1792 l 1
 1809 1536 l 1
 1536 1536 l 1
 1536 1792 l 1
1280 2048 m 1
 1280 1664 l 1
 1152 1664 l 1
 1152 1536 l 1
 1280 1536 l 1
 1280 1280 l 1
 1408 1280 l 1
 1408 896 l 1
 1536 896 l 1
 1536 1024 l 1
 1664 1024 l 1
 1664 1152 l 1
 1536 1152 l 1
 1536 1280 l 1
 2048 1280 l 1
 2048 2048 l 1
 1280 2048 l 1
1920 1408 m 1
 1408 1408 l 1
 1408 1920 l 1
 1920 1920 l 1
 1920 1408 l 1
256 512 m 1
 529 512 l 1
 529 256 l 1
 256 256 l 1
 256 512 l 1
256 1792 m 1
 529 1792 l 1
 529 1536 l 1
 256 1536 l 1
 256 1792 l 1
EndSplineSet
EndChar

StartChar: bss-barcode
Encoding: 49 57408 49
Width: 2048
LayerCount: 2
Back
Fore
SplineSet
0 2048 m 1
 128 2048 l 1
 128 384 l 1
 0 384 l 1
 0 2048 l 1
256 2048 m 1
 448 2048 l 1
 448 384 l 1
 256 384 l 1
 256 2048 l 1
512 2048 m 1
 640 2048 l 1
 640 384 l 1
 512 384 l 1
 512 2048 l 1
832 2048 m 1
 1024 2048 l 1
 1024 384 l 1
 832 384 l 1
 832 2048 l 1
1216 2048 m 1
 1344 2048 l 1
 1344 384 l 1
 1216 384 l 1
 1216 2048 l 1
1408 2048 m 1
 1536 2048 l 1
 1536 384 l 1
 1408 384 l 1
 1408 2048 l 1
1664 2048 m 1
 2048 2048 l 1
 2048 384 l 1
 1664 384 l 1
 1664 2048 l 1
192 192 m 1
 512 192 l 1
 512 64 l 1
 192 64 l 1
 192 192 l 1
640 192 m 1
 768 192 l 1
 768 64 l 1
 640 64 l 1
 640 192 l 1
832 192 m 1
 960 192 l 1
 960 64 l 1
 832 64 l 1
 832 192 l 1
1024 192 m 1
 1280 192 l 1
 1280 64 l 1
 1024 64 l 1
 1024 192 l 1
1408 192 m 1
 1536 192 l 1
 1536 64 l 1
 1408 64 l 1
 1408 192 l 1
1664 192 m 1
 1792 192 l 1
 1792 64 l 1
 1664 64 l 1
 1664 192 l 1
EndSplineSet
EndChar

StartChar: bss-tag
Encoding: 50 57409 50
Width: 2048
LayerCount: 2
Back
Fore
SplineSet
832 1472 m 0
 832 1436.667 819.5 1406.5 794.5 1381.5 c 0
 769.5 1356.5 739.333 1344 704 1344 c 0
 668.667 1344 638.5 1356.5 613.5 1381.5 c 0
 588.5 1406.5 576 1436.667 576 1472 c 0
 576 1507.333 588.5 1537.5 613.5 1562.5 c 0
 638.5 1587.5 668.667 1600 704 1600 c 0
 739.333 1600 769.5 1587.5 794.5 1562.5 c 0
 819.5 1537.5 832 1507.333 832 1472 c 0
998 141 m 1
 218 1254 l 1
 384 1907 l 1
 1050 1830 l 1
 1830 717 l 1
 998 141 l 1
358 1280 m 1
 1037 307 l 1
 1651 742 l 1
 973 1715 l 1
 486 1766 l 1
 358 1280 l 1
EndSplineSet
EndChar

StartChar: bss-tags
Encoding: 51 57410 51
Width: 2048
LayerCount: 2
Back
Fore
SplineSet
640 1472 m 0
 640 1436.667 627.5 1406.5 602.5 1381.5 c 0
 577.5 1356.5 547.333 1344 512 1344 c 0
 476.667 1344 446.5 1356.5 421.5 1381.5 c 0
 396.5 1406.5 384 1436.667 384 1472 c 0
 384 1507.333 396.5 1537.5 421.5 1562.5 c 0
 446.5 1587.5 476.667 1600 512 1600 c 0
 547.333 1600 577.5 1587.5 602.5 1562.5 c 0
 627.5 1537.5 640 1507.333 640 1472 c 0
1254 1715 m 1
 1152 1651 l 1
 1818 691 l 1
 1216 269 l 1
 1280 166 l 1
 1997 666 l 1
 1254 1715 l 1
832 141 m 1
 51 1254 l 1
 218 1907 l 1
 883 1830 l 1
 1664 717 l 1
 832 141 l 1
192 1280 m 1
 870 307 l 1
 1485 742 l 1
 806 1715 l 1
 320 1766 l 1
 192 1280 l 1
EndSplineSet
EndChar

StartChar: bss-book
Encoding: 52 57411 52
Width: 2048
LayerCount: 2
Back
Fore
SplineSet
268 2048 m 2
 190.667 2048 126.667 2022.666 76 1971.999 c 0
 25.333 1921.332 0 1857.332 0 1779.999 c 2
 0 307.999 l 1
 0 295.999 l 2
 0 213.332 28.667 143.332 86 85.999 c 0
 143.333 28.666 213.333 -0.000999999999976 296 -0.000999999999976 c 2
 1688 -0.000999999999976 l 1
 1688 127.999 l 1
 296 127.999 l 2
 250.667 127.999 211.334 145.332 178.001 179.999 c 0
 144.668 214.666 128.001 257.333 128.001 308 c 0
 128.001 352.667 144.668 391.167 178.001 423.5 c 0
 211.334 455.833 250.667 472 296 472 c 2
 1688 472 l 1
 1704 472 l 1
 1704 2048 l 1
 1688 2048 l 1
 268 2048 l 2
384 1920 m 1
 844 1920 l 1
 844 896 l 1
 1128 1064 l 1
 1420 908 l 1
 1420 1920 l 1
 1576 1920 l 1
 1576 588 l 1
 296 588 l 2
 232.667 588 176.667 572 128 540 c 1
 128 1780 l 2
 128 1815.333 140.333 1846 165 1872 c 0
 189.667 1898 220 1912.667 256 1916 c 1
 256 600 l 1
 384 600 l 1
 384 1920 l 1
972 1920 m 1
 1292 1920 l 1
 1292 1128 l 1
 1128 1216 l 1
 972 1128 l 1
 972 1920 l 1
408 371.999 m 1
 408 243.999 l 1
 1688 243.999 l 1
 1688 371.999 l 1
 408 371.999 l 1
EndSplineSet
EndChar

StartChar: bss-bookmark
Encoding: 53 57412 53
Width: 2048
LayerCount: 2
Back
Fore
SplineSet
320 1984 m 1
 320 1920 l 1
 320 256 l 1
 320 112 l 1
 428 208 l 1
 960 680 l 1
 1492 208 l 1
 1600 112 l 1
 1600 256 l 1
 1600 1920 l 1
 1600 1984 l 1
 1536 1984 l 1
 384 1984 l 1
 320 1984 l 1
448 1856 m 1
 1472 1856 l 1
 1472 400 l 1
 1004 816 l 1
 960 852 l 1
 916 816 l 1
 448 400 l 1
 448 1856 l 1
EndSplineSet
EndChar

StartChar: bss-print
Encoding: 54 57413 54
Width: 2048
LayerCount: 2
Back
Fore
SplineSet
640 448 m 1
 1408 448 l 1
 1408 320 l 1
 640 320 l 1
 640 448 l 1
640 576 m 1
 640 704 l 1
 1408 704 l 1
 1408 576 l 1
 640 576 l 1
0 256 m 1
 256 256 l 1
 256 0 l 1
 1792 0 l 1
 1792 256 l 1
 2048 256 l 1
 2048 1408 l 1
 1920 1408 l 1
 1920 384 l 1
 1792 384 l 1
 1792 896 l 1
 1664 896 l 1
 1664 128 l 1
 384 128 l 1
 384 384 l 1
 128 384 l 1
 0 256 l 1
0 256 m 1
 0 1536 l 1
 256 1536 l 1
 256 2048 l 1
 1792 2048 l 1
 1792 1536 l 1
 1664 1536 l 1
 1664 1920 l 1
 384 1920 l 1
 384 1536 l 1
 2048 1536 l 1
 2048 1408 l 1
 128 1408 l 1
 128 384 l 1
 256 384 l 1
 256 1024 l 1
 1792 1024 l 1
 1792 896 l 1
 384 896 l 1
 384 384 l 1
 128 384 l 1
 0 256 l 1
EndSplineSet
EndChar

StartChar: bss-camera
Encoding: 55 57414 55
Width: 2048
LayerCount: 2
Back
Fore
SplineSet
1536 1408 m 1
 1792 1408 l 1
 1792 1280 l 1
 1536 1280 l 1
 1536 1408 l 1
1856 1651 m 2
 1522.999 1650.99804688 l 1
 1522.999 1663.99804688 l 2
 1522.999 1714.66504688 1503.832 1759.33204688 1465.499 1797.99904688 c 0
 1427.166 1836.66604688 1382.333 1855.99904688 1331 1855.99904688 c 2
 717 1855.99904688 l 2
 665.667 1855.99904688 620.834 1836.66604688 582.501 1797.99904688 c 0
 544.168 1759.33204688 525.001 1714.66504688 525.001 1663.99804688 c 2
 525.001 1650.99804688 l 1
 192.001 1650.99804688 l 2
 141.334 1650.99804688 96.667 1631.83104688 58 1593.49804688 c 0
 19.333 1555.16504688 -2.84217094304e-014 1510.33204688 -2.84217094304e-014 1458.99904688 c 2
 -2.84217094304e-014 383.99904688 l 2
 -2.84217094304e-014 333.33204688 19.333 288.66504688 58 249.99804688 c 0
 96.667 211.33104688 141.334 191.99804688 192.001 191.99804688 c 2
 1843.001 191.99804688 l 2
 1894.334 191.99804688 1939.167 211.33104688 1977.5 249.99804688 c 0
 2015.833 288.66504688 2035 333.33204688 2035 383.99904688 c 2
 2035 1458.99904688 l 1
 2041.66699 1509.66604688 2026.5 1554.33304688 1989.5 1593.00004688 c 0
 1952.5 1631.66704688 1908 1651.00004688 1856 1651 c 2
1920 383.998 m 0
 1920 365.331 1914 349.998 1902 337.998 c 0
 1890 325.998 1874.667 319.998 1856 319.998 c 2
 192 319.998 l 2
 177.333 319.998 163 326.16499 149 338.498 c 0
 135 350.83101 128 365.998 128 383.998 c 2
 128 1458.998 l 2
 128 1478.331 134 1493.831 146 1505.498 c 0
 158 1517.165 173.333 1522.998 192 1522.998 c 2
 653 1522.998 l 1
 653 1663.998 l 2
 653 1682.665 658.83301 1697.998 670.5 1709.998 c 0
 682.16699 1721.998 697.667 1727.998 717 1727.998 c 2
 1318 1727.998 l 2
 1336.667 1727.998 1352 1721.998 1364 1709.998 c 0
 1376 1697.998 1382 1682.665 1382 1663.998 c 2
 1382 1522.998 l 1
 1843 1522.998 l 2
 1863 1522.998 1880.833 1516.83101 1896.5 1504.498 c 0
 1912.167 1492.16499 1920 1476.998 1920 1458.998 c 2
 1920 383.998 l 0
1024 1472 m 0
 954.667 1472 888.5 1458.5 825.5 1431.5 c 0
 762.5 1404.5 708 1368 662 1322 c 0
 616 1276 579.5 1221.5 552.5 1158.5 c 0
 525.5 1095.5 512 1029.333 512 960 c 0
 512 890.667 525.5 824.5 552.5 761.5 c 0
 579.5 698.5 616 644 662 598 c 0
 708 552 762.5 515.5 825.5 488.5 c 0
 888.5 461.5 954.667 448 1024 448 c 0
 1093.333 448 1159.5 461.5 1222.5 488.5 c 0
 1285.5 515.5 1340 552 1386 598 c 0
 1432 644 1468.5 698.5 1495.5 761.5 c 0
 1522.5 824.5 1536 890.667 1536 960 c 0
 1536 1029.333 1522.5 1095.5 1495.5 1158.5 c 0
 1468.5 1221.5 1432 1276 1386 1322 c 0
 1340 1368 1285.5 1404.5 1222.5 1431.5 c 0
 1159.5 1458.5 1093.333 1472 1024 1472 c 0
1024 1344 m 0
 1130.667 1344 1221.334 1306.667 1296.001 1232 c 0
 1370.668 1157.333 1408.001 1066.666 1408.001 959.999 c 0
 1408.001 853.332 1370.668 762.665 1296.001 687.998 c 0
 1221.334 613.331 1130.667 575.998 1024 575.998 c 0
 917.333 575.998 826.666 613.331 751.999 687.998 c 0
 677.332 762.665 639.999 853.332 639.999 959.999 c 0
 639.999 1066.666 677.332 1157.333 751.999 1232 c 0
 826.666 1306.667 917.333 1344 1024 1344 c 0
EndSplineSet
EndChar

StartChar: bss-font
Encoding: 56 57415 56
Width: 2048
LayerCount: 2
Back
Fore
SplineSet
1306 704 m 1
 576.001 704 l 1
 448.001 410 l 2
 443.33401 395.333 437.167 377.833 429.5 357.5 c 2
 412 310.5 l 2
 408 299.5 404.5 287.667 401.5 275 c 0
 398.5 262.333 397 251.666 397 242.999 c 0
 397 216.999 409.667 191.332 435 165.999 c 0
 460.333 140.666 520 127.999 614 127.999 c 1
 614 76.999 l 1
 38 76.999 l 1
 38 127.999 l 1
 120.667 141.999 172 158.999 192 178.999 c 1
 244 217.666 295.333 307.333 346 448 c 1
 998 1984 l 1
 1050 1984 l 1
 1702 435 l 2
 1747.333 321.667 1794.333 240.667 1843 192 c 0
 1885.667 149.333 1945.334 128 2022.001 128 c 1
 2022.001 77 l 1
 1280.001 77 l 1
 1280.001 128 l 1
 1357.334 128 1408.667 140.667 1434 166 c 0
 1459.333 191.333 1472 217 1472 243 c 0
 1472 290.333 1455 354.333 1421 435 c 2
 1306 704 l 1
1267 806 m 1
 947 1562 l 1
 627 806 l 1
 1267 806 l 1
EndSplineSet
EndChar

StartChar: bss-bold
Encoding: 57 57416 57
Width: 2048
LayerCount: 2
Back
Fore
SplineSet
1481 936 m 1
 1609.667 909.333 1706.665 865.333 1771.998 804 c 0
 1860.665 719.333 1904.998 616 1904.998 494 c 0
 1904.998 401.333 1875.331 312.666 1815.998 227.999 c 0
 1755.331 141.332 1675.331 79.332 1575.998 41.999 c 0
 1470.665 2.666 1314.332 -17.001 1106.999 -17.001 c 2
 226.999 -17.001 l 1
 226.999 34.999 l 1
 296.999 34.999 l 2
 376.332 34.999 432.332 59.666 464.999 108.999 c 0
 486.332 142.999 496.999 211.332 496.999 313.999 c 2
 496.999 1517.999 l 2
 496.999 1633.332 483.666 1706.332 456.999 1736.999 c 0
 420.999 1776.999 367.666 1796.999 296.999 1796.999 c 2
 226.999 1796.999 l 1
 226.999 1847.999 l 1
 1031.999 1847.999 l 2
 1182.666 1847.999 1303.333 1836.999 1394 1814.999 c 0
 1531.333 1781.666 1636.333 1723.333 1709 1640 c 0
 1781.667 1556.667 1818 1460 1818 1350 c 0
 1818 1256.667 1789.333 1173.334 1732 1100.001 c 0
 1676 1027.334 1592.333 972.667 1481 936 c 1
759.998 1010 m 1
 795.998 1003.33301 834.996 998.667 876.996 996 c 0
 925.663 992.66699 973.33 991 1019.997 991 c 0
 1153.997 991 1254.664 1005.333 1321.997 1034 c 0
 1389.33 1062.667 1440.997 1107 1476.997 1167 c 0
 1512.997 1227 1530.997 1292.333 1530.997 1363 c 0
 1530.997 1471.667 1486.664 1564.667 1397.997 1642 c 0
 1310.664 1718.667 1180.997 1757 1008.997 1757 c 0
 917.664 1757 835.331 1747 761.998 1727 c 1
 761.998 1010 l 1
 759.998 1010 l 1
759.996 119.001 m 1
 868.663 94.334 973.663 82 1074.996 82 c 0
 1241.663 82 1367.996 119.667 1453.996 195 c 0
 1541.329 269 1584.996 361 1584.996 471 c 0
 1584.996 544.333 1565.329 614 1525.996 680 c 0
 1487.329 744.667 1423.329 797.334 1333.996 838.001 c 0
 1248.663 876.668 1138.663 896.001 1003.996 896.001 c 0
 988.663 896.001 939.996 895.001 857.996 893.001 c 0
 806.663 889.001 773.996 885.66799 759.996 883.001 c 1
 759.996 119.001 l 1
EndSplineSet
EndChar

StartChar: bss-italic
Encoding: 58 57417 58
Width: 2048
LayerCount: 2
Back
Fore
SplineSet
1203 99 m 2
 1188.0068 46.9961 l 1
 421.0068 46.9961 l 1
 440.0068 98.9961 l 1
 508.0068 100.9961 563.5068 110.3291 606.5068 126.9961 c 0
 649.5068 143.6631 683.3398 177.3301 708.0068 227.9971 c 0
 732.0068 276.6641 756.6738 346.6641 782.0068 437.9971 c 2
 931.0068 952.9971 l 1
 1100.0068 1538.9971 l 2
 1101.33981 1544.9971 1105.67282 1559.4971 1113.0058 1582.4971 c 0
 1120.33878 1605.4971 1125.5058 1623.1641 1128.5058 1635.4971 c 0
 1131.5058 1647.8301 1135.0058 1663.8301 1139.0058 1683.4971 c 0
 1143.0058 1703.1641 1144.67279 1721.1641 1144.0058 1737.4971 c 0
 1143.33881 1753.8301 1141.0058 1768.9971 1137.0058 1782.9971 c 0
 1132.33881 1798.3301 1124.1718 1811.1631 1112.5048 1821.4961 c 0
 1100.8378 1831.8291 1089.3378 1839.4961 1078.0048 1844.4961 c 0
 1066.6718 1849.4961 1051.1718 1853.32911 1031.5048 1855.9961 c 0
 1011.8378 1858.66309 996.6708 1860.16309 986.0038 1860.4961 c 0
 975.3368 1860.82911 960.0038 1860.9961 940.0038 1860.9961 c 2
 927.0038 1860.9961 l 2
 927.0038 1861.663092 928.83681 1868.9961 932.5038 1882.9961 c 0
 936.17079 1896.9961 939.67079 1906.6631 943.0038 1911.9961 c 1
 1664.0038 1911.9961 l 1
 1649.0038 1860.9961 l 1
 1625.0038 1861.663092 1602.6708 1859.83008 1582.0038 1855.49708 c 0
 1561.3368 1851.16408 1543.1698 1846.16407 1527.5028 1840.49708 c 0
 1511.8358 1834.83009 1496.6688 1825.83008 1482.0018 1813.49708 c 0
 1467.3348 1801.16408 1455.1678 1790.16408 1445.5008 1780.49708 c 0
 1435.8338 1770.83008 1425.8338 1756.33008 1415.5008 1736.99708 c 2
 1391.0008 1689.99708 l 2
 1385.0008 1677.99708 1378.0008 1659.83008 1370.0008 1635.49708 c 0
 1362.0008 1611.16408 1356.1678 1592.83108 1352.5008 1580.49808 c 0
 1348.8338 1568.16508 1343.33381 1548.33208 1336.0008 1520.99908 c 0
 1327.33381 1492.33208 1279.1668 1324.33208 1191.4998 1016.99908 c 2
 1017.9998 411.99908 l 2
 1015.33281 402.66607 1010.9998 388.49908 1004.9998 369.49908 c 2
 990.4998 322.99908 l 2
 986.83281 310.99908 982.83281 294.83208 978.4998 274.49908 c 0
 974.16679 254.16608 972.33378 238.33308 973.00078 227.00008 c 0
 973.66778 215.66708 975.33476 201.00008 978.00176 183.00008 c 0
 981.33477 171.66708 986.66778 161.50008 994.00076 152.50008 c 0
 1001.33374 143.50008 1011.00076 136.16708 1023.00076 130.50008 c 0
 1035.00076 124.83308 1045.66776 120.00008 1055.00076 116.00008 c 0
 1064.33376 112.00008 1077.66676 109.00008 1094.99976 107.00008 c 0
 1112.33276 105.00008 1124.66576 103.66707 1131.99876 103.00008 c 0
 1139.33176 102.33309 1152.33176 101.50008 1170.99876 100.50008 c 0
 1189.66576 99.50008 1200.33276 99.00008 1203 99 c 2
EndSplineSet
EndChar

StartChar: bss-text-height
Encoding: 59 57424 59
Width: 2048
LayerCount: 2
Back
Fore
SplineSet
232 2036 m 1
 0 1768 l 1
 168 1768 l 1
 168 256 l 1
 0 256 l 1
 232 0 l 1
 460 256 l 1
 296 256 l 1
 296 1768 l 1
 460 1768 l 1
 232 2036 l 1
640 1832 m 1
 628 1448.001 l 1
 680 1448.001 l 1
 680 1510.668 696 1565.335 728 1612.002 c 0
 736 1624.669 744.667 1636.002 754 1646.002 c 0
 763.333 1656.002 773.666 1664.502 784.999 1671.502 c 2
 814.999 1690.002 l 2
 823.66599 1695.33501 834.833 1699.502 848.5 1702.502 c 0
 862.167 1705.502 872.5 1708.16899 879.5 1710.502 c 0
 886.5 1712.83501 897.667 1714.33501 913 1715.002 c 0
 928.333 1715.66899 938.166 1716.002 942.499 1716.002 c 2
 973.499 1716.002 l 1
 999.999 1716.002 l 1
 1191.999 1716.002 l 1
 1191.999 488.002 l 2
 1191.999 405.335 1182.66599 345.335 1163.999 308.002 c 0
 1155.999 296.669 1134.999 285.669 1100.999 275.002 c 0
 1066.999 264.335 1034.999 256.668 1004.999 252.001 c 2
 959.999 244.001 l 1
 959.999 204.001 l 1
 1639.999 204.001 l 1
 1639.999 244.001 l 1
 1592.999 249.001 l 2
 1574.332 251.001 1547.499 256.501 1512.499 265.501 c 0
 1477.499 274.501 1455.999 284.668 1447.999 296.001 c 1
 1421.332 309.334 1407.999 369.334 1407.999 476.001 c 2
 1407.999 1704.001 l 1
 1639.999 1704.001 l 1
 1660.999 1704.001 l 1
 1686.499 1704.001 l 2
 1691.499 1704.001 1700.499 1703.667992 1713.499 1703.001 c 0
 1726.499 1702.334008 1736.499 1701.16702 1743.499 1699.50002 c 2
 1772.499 1692.50002 l 2
 1784.832 1689.50002 1794.832 1686.00002 1802.499 1682.00002 c 0
 1810.166 1678.00002 1819.333 1672.66701 1830 1666.00002 c 0
 1840.667 1659.33303 1849.5 1651.83302 1856.5 1643.50002 c 0
 1863.5 1635.16702 1870.667 1625.33402 1878 1614.00102 c 0
 1885.333 1602.66802 1891.333 1590.00102 1896 1576.00102 c 0
 1904.66699 1559.33402 1916.667 1512.66702 1932 1436.00002 c 1
 1984 1436.00002 l 1
 1972 1820.00002 l 1
 1972 1832.00002 l 1
 640 1832 l 1
EndSplineSet
EndChar

StartChar: bss-text-width
Encoding: 60 57425 60
Width: 2048
LayerCount: 2
Back
Fore
SplineSet
408 2048 m 1
 396 1664 l 1
 448 1664 l 1
 448 1733.333 465.333 1793.333 500 1844 c 0
 510.667 1860 522 1874 534 1886 c 0
 546 1898 559.5 1907.5 574.5 1914.5 c 2
 612 1931.5 l 2
 622 1935.83301 636.5 1938.83301 655.5 1940.5 c 0
 674.5 1942.16699 687.167 1943.33398 693.5 1944.00098 c 0
 699.833 1944.66798 713.333 1944.834964 734 1944.501957 c 0
 754.667 1944.16895 766 1944.001957 768 1944.001957 c 2
 960 1944.001957 l 1
 960 716.001957 l 2
 960 628.001957 952 568.001957 936 536.001957 c 0
 928 524.668957 906.667 513.668957 872 503.001957 c 0
 837.333 492.334957 804.666 484.667957 773.999 480.000957 c 2
 727.999 472.000957 l 1
 727.999 436.000957 l 1
 1419.999 436.000957 l 1
 1419.999 472.000957 l 1
 1372.999 477.000957 l 2
 1354.332 479.000957 1327.499 484.500957 1292.499 493.500957 c 0
 1257.499 502.500957 1235.999 512.667957 1227.999 524.000957 c 1
 1203.999 536.000957 1191.999 596.000957 1191.999 704.000957 c 2
 1191.999 1932.000957 l 1
 1395.999 1932.000957 l 1
 1416.999 1932.000957 l 1
 1442.499 1932.000957 l 2
 1447.499 1932.000957 1456.499 1931.667949 1469.499 1931.000957 c 0
 1482.499 1930.333965 1492.499 1929.166977 1499.499 1927.499977 c 2
 1528.499 1920.499977 l 2
 1540.832 1917.499977 1550.832 1913.999977 1558.499 1909.999977 c 0
 1566.166 1905.999977 1575.333 1900.666967 1586 1893.999977 c 0
 1596.667 1887.332987 1605.5 1879.832977 1612.5 1871.499977 c 0
 1619.5 1863.166977 1626.667 1853.333977 1634 1842.000977 c 0
 1641.333 1830.667977 1647.333 1818.000977 1652 1804.000977 c 0
 1660.66699 1787.333977 1672.667 1740.666977 1688 1663.999977 c 1
 1740 1663.999977 l 1
 1728 2047.999977 l 1
 408 2048 l 1
268 460 m 1
 0 232 l 1
 268 0 l 1
 268 172 l 1
 1780 164 l 1
 1780 0 l 1
 2036 232 l 1
 1780 460 l 1
 1780 288 l 1
 268 292 l 1
 268 460 l 1
EndSplineSet
EndChar

StartChar: bss-align-left
Encoding: 61 57426 61
Width: 2048
LayerCount: 2
Back
Fore
SplineSet
128 320 m 1
 1920 320 l 1
 1920 448 l 1
 128 448 l 1
 128 320 l 1
128 640 m 1
 1088 640 l 1
 1088 768 l 1
 128 768 l 1
 128 640 l 1
128 960 m 1
 1920 960 l 1
 1920 1088 l 1
 128 1088 l 1
 128 960 l 1
128 1280 m 1
 1088 1280 l 1
 1088 1408 l 1
 128 1408 l 1
 128 1280 l 1
128 1600 m 1
 1920 1600 l 1
 1920 1728 l 1
 128 1728 l 1
 128 1600 l 1
EndSplineSet
EndChar

StartChar: bss-align-center
Encoding: 62 57427 62
Width: 2048
LayerCount: 2
Back
Fore
SplineSet
128 320 m 1
 1920 320 l 1
 1920 448 l 1
 128 448 l 1
 128 320 l 1
384 640 m 1
 1664 640 l 1
 1664 768 l 1
 384 768 l 1
 384 640 l 1
128 960 m 1
 1920 960 l 1
 1920 1088 l 1
 128 1088 l 1
 128 960 l 1
384 1280 m 1
 1664 1280 l 1
 1664 1408 l 1
 384 1408 l 1
 384 1280 l 1
128 1600 m 1
 1920 1600 l 1
 1920 1728 l 1
 128 1728 l 1
 128 1600 l 1
EndSplineSet
EndChar

StartChar: bss-align-right
Encoding: 63 57428 63
Width: 2048
LayerCount: 2
Back
Fore
SplineSet
128 320 m 1
 1920 320 l 1
 1920 448 l 1
 128 448 l 1
 128 320 l 1
960 640 m 1
 1920 640 l 1
 1920 768 l 1
 960 768 l 1
 960 640 l 1
128 960 m 1
 1920 960 l 1
 1920 1088 l 1
 128 1088 l 1
 128 960 l 1
960 1280 m 1
 1920 1280 l 1
 1920 1408 l 1
 960 1408 l 1
 960 1280 l 1
128 1600 m 1
 1920 1600 l 1
 1920 1728 l 1
 128 1728 l 1
 128 1600 l 1
EndSplineSet
EndChar

StartChar: bss-align-justify
Encoding: 64 57429 64
Width: 2048
LayerCount: 2
Back
Fore
SplineSet
128 320 m 1
 1920 320 l 1
 1920 448 l 1
 128 448 l 1
 128 320 l 1
128 640 m 1
 1920 640 l 1
 1920 768 l 1
 128 768 l 1
 128 640 l 1
128 960 m 1
 1920 960 l 1
 1920 1088 l 1
 128 1088 l 1
 128 960 l 1
128 1280 m 1
 1920 1280 l 1
 1920 1408 l 1
 128 1408 l 1
 128 1280 l 1
128 1600 m 1
 1920 1600 l 1
 1920 1728 l 1
 128 1728 l 1
 128 1600 l 1
EndSplineSet
EndChar

StartChar: bss-list
Encoding: 65 57430 65
Width: 2048
LayerCount: 2
Back
Fore
SplineSet
128 320 m 1
 128 448 l 1
 512 448 l 1
 512 320 l 1
 128 320 l 1
768 320 m 1
 768 448 l 1
 1920 448 l 1
 1920 320 l 1
 768 320 l 1
128 640 m 1
 128 768 l 1
 512 768 l 1
 512 640 l 1
 128 640 l 1
768 640 m 1
 768 768 l 1
 1920 768 l 1
 1920 640 l 1
 768 640 l 1
128 960 m 1
 128 1088 l 1
 512 1088 l 1
 512 960 l 1
 128 960 l 1
768 960 m 1
 768 1088 l 1
 1920 1088 l 1
 1920 960 l 1
 768 960 l 1
128 1280 m 1
 128 1408 l 1
 512 1408 l 1
 512 1280 l 1
 128 1280 l 1
768 1280 m 1
 768 1408 l 1
 1920 1408 l 1
 1920 1280 l 1
 768 1280 l 1
128 1600 m 1
 128 1728 l 1
 512 1728 l 1
 512 1600 l 1
 128 1600 l 1
768 1600 m 1
 768 1728 l 1
 1920 1728 l 1
 1920 1600 l 1
 768 1600 l 1
EndSplineSet
EndChar

StartChar: bss-indent-left
Encoding: 66 57431 66
Width: 2048
LayerCount: 2
Back
Fore
SplineSet
0 960 m 1
 256 960 l 1
 256 832 l 1
 448 1024 l 1
 256 1216 l 1
 256 1088 l 1
 0 1088 l 1
 0 960 l 1
0 1024 m 1
 256 1024 l 1
 0 1024 l 1
576 192 m 1
 576 1856 l 1
 704 1856 l 1
 704 192 l 1
 576 192 l 1
896 1728 m 1
 896 1856 l 1
 2048 1856 l 1
 2048 1728 l 1
 896 1728 l 1
896 1344 m 1
 896 1472 l 1
 1536 1472 l 1
 1536 1344 l 1
 896 1344 l 1
896 960 m 1
 896 1088 l 1
 2048 1088 l 1
 2048 960 l 1
 896 960 l 1
896 576 m 1
 896 704 l 1
 1536 704 l 1
 1536 576 l 1
 896 576 l 1
896 192 m 1
 896 320 l 1
 2048 320 l 1
 2048 192 l 1
 896 192 l 1
EndSplineSet
EndChar

StartChar: bss-indent-right
Encoding: 67 57432 67
Width: 2048
LayerCount: 2
Back
Fore
SplineSet
2048 960 m 1
 1792 960 l 1
 1792 832 l 1
 1600 1024 l 1
 1792 1216 l 1
 1792 1088 l 1
 2048 1088 l 1
 2048 960 l 1
2048 1024 m 1
 1792 1024 l 1
 2048 1024 l 1
1472 192 m 1
 1472 1856 l 1
 1344 1856 l 1
 1344 192 l 1
 1472 192 l 1
1152 1728 m 1
 1152 1856 l 1
 0 1856 l 1
 0 1728 l 1
 1152 1728 l 1
1152 1344 m 1
 1152 1472 l 1
 512 1472 l 1
 512 1344 l 1
 1152 1344 l 1
1152 960 m 1
 1152 1088 l 1
 0 1088 l 1
 0 960 l 1
 1152 960 l 1
1152 576 m 1
 1152 704 l 1
 512 704 l 1
 512 576 l 1
 1152 576 l 1
1152 192 m 1
 1152 320 l 1
 0 320 l 1
 0 192 l 1
 1152 192 l 1
EndSplineSet
EndChar

StartChar: bss-facetime-video
Encoding: 68 57433 68
Width: 2048
LayerCount: 2
Back
Fore
SplineSet
344 500 m 2
 293.333 500 248.666 519.3311 209.999 557.998 c 0
 171.332 596.6649 151.999 641.332 151.999 691.999 c 2
 151.999 1355.999 l 2
 151.999 1406.666 171.332 1451.333 209.999 1490 c 0
 248.666 1528.667 293.333 1548 344 1548 c 2
 1576 1548 l 1
 1576 1116 l 1
 2048 1536 l 1
 2048 512 l 1
 1576 932 l 1
 1576 500 l 1
 344 500 l 2
344 627.998 m 2
 1448 627.998 l 1
 1448 1419.998 l 1
 344 1419.998 l 2
 325.333 1419.998 310 1413.998 298 1401.998 c 0
 286 1389.998 280 1374.665 280 1355.998 c 2
 280 691.998 l 2
 280 673.331 286 657.998 298 645.998 c 0
 310 633.998 325.333 627.998 344 627.998 c 2
1956 729.998 m 1
 1958 1317.998 l 1
 1628 1023.998 l 1
 1956 729.998 l 1
EndSplineSet
EndChar

StartChar: bss-picture
Encoding: 69 57440 69
Width: 2048
LayerCount: 2
Back
Fore
SplineSet
0 1728 m 1
 0 1664 l 1
 0 384 l 1
 0 320 l 1
 64 320 l 1
 1984 320 l 1
 2048 320 l 1
 2048 384 l 1
 2048 1664 l 1
 2048 1728 l 1
 1984 1728 l 1
 64 1728 l 1
 0 1728 l 1
128 1600 m 1
 1920 1600 l 1
 1920 740 l 1
 1560 1048 l 1
 1320 780 l 1
 652 1420 l 1
 128 952 l 1
 128 1600 l 1
1536 1512 m 0
 1490 1512 1450.5 1495.5 1417.5 1462.5 c 0
 1384.5 1429.5 1368 1390 1368 1344 c 0
 1368 1298 1384.5 1258.5 1417.5 1225.5 c 0
 1450.5 1192.5 1490 1176 1536 1176 c 0
 1582 1176 1621.5 1192.5 1654.5 1225.5 c 0
 1687.5 1258.5 1704 1298 1704 1344 c 0
 1704 1390 1687.5 1429.5 1654.5 1462.5 c 0
 1621.5 1495.5 1582 1512 1536 1512 c 0
652 1240 m 1
 1320 600 l 1
 1576 872 l 1
 1920 572 l 1
 1920 448 l 1
 128 448 l 1
 128 780 l 1
 652 1240 l 1
EndSplineSet
EndChar

StartChar: bss-map-marker
Encoding: 70 57442 70
Width: 2048
LayerCount: 2
Back
Fore
SplineSet
1704 1247 m 0
 1704 1369.667 1673.6709 1483.168 1613.0039 1587.501 c 0
 1552.3369 1691.834 1469.6699 1774.334 1365.0029 1835.001 c 0
 1260.3359 1895.668 1146.6689 1926.001 1024.0019 1926.001 c 0
 901.3349 1926.001 787.6679 1895.668 683.0009 1835.001 c 0
 578.3339 1774.334 495.6669 1691.834 434.9999 1587.501 c 0
 374.3329 1483.168 343.9999 1369.668 343.9999 1247.001 c 0
 343.9999 1098.334 390.3329 962.667 482.9999 840 c 1
 479.9999 838 l 1
 1023.9999 122 l 1
 1570.9999 842 l 1
 1567.9999 844 l 1
 1658.6669 966 1703.9999 1100.333 1704 1247 c 0
1400 829.001 m 1
 1024 333 l 1
 667 804 l 1
 669 805 l 1
 585 918 l 2
 509.667 1016.667 472 1126.334 472 1247.001 c 0
 472 1347.001 496.667 1439.334 546 1524.001 c 0
 595.333 1608.668 662.333 1675.501 747 1724.501 c 0
 831.667 1773.501 924 1798.001 1024 1798.001 c 0
 1124 1798.001 1216.333 1773.501 1301 1724.501 c 0
 1385.667 1675.501 1452.667 1608.668 1502 1524.001 c 0
 1551.333 1439.334 1576 1347.001 1576 1247.001 c 0
 1576 1127.001 1539.333 1017.668 1466 919.001 c 2
 1400 829.001 l 1
1280 1280 m 0
 1280 1209.333 1255 1149 1205 1099 c 0
 1155 1049 1094.667 1024 1024 1024 c 0
 953.333 1024 893 1049 843 1099 c 0
 793 1149 768 1209.333 768 1280 c 0
 768 1350.667 793 1411 843 1461 c 0
 893 1511 953.333 1536 1024 1536 c 0
 1094.667 1536 1155 1511 1205 1461 c 0
 1255 1411 1280 1350.667 1280 1280 c 0
EndSplineSet
EndChar

StartChar: bss-adjust
Encoding: 71 57443 71
Width: 2048
LayerCount: 2
Back
Fore
SplineSet
1024 8 m 0
 886.667 8 755.334 35 630.001 89 c 0
 504.668 143 396.668 215.333 306.001 306 c 0
 215.334 396.667 143.001 504.667 89.001 630 c 0
 35.001 755.333 8.001 886.666 8.001 1023.999 c 0
 8.001 1161.999 35.001 1293.666 89.001 1418.999 c 0
 143.001 1544.332 215.334 1652.332 306.001 1742.999 c 0
 396.668 1833.666 504.668 1905.833 630.001 1959.5 c 0
 755.334 2013.167 886.667 2040 1024 2040 c 0
 1162 2040 1291.333 2014.667 1412 1964 c 1
 1428 1964 l 1
 1428 1956 l 1
 1610 1876.667 1757.5 1752.667 1870.5 1584 c 0
 1983.5 1415.333 2040 1228.666 2040 1023.999 c 0
 2040 893.999 2016.167 770.166 1968.5 652.499 c 0
 1920.833 534.832 1854 429.332 1768 335.999 c 1
 1768 331.999 l 1
 1764 331.999 l 1
 1670 230.666 1559 151.333 1431 94 c 0
 1303 36.667 1167.333 8 1024 8 c 0
960 140 m 1
 960 1908 l 1
 846.667 1900 739.167 1871.167 637.5 1821.5 c 0
 535.833 1771.833 448.333 1708 375 1630 c 0
 301.667 1552 243.5 1460.167 200.5 1354.5 c 0
 157.5 1248.833 136 1138.666 136 1023.999 c 0
 136 909.332 157.5 799.332 200.5 693.999 c 0
 243.5 588.666 301.667 496.999 375 418.999 c 0
 448.333 340.999 535.833 276.999 637.5 226.999 c 0
 739.167 176.999 846.667 147.999 960 139.999 c 1
 960 140 l 1
1088 140.001 m 0
 1162.667 145.33401 1233.334 158.668 1300.001 180.001 c 1
 1300.001 1868.001 l 1
 1237.334 1888.001 1166.667 1901.334 1088 1908.001 c 1
 1088 140.001 l 0
1428 236.002 m 0
 1506 276.669 1576.667 327.335 1640 388.002 c 1
 1640 1660.002 l 1
 1576.667 1721.335 1506 1772.002 1428 1812.002 c 1
 1428 236.002 l 0
1768 544.001 m 1
 1864 691.334 1912 851.334 1912 1024.001 c 0
 1912 1196.668 1864 1356.668 1768 1504.001 c 1
 1768 544.001 l 1
EndSplineSet
EndChar

StartChar: bss-tint
Encoding: 72 57444 72
Width: 2048
LayerCount: 2
Back
Fore
SplineSet
1075 1920 m 2
 1024.002 1984 l 1
 973.002 1920 l 2
 963.002 1910 936.835 1878.667 894.502 1826 c 0
 852.169 1773.333 798.002 1701.166 732.002 1609.499 c 0
 666.002 1517.832 602.669 1423.665 542.002 1326.998 c 0
 481.335 1230.331 429.168 1130.331 385.501 1026.998 c 0
 341.834 923.665 320.001 837.332 320.001 767.999 c 0
 320.001 673.999 338.834 583.499 376.501 496.499 c 0
 414.168 409.499 464.501 334.499 527.501 271.499 c 0
 590.501 208.499 665.501 158.166 752.501 120.499 c 0
 839.501 82.832 930.001 63.999 1024.001 63.999 c 0
 1118.001 63.999 1208.501 82.832 1295.501 120.499 c 0
 1382.501 158.166 1457.501 208.499 1520.501 271.499 c 0
 1583.501 334.499 1633.834 409.499 1671.501 496.499 c 0
 1709.168 583.499 1728.001 673.999 1728.001 767.999 c 0
 1728.001 837.332 1706.168 923.665 1662.501 1026.998 c 0
 1618.834 1130.331 1566.667 1230.331 1506 1326.998 c 0
 1445.333 1423.665 1382 1517.832 1316 1609.499 c 0
 1250 1701.166 1195.833 1773.333 1153.5 1826 c 0
 1111.167 1878.667 1085 1910 1075 1920 c 2
1024 192 m 0
 945.333 192 870.498 207.167 799.498 237.5 c 0
 728.498 267.833 667.331 308.666 615.998 359.999 c 0
 564.665 411.332 523.832 472.499 493.499 543.499 c 0
 463.166 614.499 447.999 689.332 447.999 767.999 c 0
 447.999 824.666 468.166 898.666 508.499 989.999 c 0
 548.832 1081.332 601.499 1177.332 666.499 1277.999 c 0
 731.499 1378.666 792.832 1468.833 850.499 1548.5 c 2
 1023.999 1779 l 1
 1197.499 1548.5 l 2
 1255.166 1468.833 1316.499 1378.666 1381.499 1277.999 c 0
 1446.499 1177.332 1499.166 1081.332 1539.499 989.999 c 0
 1579.832 898.666 1599.999 824.666 1599.999 767.999 c 0
 1599.999 689.332 1584.832 614.499 1554.499 543.499 c 0
 1524.166 472.499 1483.333 411.332 1432 359.999 c 0
 1380.667 308.666 1319.5 267.833 1248.5 237.5 c 0
 1177.5 207.167 1102.667 192 1024 192 c 0
678 1101 m 1
 592.667 947.667 550.001 836.666 550.001 767.999 c 0
 550.001 683.332 570.501 604.832 611.501 532.499 c 0
 652.501 460.166 709.501 402.333 782.501 359 c 0
 855.501 315.667 936.001 294 1024.001 294 c 0
 1117.334 294 1202.667 319.667 1280 371 c 1
 1165.333 401 1062.333 451.333 971 522 c 0
 879.667 592.667 808 678.5 756 779.5 c 0
 704 880.5 678 987.667 678 1101 c 1
EndSplineSet
EndChar

StartChar: bss-edit
Encoding: 73 57445 73
Width: 2048
LayerCount: 2
Back
Fore
SplineSet
140 1393 m 1
 900 1393 l 1
 1028 1521 l 1
 12 1521 l 1
 12 -15 l 1
 1580 -15 l 1
 1580 1036 l 1
 1452 908 l 1
 1452 113 l 1
 140 113 l 1
 140 1393 l 1
687 625 m 1
 1053 659 l 1
 2048 1655 l 1
 1686 2017 l 1
 690 1021 l 1
 687 625 l 1
815 966 m 1
 1686 1837 l 1
 1866 1656 l 1
 993 782 l 1
 804 759 l 1
 815 966 l 1
EndSplineSet
EndChar

StartChar: bss-share
Encoding: 74 57446 74
Width: 2048
LayerCount: 2
Back
Fore
SplineSet
1384 1920 m 1
 1256 1792 l 1
 1700 1792 l 1
 552 640 l 1
 644 552 l 1
 1792 1700 l 1
 1792 1244 l 1
 1920 1372 l 1
 1920 1920 l 1
 1384 1920 l 1
0 1536 m 1
 0 0 l 1
 1568 0 l 1
 1568 1312 l 1
 1440 1184 l 1
 1440 128 l 1
 128 128 l 1
 128 1408 l 1
 1132 1408 l 1
 1260 1536 l 1
 0 1536 l 1
EndSplineSet
EndChar

StartChar: bss-check
Encoding: 75 57447 75
Width: 2048
LayerCount: 2
Back
Fore
SplineSet
867 628 m 1
 1889 1830 l 1
 1791 1914 l 1
 860 814 l 1
 557 1117 l 1
 467 1027 l 1
 867 628 l 1
128 1408 m 1
 1187 1408 l 1
 1295 1536 l 1
 0 1536 l 1
 0 0 l 1
 1568 0 l 1
 1568 1272 l 1
 1440 1121 l 1
 1440 128 l 1
 128 128 l 1
 128 1408 l 1
EndSplineSet
EndChar

StartChar: bss-move
Encoding: 76 57448 76
Width: 2048
LayerCount: 2
Back
Fore
SplineSet
1024 128 m 1
 768 384 l 1
 768 548 l 1
 960 360 l 1
 960 960 l 1
 356 960 l 1
 548 768 l 1
 384 768 l 1
 128 1024 l 1
 384 1280 l 1
 548 1280 l 1
 360 1088 l 1
 960 1088 l 1
 960 1692 l 1
 768 1500 l 1
 768 1664 l 1
 1024 1920 l 1
 1280 1664 l 1
 1280 1500 l 1
 1088 1688 l 1
 1088 1088 l 1
 1688 1088 l 1
 1500 1280 l 1
 1664 1280 l 1
 1920 1024 l 1
 1664 768 l 1
 1500 768 l 1
 1692 960 l 1
 1088 960 l 1
 1088 356 l 1
 1280 548 l 1
 1280 384 l 1
 1024 128 l 1
EndSplineSet
EndChar

StartChar: bss-step-backward
Encoding: 77 57449 77
Width: 2048
LayerCount: 2
Back
Fore
SplineSet
384 128 m 1
 384 1920 l 1
 512 1920 l 1
 512 1068 l 1
 1728 1920 l 1
 1728 1472 l 1
 1728 1300 l 1
 1728 748 l 1
 1728 576 l 1
 1728 128 l 1
 512 980 l 1
 512 128 l 1
 384 128 l 1
1600 384 m 1
 1600 1664 l 1
 704 1024 l 1
 1600 384 l 1
EndSplineSet
EndChar

StartChar: bss-fast-backward
Encoding: 78 57456 78
Width: 2048
LayerCount: 2
Back
Fore
SplineSet
64 128 m 1
 64 1920 l 1
 192 1920 l 1
 192 1068 l 1
 1408 1920 l 1
 1408 1472 l 1
 2048 1920 l 1
 2048 128 l 1
 1408 576 l 1
 1408 128 l 1
 192 980 l 1
 192 128 l 1
 64 128 l 1
1280 384 m 1
 1280 1664 l 1
 384 1024 l 1
 1280 384 l 1
1920 384 m 1
 1920 1664 l 1
 1408 1300 l 1
 1408 748 l 1
 1920 384 l 1
EndSplineSet
EndChar

StartChar: bss-backward
Encoding: 79 57457 79
Width: 2048
LayerCount: 2
Back
Fore
SplineSet
2048 1920 m 1
 1408 1472 l 1
 1408 1300 l 1
 1920 1664 l 1
 1920 384 l 1
 1408 748 l 1
 1408 576 l 1
 2048 128 l 1
 2048 1920 l 1
1408 128 m 1
 1280 384 l 1
 1280 1664 l 1
 1408 1920 l 1
 1408 128 l 1
128 1024 m 1
 1408 1920 l 1
 1280 1664 l 1
 384 1024 l 1
 128 1024 l 1
 1408 128 l 1
 1280 384 l 1
 384 1024 l 1
 128 1024 l 1
EndSplineSet
EndChar

StartChar: bss-play
Encoding: 80 57458 80
Width: 2048
LayerCount: 2
Back
Fore
SplineSet
640 384 m 1
 1503 1025 l 1
 640 1665 l 1
 640 384 l 1
512 129 m 1
 512 1919 l 1
 1716 1024 l 1
 512 129 l 1
EndSplineSet
EndChar

StartChar: bss-pause
Encoding: 81 57459 81
Width: 2048
LayerCount: 2
Back
Fore
SplineSet
1413 128 m 1
 1541 128 l 1
 1541 1920 l 1
 1413 1920 l 1
 1413 128 l 1
517 128 m 1
 645 128 l 1
 645 1920 l 1
 517 1920 l 1
 517 128 l 1
EndSplineSet
EndChar

StartChar: bss-stop
Encoding: 82 57460 82
Width: 2048
LayerCount: 2
Back
Fore
SplineSet
128 128 m 1
 128 1920 l 1
 1920 1920 l 1
 1920 128 l 1
 128 128 l 1
256 256 m 1
 1792 256 l 1
 1792 1792 l 1
 256 1792 l 1
 256 256 l 1
EndSplineSet
EndChar

StartChar: bss-forward
Encoding: 83 57461 83
Width: 2048
LayerCount: 2
Back
Fore
SplineSet
128 148 m 1
 768 596 l 1
 768 768 l 1
 256 404 l 1
 256 1684 l 1
 768 1320 l 1
 768 1492 l 1
 128 1940 l 1
 128 148 l 1
768 1940 m 1
 896 1684 l 1
 896 404 l 1
 768 148 l 1
 768 1940 l 1
2048 1044 m 1
 768 148 l 1
 896 404 l 1
 1792 1044 l 1
 2048 1044 l 1
 768 1940 l 1
 896 1684 l 1
 1792 1044 l 1
 2048 1044 l 1
EndSplineSet
EndChar

StartChar: bss-fast-forward
Encoding: 84 57462 84
Width: 2048
LayerCount: 2
Back
Fore
SplineSet
2048 128 m 1
 2048 1920 l 1
 1920 1920 l 1
 1920 1068 l 1
 704 1920 l 1
 704 1472 l 1
 64 1920 l 1
 64 128 l 1
 704 576 l 1
 704 128 l 1
 1920 980 l 1
 1920 128 l 1
 2048 128 l 1
832 384 m 1
 832 1664 l 1
 1728 1024 l 1
 832 384 l 1
192 384 m 1
 192 1664 l 1
 704 1300 l 1
 704 748 l 1
 192 384 l 1
EndSplineSet
EndChar

StartChar: bss-step-forward
Encoding: 85 57463 85
Width: 2048
LayerCount: 2
Back
Fore
SplineSet
1728 1920 m 1
 1728 128 l 1
 1600 128 l 1
 1600 980 l 1
 384 128 l 1
 384 576 l 1
 384 748 l 1
 384 1300 l 1
 384 1472 l 1
 384 1920 l 1
 1600 1068 l 1
 1600 1920 l 1
 1728 1920 l 1
512 1664 m 1
 512 384 l 1
 1408 1024 l 1
 512 1664 l 1
EndSplineSet
EndChar

StartChar: bss-eject
Encoding: 86 57464 86
Width: 2048
LayerCount: 2
Back
Fore
SplineSet
1024 1792 m 1
 972 1728 l 1
 140 640 l 1
 64 536 l 1
 192 536 l 1
 1856 536 l 1
 1984 536 l 1
 1908 640 l 1
 1076 1728 l 1
 1024 1792 l 1
1024 1580 m 1
 1724 664 l 1
 324 664 l 1
 1024 1580 l 1
64 280 m 1
 64 152 l 1
 1984 152 l 1
 1984 280 l 1
 64 280 l 1
EndSplineSet
EndChar

StartChar: bss-chevron-left
Encoding: 87 57465 87
Width: 2048
LayerCount: 2
Back
Fore
SplineSet
1664 0 m 1
 1664 192 l 1
 640 1024 l 1
 1664 1856 l 1
 1664 2048 l 1
 448 1024 l 1
 1664 0 l 1
EndSplineSet
EndChar

StartChar: bss-chevron-right
Encoding: 88 57472 88
Width: 2048
LayerCount: 2
Back
Fore
SplineSet
384 2048 m 1
 384 1856 l 1
 1408 1024 l 1
 384 192 l 1
 384 0 l 1
 1600 1024 l 1
 384 2048 l 1
EndSplineSet
EndChar

StartChar: bss-plus-sign
Encoding: 89 57473 89
Width: 2048
Flags: H
LayerCount: 2
Back
Fore
SplineSet
963 405 m 5
 963 981 l 5
 387 981 l 5
 387 1109 l 5
 963 1109 l 5
 963 1685 l 5
 1091 1685 l 5
 1091 1109 l 5
 1667 1109 l 5
 1667 981 l 5
 1091 981 l 5
 1091 405 l 5
 963 405 l 5
1987 1045 m 4
 1987 1175 1961.66503906 1299.32910156 1910.99804688 1417.99609375 c 4
 1860.33105469 1536.66308594 1792.1640625 1638.83007812 1706.49707031 1724.49707031 c 4
 1620.83007812 1810.1640625 1518.66308594 1878.33105469 1399.99609375 1928.99804688 c 4
 1281.32910156 1979.66503906 1156.99609375 2004.99804688 1026.99609375 2004.99804688 c 4
 939.663085938 2004.99804688 854.330078125 1993.49804688 770.997070312 1970.49804688 c 4
 687.6640625 1947.49804688 610.497070312 1915.33105469 539.497070312 1873.99804688 c 4
 468.497070312 1832.66503906 403.1640625 1782.49804688 343.497070312 1723.49804688 c 4
 283.830078125 1664.49804688 232.830078125 1599.83105469 190.497070312 1529.49804688 c 4
 148.1640625 1459.16503906 115.331054688 1382.49804688 91.998046875 1299.49804688 c 4
 68.6650390625 1216.49804688 56.998046875 1131.66503906 56.998046875 1044.99804688 c 4
 56.998046875 957.665039062 68.498046875 872.665039062 91.498046875 789.998046875 c 4
 114.498046875 707.331054688 146.665039062 630.831054688 187.998046875 560.498046875 c 4
 229.331054688 490.165039062 279.831054688 425.498046875 339.498046875 366.498046875 c 4
 399.165039062 307.498046875 464.498046875 257.331054688 535.498046875 215.998046875 c 4
 606.498046875 174.665039062 683.998046875 142.498046875 767.998046875 119.498046875 c 4
 851.998046875 96.498046875 938.331054688 84.998046875 1026.99804688 84.998046875 c 4
 1156.99804688 84.998046875 1281.33105469 110.331054688 1399.99804688 160.998046875 c 4
 1518.66503906 211.665039062 1620.83203125 279.83203125 1706.49902344 365.499023438 c 4
 1792.16601562 451.166015625 1860.33300781 553.333007812 1911 672 c 4
 1961.66699219 790.666992188 1987 915 1987 1045 c 4
EndSplineSet
EndChar

StartChar: bss-minus-sign
Encoding: 90 57474 90
Width: 2048
Flags: H
LayerCount: 2
Back
Fore
SplineSet
441 981 m 5
 441 1109 l 5
 1593 1109 l 5
 1593 981 l 5
 441 981 l 5
1977 1045 m 4
 1977 1175 1951.66503906 1299.32910156 1900.99804688 1417.99609375 c 4
 1850.33105469 1536.66308594 1782.1640625 1638.83007812 1696.49707031 1724.49707031 c 4
 1610.83007812 1810.1640625 1508.66308594 1878.33105469 1389.99609375 1928.99804688 c 4
 1271.32910156 1979.66503906 1146.99609375 2004.99804688 1016.99609375 2004.99804688 c 4
 929.663085938 2004.99804688 844.330078125 1993.49804688 760.997070312 1970.49804688 c 4
 677.6640625 1947.49804688 600.497070312 1915.33105469 529.497070312 1873.99804688 c 4
 458.497070312 1832.66503906 393.1640625 1782.49804688 333.497070312 1723.49804688 c 4
 273.830078125 1664.49804688 222.830078125 1599.83105469 180.497070312 1529.49804688 c 4
 138.1640625 1459.16503906 105.331054688 1382.49804688 81.998046875 1299.49804688 c 4
 58.6650390625 1216.49804688 46.998046875 1131.66503906 46.998046875 1044.99804688 c 4
 46.998046875 957.665039062 58.498046875 872.665039062 81.498046875 789.998046875 c 4
 104.498046875 707.331054688 136.665039062 630.831054688 177.998046875 560.498046875 c 4
 219.331054688 490.165039062 269.831054688 425.498046875 329.498046875 366.498046875 c 4
 389.165039062 307.498046875 454.498046875 257.331054688 525.498046875 215.998046875 c 4
 596.498046875 174.665039062 673.998046875 142.498046875 757.998046875 119.498046875 c 4
 841.998046875 96.498046875 928.331054688 84.998046875 1016.99804688 84.998046875 c 4
 1146.99804688 84.998046875 1271.33105469 110.331054688 1389.99804688 160.998046875 c 4
 1508.66503906 211.665039062 1610.83203125 279.83203125 1696.49902344 365.499023438 c 4
 1782.16601562 451.166015625 1850.33300781 553.333007812 1901 672 c 4
 1951.66699219 790.666992188 1977 915 1977 1045 c 4
EndSplineSet
EndChar

StartChar: bss-remove-sign
Encoding: 91 57475 91
Width: 2048
Flags: H
LayerCount: 2
Back
Fore
SplineSet
711 637 m 5
 619 729 l 5
 935 1045 l 5
 619 1361 l 5
 711 1453 l 5
 1027 1137 l 5
 1343 1453 l 5
 1435 1361 l 5
 1119 1045 l 5
 1435 729 l 5
 1343 637 l 5
 1027 953 l 5
 711 637 l 5
1987 1045 m 4
 1987 1175 1961.66503906 1299.32910156 1910.99804688 1417.99609375 c 4
 1860.33105469 1536.66308594 1792.1640625 1638.83007812 1706.49707031 1724.49707031 c 4
 1620.83007812 1810.1640625 1518.66308594 1878.33105469 1399.99609375 1928.99804688 c 4
 1281.32910156 1979.66503906 1156.99609375 2004.99804688 1026.99609375 2004.99804688 c 4
 939.663085938 2004.99804688 854.330078125 1993.49804688 770.997070312 1970.49804688 c 4
 687.6640625 1947.49804688 610.497070312 1915.33105469 539.497070312 1873.99804688 c 4
 468.497070312 1832.66503906 403.1640625 1782.49804688 343.497070312 1723.49804688 c 4
 283.830078125 1664.49804688 232.830078125 1599.83105469 190.497070312 1529.49804688 c 4
 148.1640625 1459.16503906 115.331054688 1382.49804688 91.998046875 1299.49804688 c 4
 68.6650390625 1216.49804688 56.998046875 1131.66503906 56.998046875 1044.99804688 c 4
 56.998046875 957.665039062 68.498046875 872.665039062 91.498046875 789.998046875 c 4
 114.498046875 707.331054688 146.665039062 630.831054688 187.998046875 560.498046875 c 4
 229.331054688 490.165039062 279.831054688 425.498046875 339.498046875 366.498046875 c 4
 399.165039062 307.498046875 464.498046875 257.331054688 535.498046875 215.998046875 c 4
 606.498046875 174.665039062 683.998046875 142.498046875 767.998046875 119.498046875 c 4
 851.998046875 96.498046875 938.331054688 84.998046875 1026.99804688 84.998046875 c 4
 1156.99804688 84.998046875 1281.33105469 110.331054688 1399.99804688 160.998046875 c 4
 1518.66503906 211.665039062 1620.83203125 279.83203125 1706.49902344 365.499023438 c 4
 1792.16601562 451.166015625 1860.33300781 553.333007812 1911 672 c 4
 1961.66699219 790.666992188 1987 915 1987 1045 c 4
EndSplineSet
EndChar

StartChar: bss-ok-sign
Encoding: 92 57476 92
Width: 2048
LayerCount: 2
Back
Fore
SplineSet
828 544 m 1
 784 600 l 1
 464 984 l 1
 560 1064 l 1
 836 732 l 1
 1492 1388 l 1
 1580 1300 l 1
 876 596 l 1
 828 544 l 1
1984 1024 m 0
 1984 1154 1958.667 1278.329 1908 1396.996 c 0
 1857.333 1515.663 1789.166 1617.83 1703.499 1703.497 c 0
 1617.832 1789.164 1515.665 1857.331 1396.998 1907.998 c 0
 1278.331 1958.665 1153.998 1983.998 1023.998 1983.998 c 0
 937.331 1983.998 852.498 1972.498 769.498 1949.498 c 0
 686.498 1926.498 609.998 1894.331 539.998 1852.998 c 0
 469.998 1811.665 405.665 1761.498 346.998 1702.498 c 0
 288.331 1643.498 238.498 1578.831 197.498 1508.498 c 0
 156.498 1438.165 124.498 1361.665 101.498 1278.998 c 0
 78.498 1196.331 66.998 1111.331 66.998 1023.998 c 0
 66.998 936.665 78.498 851.665 101.498 768.998 c 0
 124.498 686.331 156.498 609.831 197.498 539.498 c 0
 238.498 469.165 288.331 404.498 346.998 345.498 c 0
 405.665 286.498 469.998 236.331 539.998 194.998 c 0
 609.998 153.665 686.498 121.498 769.498 98.498 c 0
 852.498 75.498 937.331 63.998 1023.998 63.998 c 0
 1153.998 63.998 1278.331 89.331 1396.998 139.998 c 0
 1515.665 190.665 1617.832 258.832 1703.499 344.499 c 0
 1789.166 430.166 1857.333 532.333 1908 651 c 0
 1958.667 769.667 1984 894 1984 1024 c 0
EndSplineSet
EndChar

StartChar: bss-question-sign
Encoding: 93 57477 93
Width: 2048
Flags: H
LayerCount: 2
Back
Fore
SplineSet
1037 341 m 5
 1037 469 l 5
 1165 469 l 5
 1165 341 l 5
 1037 341 l 5
1037 597 m 5
 1037.00292969 812.999023438 l 5
 1037.00292969 916.999023438 l 5
 1037.00292969 940.999023438 l 5
 1126.3359375 940.999023438 1204.00292969 974.499023438 1270.00292969 1041.49902344 c 4
 1336.00292969 1108.49902344 1369.00292969 1186.99902344 1369.00292969 1276.99902344 c 4
 1369.00292969 1366.33203125 1338.00292969 1441.99902344 1276.00292969 1503.99902344 c 4
 1214.00292969 1565.99902344 1138.3359375 1596.99902344 1049.00292969 1596.99902344 c 4
 967.002929688 1596.99902344 896.502929688 1571.16601562 837.502929688 1519.49902344 c 4
 778.502929688 1467.83203125 742.3359375 1402.99902344 729.002929688 1324.99902344 c 5
 601.002929688 1324.99902344 l 5
 613.669921875 1439.66601562 662.669921875 1534.99902344 748.002929688 1610.99902344 c 4
 833.3359375 1686.99902344 933.668945312 1724.99902344 1049.00195312 1724.99902344 c 4
 1128.33496094 1724.99902344 1202.66796875 1703.33203125 1272.00097656 1659.99902344 c 4
 1341.33398438 1616.66601562 1396.16699219 1559.33300781 1436.5 1488 c 4
 1476.83300781 1416.66699219 1497 1341 1497 1261 c 4
 1497 1161.66699219 1466 1072.5 1404 993.5 c 4
 1342 914.5 1262.33300781 861 1165 833 c 5
 1165 597 l 5
 1037 597 l 5
1997 1045 m 4
 1997 1175 1971.66699219 1299.33105469 1921 1417.99804688 c 4
 1870.33300781 1536.66503906 1802.16601562 1638.83203125 1716.49902344 1724.49902344 c 4
 1630.83203125 1810.16601562 1528.66503906 1878.33300781 1409.99804688 1929 c 4
 1291.33105469 1979.66699219 1166.99804688 2005 1036.99804688 2005 c 4
 949.665039062 2005 864.33203125 1993.5 780.999023438 1970.5 c 4
 697.666015625 1947.5 620.499023438 1915.33300781 549.499023438 1874 c 4
 478.499023438 1832.66699219 413.166015625 1782.5 353.499023438 1723.5 c 4
 293.83203125 1664.5 242.83203125 1599.83300781 200.499023438 1529.5 c 4
 158.166015625 1459.16699219 125.333007812 1382.5 102 1299.5 c 4
 78.6669921875 1216.5 67 1131.66699219 67 1045 c 4
 67 914.333007812 92.5 789.5 143.5 670.5 c 4
 194.5 551.5 263 448.666992188 349 362 c 4
 435 275.333007812 538 206.166015625 658 154.499023438 c 4
 778 102.83203125 904.333007812 76.9990234375 1037 76.9990234375 c 4
 1124.33300781 76.9990234375 1209.33300781 88.4990234375 1292 111.499023438 c 4
 1374.66699219 134.499023438 1451.16699219 166.666015625 1521.5 207.999023438 c 4
 1591.83300781 249.33203125 1656.5 299.83203125 1715.5 359.499023438 c 4
 1774.5 419.166015625 1824.66699219 484.333007812 1866 555 c 4
 1907.33300781 625.666992188 1939.5 703 1962.5 787 c 4
 1985.5 871 1997 957 1997 1045 c 4
EndSplineSet
EndChar

StartChar: bss-info-sign
Encoding: 94 57478 94
Width: 2048
Flags: H
LayerCount: 2
Back
Fore
SplineSet
963 469 m 5
 963 1301 l 5
 1091 1301 l 5
 1091 469 l 5
 963 469 l 5
963 1429 m 5
 963 1621 l 5
 1091 1621 l 5
 1091 1429 l 5
 963 1429 l 5
1987 1045 m 4
 1987 1175 1961.66699219 1299.33105469 1911 1417.99804688 c 4
 1860.33300781 1536.66503906 1792.16601562 1638.83203125 1706.49902344 1724.49902344 c 4
 1620.83203125 1810.16601562 1518.66503906 1878.33300781 1399.99804688 1929 c 4
 1281.33105469 1979.66699219 1156.99804688 2005 1026.99804688 2005 c 4
 939.665039062 2005 854.33203125 1993.5 770.999023438 1970.5 c 4
 687.666015625 1947.5 610.499023438 1915.33300781 539.499023438 1874 c 4
 468.499023438 1832.66699219 403.166015625 1782.5 343.499023438 1723.5 c 4
 283.83203125 1664.5 232.83203125 1599.83300781 190.499023438 1529.5 c 4
 148.166015625 1459.16699219 115.333007812 1382.5 92 1299.5 c 4
 68.6669921875 1216.5 57 1131.66699219 57 1045 c 4
 57 914.333007812 82.5 789.5 133.5 670.5 c 4
 184.5 551.5 253 448.666992188 339 362 c 4
 425 275.333007812 528 206.166015625 648 154.499023438 c 4
 768 102.83203125 894.333007812 76.9990234375 1027 76.9990234375 c 4
 1114.33300781 76.9990234375 1199.33300781 88.4990234375 1282 111.499023438 c 4
 1364.66699219 134.499023438 1441.16699219 166.666015625 1511.5 207.999023438 c 4
 1581.83300781 249.33203125 1646.5 299.83203125 1705.5 359.499023438 c 4
 1764.5 419.166015625 1814.66699219 484.333007812 1856 555 c 4
 1897.33300781 625.666992188 1929.5 703 1952.5 787 c 4
 1975.5 871 1987 957 1987 1045 c 4
EndSplineSet
EndChar

StartChar: bss-screenshot
Encoding: 95 57479 95
Width: 2048
LayerCount: 2
Back
Fore
SplineSet
960 0 m 1
 960 172 l 1
 856 179.33301 757.167 205 663.5 249 c 0
 569.833 293 488.333 349.667 419 419 c 0
 349.667 488.333 293 569.833 249 663.5 c 0
 205 757.167 179.333 856 172 960 c 1
 0 960 l 1
 0 1088 l 1
 172 1088 l 1
 179.33301 1192 205 1290.833 249 1384.5 c 0
 293 1478.167 349.667 1559.667 419 1629 c 0
 488.333 1698.333 569.833 1755 663.5 1799 c 0
 757.167 1843 856 1868.667 960 1876 c 1
 960 2048 l 1
 1088 2048 l 1
 1088 1876 l 1
 1192 1868.66699 1290.833 1843 1384.5 1799 c 0
 1478.167 1755 1559.667 1698.333 1629 1629 c 0
 1698.333 1559.667 1755 1478.167 1799 1384.5 c 0
 1843 1290.833 1868.667 1192 1876 1088 c 1
 2048 1088 l 1
 2048 960 l 1
 1876 960 l 1
 1868.66699 856 1843 757.167 1799 663.5 c 0
 1755 569.833 1698.333 488.333 1629 419 c 0
 1559.667 349.667 1478.167 293 1384.5 249 c 0
 1290.833 205 1192 179.333 1088 172 c 1
 1088 0 l 1
 960 0 l 1
948 292 m 1
 959.999 292.00195312 l 1
 959.999 512.00195312 l 1
 1087.999 512.00195312 l 1
 1087.999 292.00195312 l 1
 1204.666 302.00195312 1312.166 337.50195312 1410.499 398.50195312 c 0
 1508.832 459.50195312 1588.499 539.16895312 1649.499 637.50195312 c 0
 1710.499 735.83495312 1745.999 843.33495312 1755.999 960.00195312 c 1
 1535.999 960.00195312 l 1
 1535.999 1088.00195312 l 1
 1755.999 1088.00195312 l 1
 1740.666 1265.33495312 1669.833 1417.16795312 1543.5 1543.50095312 c 0
 1417.167 1669.83395312 1265.334 1740.66695312 1088.001 1755.99995312 c 1
 1088.001 1535.99995312 l 1
 960.001 1535.99995312 l 1
 960.001 1755.99995312 l 1
 843.334 1745.99995312 735.834 1710.49995312 637.501 1649.49995312 c 0
 539.168 1588.49995312 459.501 1508.83295312 398.501 1410.49995312 c 0
 337.501 1312.16695312 302.001 1204.66695312 292.001 1087.99995312 c 1
 512.001 1087.99995312 l 1
 512.001 959.99995312 l 1
 292.001 959.99995312 l 1
 302.001 844.66695312 336.834 738.16695312 396.501 640.49995312 c 0
 456.168 542.83295312 534.168 463.33295312 630.501 401.99995312 c 0
 726.834 340.66695312 832.667 303.99995312 948 292 c 1
1024 640.002 m 0
 914.667 640.002 821.334 677.502 744.001 752.502 c 0
 666.668 827.502 628.001 918.002 628.001 1024.002 c 0
 628.001 1130.002 666.668 1220.502 744.001 1295.502 c 0
 821.334 1370.502 914.667 1408.002 1024 1408.002 c 0
 1133.333 1408.002 1226.666 1370.502 1303.999 1295.502 c 0
 1381.332 1220.502 1419.999 1130.002 1419.999 1024.002 c 0
 1419.999 918.002 1381.332 827.502 1303.999 752.502 c 0
 1226.666 677.502 1133.333 640.002 1024 640.002 c 0
1024 768.002 m 0
 1088 768.002 1146.667 794.669 1200 848.002 c 0
 1253.333 901.335 1280 960.002 1280 1024.002 c 0
 1280 1088.002 1253.333 1146.669 1200 1200.002 c 0
 1146.667 1253.335 1088 1280.002 1024 1280.002 c 0
 960 1280.002 901.333 1253.335 848 1200.002 c 0
 794.667 1146.669 768 1088.002 768 1024.002 c 0
 768 960.002 794.667 901.335 848 848.002 c 0
 901.333 794.669 960 768.002 1024 768.002 c 0
EndSplineSet
EndChar

StartChar: bss-remove-circle
Encoding: 96 57480 96
Width: 2048
Flags: H
LayerCount: 2
Back
Fore
SplineSet
1017 85 m 4
 887 85 762.666992188 110.333007812 644 161 c 4
 525.333007812 211.666992188 423.166015625 279.833984375 337.499023438 365.500976562 c 4
 251.83203125 451.16796875 183.665039062 553.334960938 132.998046875 672.001953125 c 4
 82.3310546875 790.668945312 56.998046875 915.001953125 56.998046875 1045.00195312 c 4
 56.998046875 1175.00195312 82.3310546875 1299.33496094 132.998046875 1418.00195312 c 4
 183.665039062 1536.66894531 251.83203125 1638.8359375 337.499023438 1724.50292969 c 4
 423.166015625 1810.16992188 525.333007812 1878.33691406 644 1929.00390625 c 4
 762.666992188 1979.67089844 887 2005.00390625 1017 2005.00390625 c 4
 1147 2005.00390625 1271.33300781 1979.67089844 1390 1929.00390625 c 4
 1508.66699219 1878.33691406 1610.83398438 1810.16992188 1696.50097656 1724.50292969 c 4
 1782.16796875 1638.8359375 1850.33496094 1536.66894531 1901.00195312 1418.00195312 c 4
 1951.66894531 1299.33496094 1977.00195312 1175.00195312 1977.00195312 1045.00195312 c 4
 1977.00195312 915.001953125 1951.66894531 790.668945312 1901.00195312 672.001953125 c 4
 1850.33496094 553.334960938 1782.16796875 451.16796875 1696.50097656 365.500976562 c 4
 1610.83398438 279.833984375 1508.66699219 211.666992188 1390 161 c 4
 1271.33300781 110.333007812 1147 85 1017 85 c 4
1017 222 m 4
 1128.33300781 222 1234.83300781 243.833007812 1336.5 287.5 c 4
 1438.16699219 331.166992188 1525.66699219 389.666992188 1599 463 c 4
 1672.33300781 536.333007812 1730.83300781 623.833007812 1774.5 725.5 c 4
 1818.16699219 827.166992188 1840 933.666992188 1840 1045 c 4
 1840 1134.33300781 1826.16699219 1220.83300781 1798.5 1304.5 c 4
 1770.83300781 1388.16699219 1731.5 1463.66699219 1680.5 1531 c 4
 1629.5 1598.33300781 1570.33300781 1657.33300781 1503 1708 c 4
 1435.66699219 1758.66699219 1360.16699219 1797.83398438 1276.5 1825.50097656 c 4
 1192.83300781 1853.16796875 1106.33300781 1867.00097656 1017 1867.00097656 c 4
 927.666992188 1867.00097656 841.166992188 1853.16796875 757.5 1825.50097656 c 4
 673.833007812 1797.83398438 598.333007812 1758.66699219 531 1708 c 4
 463.666992188 1657.33300781 404.5 1598.33300781 353.5 1531 c 4
 302.5 1463.66699219 263.166992188 1388.16699219 235.5 1304.5 c 4
 207.833007812 1220.83300781 194 1134.33300781 194 1045 c 4
 194 933.666992188 215.833007812 827.166992188 259.5 725.5 c 4
 303.166992188 623.833007812 361.666992188 536.333007812 435 463 c 4
 508.333007812 389.666992188 595.833007812 331.166992188 697.5 287.5 c 4
 799.166992188 243.833007812 905.666992188 222 1017 222 c 4
701 637 m 5
 609 729 l 5
 925 1045 l 5
 609 1361 l 5
 701 1453 l 5
 1017 1137 l 5
 1333 1453 l 5
 1425 1361 l 5
 1109 1045 l 5
 1425 729 l 5
 1333 637 l 5
 1017 953 l 5
 701 637 l 5
EndSplineSet
EndChar

StartChar: bss-ok-circle
Encoding: 97 57481 97
Width: 2048
Flags: H
LayerCount: 2
Back
Fore
SplineSet
1027 85 m 4
 897 85 772.666992188 110.333007812 654 161 c 4
 535.333007812 211.666992188 433.166015625 279.833984375 347.499023438 365.500976562 c 4
 261.83203125 451.16796875 193.665039062 553.334960938 142.998046875 672.001953125 c 4
 92.3310546875 790.668945312 66.998046875 915.001953125 66.998046875 1045.00195312 c 4
 66.998046875 1175.00195312 92.3310546875 1299.33496094 142.998046875 1418.00195312 c 4
 193.665039062 1536.66894531 261.83203125 1638.8359375 347.499023438 1724.50292969 c 4
 433.166015625 1810.16992188 535.333007812 1878.33691406 654 1929.00390625 c 4
 772.666992188 1979.67089844 897 2005.00390625 1027 2005.00390625 c 4
 1157 2005.00390625 1281.33300781 1979.67089844 1400 1929.00390625 c 4
 1518.66699219 1878.33691406 1620.83398438 1810.16992188 1706.50097656 1724.50292969 c 4
 1792.16796875 1638.8359375 1860.33496094 1536.66894531 1911.00195312 1418.00195312 c 4
 1961.66894531 1299.33496094 1987.00195312 1175.00195312 1987.00195312 1045.00195312 c 4
 1987.00195312 915.001953125 1961.66894531 790.668945312 1911.00195312 672.001953125 c 4
 1860.33496094 553.334960938 1792.16796875 451.16796875 1706.50097656 365.500976562 c 4
 1620.83398438 279.833984375 1518.66699219 211.666992188 1400 161 c 4
 1281.33300781 110.333007812 1157 85 1027 85 c 4
1027 222 m 4
 1138.33300781 222 1244.83300781 243.833007812 1346.5 287.5 c 4
 1448.16699219 331.166992188 1535.66699219 389.666992188 1609 463 c 4
 1682.33300781 536.333007812 1740.83300781 623.833007812 1784.5 725.5 c 4
 1828.16699219 827.166992188 1850 933.666992188 1850 1045 c 4
 1850 1134.33300781 1836.16699219 1220.83300781 1808.5 1304.5 c 4
 1780.83300781 1388.16699219 1741.5 1463.66699219 1690.5 1531 c 4
 1639.5 1598.33300781 1580.33300781 1657.33300781 1513 1708 c 4
 1445.66699219 1758.66699219 1370.16699219 1797.83398438 1286.5 1825.50097656 c 4
 1202.83300781 1853.16796875 1116.33300781 1867.00097656 1027 1867.00097656 c 4
 937.666992188 1867.00097656 851.166992188 1853.16796875 767.5 1825.50097656 c 4
 683.833007812 1797.83398438 608.333007812 1758.66699219 541 1708 c 4
 473.666992188 1657.33300781 414.5 1598.33300781 363.5 1531 c 4
 312.5 1463.66699219 273.166992188 1388.16699219 245.5 1304.5 c 4
 217.833007812 1220.83300781 204 1134.33300781 204 1045 c 4
 204 933.666992188 225.833007812 827.166992188 269.5 725.5 c 4
 313.166992188 623.833007812 371.666992188 536.333007812 445 463 c 4
 518.333007812 389.666992188 605.833007812 331.166992188 707.5 287.5 c 4
 809.166992188 243.833007812 915.666992188 222 1027 222 c 4
831 565 m 5
 787 621 l 5
 467 1005 l 5
 563 1085 l 5
 839 753 l 5
 1495 1409 l 5
 1583 1321 l 5
 879 617 l 5
 831 565 l 5
EndSplineSet
EndChar

StartChar: bss-ban-circle
Encoding: 98 57488 98
Width: 2048
LayerCount: 2
Back
Fore
SplineSet
1024 128 m 0
 902.667 128 786.667 151.667 676 199 c 0
 565.333 246.333 470 310 390 390 c 0
 310 470 246.333 565.333 199 676 c 0
 151.667 786.667 128 902.667 128 1024 c 0
 128 1133.333 147.167 1237.833 185.5 1337.5 c 0
 223.833 1437.167 278 1527.334 348 1608.001 c 0
 378 1642.668 408.667 1673.335 440 1700.002 c 0
 520.667 1770.002 610.834 1824.169 710.501 1862.502 c 0
 810.168 1900.835 914.668 1920.002 1024.001 1920.002 c 0
 1145.334 1920.002 1261.334 1896.335 1372.001 1849.002 c 0
 1482.668 1801.669 1578.001 1738.002 1658.001 1658.002 c 0
 1738.001 1578.002 1801.668 1482.669 1849.001 1372.002 c 0
 1896.334 1261.335 1920.001 1145.335 1920.001 1024.002 c 0
 1920.001 914.669 1900.834 810.169 1862.501 710.502 c 0
 1824.168 610.835 1770.001 520.668 1700.001 440.001 c 0
 1664.668 401.334 1634.001 370.667 1608.001 348 c 0
 1527.334 278 1437.167 223.833 1337.5 185.5 c 0
 1237.833 147.167 1133.333 128 1024 128 c 0
1024 256 m 0
 1212.667 256 1377.999 316.001 1519.999 436.001 c 1
 435.999 1520.001 l 1
 315.999 1378.001 255.999 1212.668 255.999 1024.001 c 0
 255.999 884.668 290.332 756.168 358.999 638.501 c 0
 427.666 520.834 520.833 427.667 638.5 359 c 0
 756.167 290.333 884.667 256 1024 256 c 0
1612 528.001 m 1
 1732 670.001 1792.001 835.333 1792.001 1024 c 0
 1792.001 1163.333 1757.668 1291.833 1689.001 1409.5 c 0
 1620.334 1527.167 1527.167 1620.334 1409.5 1689.001 c 0
 1291.833 1757.668 1163.333 1792.001 1024 1792.001 c 0
 835.333 1792.001 670 1732.001 528 1612.001 c 1
 1612 528.001 l 1
EndSplineSet
EndChar

StartChar: bss-arrow-left
Encoding: 99 57489 99
Width: 2048
LayerCount: 2
Back
Fore
SplineSet
64 1024 m 1
 576 512 l 1
 768 512 l 1
 320 960 l 1
 1984 960 l 1
 1984 1088 l 1
 320 1088 l 1
 768 1536 l 1
 576 1536 l 1
 64 1024 l 1
EndSplineSet
EndChar

StartChar: bss-arrow-right
Encoding: 100 57490 100
Width: 2048
LayerCount: 2
Back
Fore
SplineSet
1984 1024 m 1
 1472 512 l 1
 1280 512 l 1
 1728 960 l 1
 64 960 l 1
 64 1088 l 1
 1728 1088 l 1
 1280 1536 l 1
 1472 1536 l 1
 1984 1024 l 1
EndSplineSet
EndChar

StartChar: bss-arrow-up
Encoding: 101 57491 101
Width: 2048
LayerCount: 2
Back
Fore
SplineSet
960 1920 m 1
 448 1408 l 1
 448 1216 l 1
 896 1664 l 1
 896 0 l 1
 1024 0 l 1
 1024 1664 l 1
 1472 1216 l 1
 1472 1408 l 1
 960 1920 l 1
EndSplineSet
EndChar

StartChar: bss-arrow-down
Encoding: 102 57492 102
Width: 2048
LayerCount: 2
Back
Fore
SplineSet
960 0 m 1
 448 512 l 1
 448 704 l 1
 896 256 l 1
 896 1920 l 1
 1024 1920 l 1
 1024 256 l 1
 1472 704 l 1
 1472 512 l 1
 960 0 l 1
EndSplineSet
EndChar

StartChar: bss-share-alt
Encoding: 103 57493 103
Width: 2048
LayerCount: 2
Back
Fore
SplineSet
1485 1677 m 1
 1305.999 1676.99902344 l 1
 1714.999 1266.99902344 l 1
 1670.332 1271.66601344 1624.332 1275.16601344 1576.999 1277.49902344 c 0
 1529.666 1279.83203344 1471.833 1280.16504344 1403.5 1278.49804644 c 0
 1335.167 1276.83104944 1267.834 1271.99804644 1201.501 1263.99804644 c 0
 1135.168 1255.99804644 1063.501 1242.66504644 986.501 1223.99804644 c 0
 909.501 1205.33104644 836.168 1181.99804644 766.501 1153.99804644 c 0
 696.834 1125.99804644 626.501 1089.33104644 555.501 1043.99804644 c 0
 484.501 998.665046438 420.001 947.165046438 362.001 889.498046438 c 0
 304.001 831.831046438 250.001 761.998046438 200.001 679.998046438 c 0
 150.001 597.998046438 109.001 507.998046438 77.001 409.998046438 c 1
 205.001 370.998046438 l 1
 235.668 463.665046438 275.001 547.998046438 323.001 623.998046438 c 0
 371.001 699.998046438 422.668 764.331046438 478.001 816.998046438 c 0
 533.334 869.665046438 595.167 915.998046438 663.5 955.998046438 c 0
 731.833 995.998046438 798.666 1027.83104644 863.999 1051.49804644 c 0
 929.332 1075.16504644 998.832 1094.33204644 1072.499 1108.99904644 c 0
 1146.166 1123.66604644 1213.333 1133.49904644 1274 1138.49904644 c 0
 1334.667 1143.49904644 1397.167 1145.66603644 1461.5 1144.99904644 c 0
 1525.833 1144.33205644 1578.5 1142.33205644 1619.5 1138.99904644 c 0
 1660.5 1135.66603644 1701 1131.33302644 1741 1126.00004644 c 1
 1728 1126.00004644 l 1
 1306 704.000046438 l 1
 1485 704.000046438 l 1
 1971 1190.00004644 l 1
 1485 1677 l 1
EndSplineSet
EndChar

StartChar: bss-resize-full
Encoding: 104 57494 104
Width: 2048
LayerCount: 2
Back
Fore
SplineSet
2075 2048 m 1
 2075 1499 l 1
 1947 1371 l 1
 1947 1829 l 1
 1226 1108 l 1
 1133 1197 l 1
 1856 1920 l 1
 1400 1920 l 1
 1523 2048 l 1
 2075 2048 l 1
0 0 m 1
 0 549 l 1
 128 677 l 1
 128 219 l 1
 850 940 l 1
 942 851 l 1
 219 128 l 1
 675 128 l 1
 552 0 l 1
 0 0 l 1
EndSplineSet
EndChar

StartChar: bss-resize-small
Encoding: 105 57495 105
Width: 2048
LayerCount: 2
Back
Fore
SplineSet
1108 1108 m 1
 1108 1656 l 1
 1236 1784 l 1
 1236 1328 l 1
 1956 2048 l 1
 2048 1960 l 1
 1328 1236 l 1
 1784 1236 l 1
 1660 1108 l 1
 1108 1108 l 1
940 940 m 1
 940 392 l 1
 812 264 l 1
 812 720 l 1
 92 0 l 1
 0 88 l 1
 720 812 l 1
 264 812 l 1
 388 940 l 1
 940 940 l 1
EndSplineSet
EndChar

StartChar: bss-exclamation-sign
Encoding: 106 57601 106
Width: 2048
Flags: H
LayerCount: 2
Back
Fore
SplineSet
963 1621 m 5
 963 789 l 5
 1091 789 l 5
 1091 1621 l 5
 963 1621 l 5
963 661 m 5
 963 469 l 5
 1091 469 l 5
 1091 661 l 5
 963 661 l 5
1987 1045 m 4
 1987 915 1961.66699219 790.168945312 1911 670.501953125 c 4
 1860.33300781 550.834960938 1792.16601562 447.501953125 1706.49902344 360.501953125 c 4
 1620.83203125 273.501953125 1518.66503906 204.001953125 1399.99804688 152.001953125 c 4
 1281.33105469 100.001953125 1156.99804688 74.001953125 1026.99804688 74.001953125 c 4
 896.331054688 74.001953125 771.331054688 99.501953125 651.998046875 150.501953125 c 4
 532.665039062 201.501953125 429.498046875 270.001953125 342.498046875 356.001953125 c 4
 255.498046875 442.001953125 186.165039062 545.168945312 134.498046875 665.501953125 c 4
 82.8310546875 785.834960938 56.998046875 912.334960938 56.998046875 1045.00195312 c 4
 56.998046875 1132.33496094 68.498046875 1217.33496094 91.498046875 1300.00195312 c 4
 114.498046875 1382.66894531 146.665039062 1459.16894531 187.998046875 1529.50195312 c 4
 229.331054688 1599.83496094 279.831054688 1664.50195312 339.498046875 1723.50195312 c 4
 399.165039062 1782.50195312 464.498046875 1832.66894531 535.498046875 1874.00195312 c 4
 606.498046875 1915.33496094 683.998046875 1947.50195312 767.998046875 1970.50195312 c 4
 851.998046875 1993.50195312 938.331054688 2005.00195312 1026.99804688 2005.00195312 c 4
 1156.99804688 2005.00195312 1281.33105469 1979.66894531 1399.99804688 1929.00195312 c 4
 1518.66503906 1878.33496094 1620.83203125 1810.16796875 1706.49902344 1724.50097656 c 4
 1792.16601562 1638.83398438 1860.33300781 1536.66699219 1911 1418 c 4
 1961.66699219 1299.33300781 1987 1175 1987 1045 c 4
EndSplineSet
EndChar

StartChar: bss-gift
Encoding: 107 57602 107
Width: 2048
LayerCount: 2
Back
Fore
SplineSet
552 1996 m 0
 495.333 1996 448.494 1986.83398 411.494 1968.501 c 0
 374.494 1950.16802 349.327 1924.668 335.994 1892.001 c 0
 319.994 1843.334 329.994 1792.501 365.994 1739.501 c 0
 401.994 1686.501 458.661 1640.001 535.994 1600.001 c 1
 -0.00599999999997 1600.001 l 1
 -0.00599999999997 1472.001 l 1
 -0.00599999999997 1088.001 l 1
 255.994 1088.001 l 1
 255.994 0.000999999999976 l 1
 959.994 0.000999999999976 l 1
 1087.994 0.000999999999976 l 1
 1791.994 0.000999999999976 l 1
 1791.994 1088.001 l 1
 2047.994 1088.001 l 1
 2047.994 1472.001 l 1
 2047.994 1600.001 l 1
 1387.994 1600.001 l 1
 1452.661 1624.668 1501.994 1654.001 1535.994 1688.001 c 0
 1559.327 1711.334 1575.827 1735.334 1585.494 1760.001 c 0
 1595.161 1784.668 1599.328 1804.001 1597.995 1818.001 c 0
 1596.662 1832.001 1593.32898 1844.668 1587.99598 1856.001 c 0
 1568.66298 1901.334 1525.32998 1929.167 1457.99698 1939.5 c 0
 1390.66398 1949.833 1315.33098 1939.333008 1231.99798 1908 c 0
 1159.99798 1878.667 1103.99798 1844 1063.99798 1804 c 0
 1059.99798 1800 1055.33099 1794.83301 1049.99798 1788.5 c 0
 1044.66497 1782.16699 1041.33196 1778 1039.99896 1776 c 1
 986.66596 1854.667 901.33296 1914.667 783.99996 1956 c 0
 705.33296 1982.667 627.99996 1996 552 1996 c 0
551.994 1868 m 0
 606.661 1868 666.66 1854.668 731.993 1828.001 c 0
 770.66 1816.001 805.66 1801.668 836.993 1785.001 c 0
 868.326 1768.334 892.326 1752.167 908.993 1736.5 c 0
 925.66 1720.833 938.327 1706.666 946.994 1693.999 c 0
 955.661 1681.332 959.994 1671.332 959.994 1663.999 c 0
 959.994 1659.33201 957.32701 1654.999 951.994 1650.999 c 0
 946.66099 1646.999 936.994 1643.499 922.994 1640.499 c 0
 908.994 1637.499 891.994 1635.999 871.994 1635.999 c 0
 809.327 1635.999 745.327 1649.332 679.994 1675.999 c 0
 648.661 1685.999 619.661 1697.499 592.994 1710.499 c 0
 566.327 1723.499 544.66 1736.499 527.993 1749.499 c 0
 511.326 1762.499 497.493 1775.332 486.493 1787.999 c 0
 475.493 1800.666 468.326 1811.833 464.993 1821.5 c 0
 461.66 1831.167 461.32698 1838.667 463.993977 1844 c 0
 463.993977 1860 493.326977 1868 551.994 1868 c 0
1407.99 1804 m 2
 1459.992 1804 l 1
 1459.992 1798.66699 1454.82501 1789.667 1444.492 1777 c 0
 1434.15899 1764.333 1416.492 1749.166 1391.492 1731.499 c 0
 1366.492 1713.832 1338.659 1699.332 1307.992 1687.999 c 0
 1261.325 1671.999 1218.658 1663.999 1179.991 1663.999 c 0
 1171.991 1663.999 1163.658 1664.999 1154.991 1666.999 c 0
 1146.324 1668.999 1139.657 1670.999 1134.99 1672.999 c 2
 1127.99 1675.999 l 2
 1127.99 1679.999 1130.65699 1686.166 1135.99 1694.499 c 0
 1141.32301 1702.832 1149.156 1712.332 1159.489 1722.999 c 0
 1169.822 1733.666 1184.489 1744.333 1203.489 1755 c 0
 1222.489 1765.667 1243.989 1774 1267.989 1780 c 0
 1330.656 1796 1377.323 1804 1407.99 1804 c 2
127.995 1472 m 1
 959.995 1472 l 1
 959.995 1216 l 1
 127.995 1216 l 1
 127.995 1472 l 1
1088 1472 m 1
 1920 1472 l 1
 1920 1216 l 1
 1088 1216 l 1
 1088 1472 l 1
383.995 1088 m 1
 959.995 1088 l 1
 959.995 128 l 1
 383.995 128 l 1
 383.995 1088 l 1
1088 1088 m 1
 1664 1088 l 1
 1664 128 l 1
 1088 128 l 1
 1088 1088 l 1
EndSplineSet
EndChar

StartChar: bss-leaf
Encoding: 108 57603 108
Width: 2048
LayerCount: 2
Back
Fore
SplineSet
196 32 m 1
 80.002 83.999 l 1
 83.33501 91.33201 88.502 101.165 95.502 113.498 c 0
 102.502 125.831 118.002 149.164 142.002 183.497 c 0
 166.002 217.83 193.502 253.33 224.502 289.997 c 0
 255.502 326.664 298.335 372.331 353.002 426.998 c 0
 407.669 481.665 467.502 536.332 532.502 590.999 c 0
 597.502 645.666 677.669 706.999 773.002 774.999 c 0
 868.335 842.999 970.668 909.999 1080.001 975.999 c 1
 1144.001 863.999 l 1
 990.001 771.332 851.334 676.665 728.001 579.998 c 1
 766.668 567.998 806.001 557.498 846.001 548.498 c 0
 886.001 539.498 936.001 531.998 996.001 525.998 c 0
 1056.001 519.998 1113.168 518.83101 1167.501 522.498 c 0
 1221.834 526.16499 1279.667 537.665 1341 556.998 c 0
 1402.333 576.331 1458 603.998 1508 639.998 c 0
 1754 816.665 1863.333 1179.332 1836 1727.998 c 1
 1674 1591.331 1503.333 1493.998 1324 1435.998 c 0
 1294.667 1426.66499 1229.334 1409.332 1128.001 1383.999 c 0
 1080.001 1372.666 1044.001 1363.833 1020.001 1357.5 c 0
 996.001 1351.167 963.168 1341.667 921.501 1329 c 0
 879.834 1316.333 848.667 1304.666 828 1293.999 c 0
 807.333 1283.332 781.5 1268.665 750.5 1249.998 c 0
 719.5 1231.331 696.833 1211.998 682.5 1191.998 c 0
 668.167 1171.998 652.834 1147.498 636.501 1118.498 c 0
 620.168 1089.498 610.168 1058.165 606.501 1024.498 c 0
 602.834 990.831 602.001 951.998 604.001 907.998 c 0
 606.001 863.998 612.66799 815.998 624.001 763.998 c 1
 500.001 735.998 l 1
 440.001 1003.998 485.334 1199.998 636.001 1323.998 c 0
 711.334 1385.998 826.667 1437.665 982 1478.998 c 0
 1007.333 1486.33101 1045.333 1495.998 1096 1507.998 c 0
 1158.667 1522.665 1221.334 1539.998 1284.001 1559.998 c 0
 1345.334 1579.998 1406.501 1605.498 1467.501 1636.498 c 0
 1528.501 1667.498 1579.001 1696.331 1619.001 1722.998 c 0
 1659.001 1749.665 1698.001 1778.832 1736.001 1810.499 c 0
 1774.001 1842.166 1799.168 1863.833 1811.501 1875.5 c 0
 1823.834 1887.167 1834.334 1897.667 1843.001 1907 c 2
 1844.001 1908 l 1
 1944.001 2016 l 1
 1956.001 1872 l 2
 2014.001 1204 1890.001 760 1584.001 540 c 0
 1447.334 441.333 1284.667 392 1096 392 c 0
 934.667 392 772 424 608 488 c 1
 548 437.333 493 387.166 443 337.499 c 0
 393 287.832 353.5 245.832 324.5 211.499 c 0
 295.5 177.166 270.667 145.499 250 116.499 c 0
 229.333 87.499 215.333 66.832 208 54.499 c 0
 200.667 42.166 196.667 34.666 196 31.999 c 2
 196 32 l 1
EndSplineSet
EndChar

StartChar: bss-fire
Encoding: 109 57604 109
Width: 2048
LayerCount: 2
Back
Fore
SplineSet
1681 918 m 0
 1669 1002.667 1646.3359 1088.336 1613.0029 1175.003 c 0
 1583.6699 1249.003 1545.0029 1324.003 1497.0029 1400.003 c 0
 1456.3359 1465.336 1407.3359 1530.669 1350.0029 1596.002 c 0
 1321.3359 1629.335 1293.3359 1659.002 1266.0029 1685.002 c 0
 1246.0029 1702.335 1230.6699 1716.335 1220.0029 1727.002 c 2
 1172.0029 1769.002 l 1
 1166.0029 1775.002 l 2
 1161.33591 1779.002 1155.3359 1783.83501 1148.0029 1789.502 c 2
 1121.5029 1810.502 l 2
 1111.1699 1818.83501 1099.1699 1828.002 1085.5029 1838.002 c 2
 1042.5029 1869.002 l 2
 1027.5029 1879.669 1010.3359 1891.002 991.0029 1903.002 c 2
 932.0029 1938.002 l 1
 820.0029 2005.002 l 1
 838.0029 1875.002 l 2
 849.3359 1795.002 805.6689 1674.669 707.0019 1514.002 c 1
 701.5019 1504.502 l 1
 697.5019 1497.502 l 2
 696.5019 1495.83501 696.0019 1494.66802 696.0019 1494.00102 c 0
 689.33491 1482.00102 676.6679 1461.33402 658.0009 1432.00102 c 2
 606.0009 1353.00102 l 2
 552.0009 1270.33402 512.3339 1206.00102 487.0009 1160.00102 c 0
 460.3339 1107.33402 442.3339 1069.00102 433.0009 1045.00102 c 0
 414.3339 997.66802 401.0009 953.66802 393.0009 913.00102 c 0
 383.0009 873.00102 377.3339 824.66802 376.0009 768.00102 c 0
 374.66789 717.33402 378.66789 668.33402 388.0009 621.00102 c 0
 398.6679 571.00102 413.6679 525.66802 433.0009 485.00102 c 0
 452.3339 442.33402 475.0009 403.00102 501.0009 367.00102 c 0
 531.6679 326.33402 558.6679 294.33402 582.0009 271.00102 c 0
 618.0009 236.33402 647.6679 210.33402 671.0009 193.00102 c 0
 679.0009 186.33403 711.3339 164.33402 768.0009 127.00102 c 1
 818.0009 99.00102 l 1
 870.0009 74.00102 l 1
 1026.0009 3.00102 l 1
 1023.0009 0.00101999999993 l 1
 1028.0009 3.00102 l 1
 1033.0009 0.00101999999993 l 1
 1032.0009 4.00102 l 1
 1181.0009 62.00102 l 2
 1205.0009 72.00102 1234.6679 87.66802 1270.0009 109.00102 c 2
 1301.0009 127.00102 l 2
 1329.6679 143.00102 1363.0009 165.66802 1401.0009 195.00102 c 0
 1437.0009 224.33402 1467.6679 253.33402 1493.0009 282.00102 c 0
 1525.0009 317.33402 1551.3339 352.33402 1572.0009 387.00102 c 0
 1598.0009 428.33402 1619.0009 468.66702 1635.0009 508.00002 c 0
 1652.3339 550.66702 1665.6669 595.00002 1674.9999 641.00002 c 0
 1691.6669 737.00002 1693.6669 829.33302 1681 918 c 0
1247 511.002 m 0
 1245.66699 499.002 1244.00195 490.003 1242.00195 484.003 c 2
 1240.00195 470.003 l 2
 1238.66894 464.66999 1235.00195 451.337 1229.00195 430.004 c 0
 1225.66894 414.671 1216.00195 387.004 1200.00195 347.004 c 2
 1179.00195 301.004 l 2
 1171.00195 282.337 1164.00195 267.337 1158.00195 256.004 c 0
 1152.66894 244.671 1142.00195 225.671 1126.00195 199.004 c 2
 1111.00195 174.004 l 2
 1104.33496 162.671 1099.66795 154.338 1097.00095 149.005 c 2
 1028.00095 10.005 l 1
 907.00095 256.005 l 1
 866.00095 346.005 l 2
 838.66795 410.005 820.66795 465.338 812.00095 512.005 c 0
 806.66794 538.005 803.66794 562.005 803.00095 584.005 c 0
 801.66794 608.005 803.00095 629.338 807.00095 648.005 c 0
 813.00095 686.005 825.66795 723.338 845.00095 760.005 c 0
 853.00095 775.338 865.00095 794.671 881.00095 818.004 c 0
 894.33395 837.337 909.66695 857.67 926.99995 879.003 c 0
 943.66695 901.003 961.99995 923.003 981.99995 945.003 c 2
 1044.99995 1018.003 l 1
 1067.99995 1046.003 l 1
 1093.33295 1014.003 1117.33295 979.336 1139.99995 942.003 c 0
 1169.33295 895.336 1192.99995 849.669 1210.99995 805.002 c 0
 1231.66695 751.669 1244.66695 704.669 1249.99995 664.002 c 0
 1255.99995 610.002 1254.99995 559.002 1247 511.002 c 0
1548 666.003 m 0
 1538.66699 622.003 1527.6611 584.6778 1514.9941 554.011 c 0
 1504.3271 525.344 1487.3271 492.344 1463.9941 455.011 c 0
 1446.6611 427.011 1424.3281 397.678 1396.9951 367.011 c 0
 1376.9951 345.678 1351.3281 321.678 1319.9951 295.011 c 0
 1319.9951 294.344008 1319.328108 293.67702 1317.9951 293.01002 c 2
 1315.9951 292.01002 l 2
 1317.32811 294.01002 1318.66112 296.84303 1319.99412 300.51002 c 0
 1321.32712 304.17701 1322.32713 307.01002 1322.99412 309.01002 c 0
 1338.32712 348.34302 1347.99412 377.67602 1351.99412 397.00902 c 0
 1352.661112 400.34203 1356.99412 416.67502 1364.99412 446.00802 c 2
 1367.99412 461.00802 l 2
 1370.66111 473.67502 1372.66111 485.00802 1373.99412 495.00802 c 0
 1383.32713 557.67502 1383.66014 620.67502 1374.993143 684.00802 c 0
 1366.993143 740.00802 1351.660143 796.67502 1328.993143 854.00802 c 0
 1304.326143 912.00802 1276.993143 964.34102 1246.993143 1011.00802 c 0
 1213.660143 1064.34102 1178.327143 1114.00802 1140.994143 1160.00802 c 1
 1061.994143 1244.00802 l 1
 1013.994143 1183.00802 l 1
 947.994143 1102.00802 l 1
 880.994143 1025.00802 l 2
 878.994143 1022.34103 870.994143 1012.84102 856.994143 996.50802 c 0
 842.994143 980.17502 832.994143 968.00802 826.994143 960.00802 c 0
 825.661133 958.00802 808.328143 934.67502 774.995143 890.00802 c 0
 756.328143 861.34102 742.328143 837.67402 732.995143 819.00702 c 0
 705.662143 769.00702 687.662143 718.00702 678.995143 666.00702 c 0
 675.662133 643.34002 673.995143 613.67302 673.995143 577.00602 c 0
 674.662135 548.33902 678.329123 517.67202 684.996143 485.00502 c 0
 694.996143 435.67202 715.663143 372.33902 746.996143 295.00602 c 1
 720.996143 314.33902 695.329143 336.67202 669.996143 362.00502 c 0
 649.996143 382.00502 627.329143 409.00502 601.996143 443.00502 c 0
 583.329143 469.00502 564.996143 500.67202 546.996143 538.00502 c 0
 530.329143 577.33802 518.329143 613.67102 510.996143 647.00402 c 0
 502.996143 683.67102 499.663143 722.67102 500.996143 764.00402 c 0
 501.663135 798.00402 507.330123 838.33702 517.997143 885.00402 c 0
 528.664143 927.67102 540.331143 965.00402 552.998143 997.00402 c 0
 564.331143 1026.33702 580.331143 1060.67002 600.998143 1100.00302 c 0
 629.665143 1152.67002 666.665143 1213.00302 711.998143 1281.00302 c 2
 765.998143 1362.00302 l 1
 791.998143 1405.50302 l 2
 802.665143 1423.83602 808.332143 1433.33602 808.999143 1434.00302 c 2
 815.999143 1447.00302 l 1
 893.332143 1573.00302 940.999143 1681.33602 958.999143 1772.00302 c 1
 1020.332143 1730.00302 1063.332143 1696.67002 1087.999143 1672.00302 c 2
 1135.999143 1631.00302 l 2
 1154.666143 1613.67002 1168.333143 1600.33702 1177.000143 1591.00402 c 0
 1212.333143 1555.67102 1238.000143 1529.00402 1254.000143 1511.00402 c 0
 1296.667143 1462.33702 1341.667143 1402.00402 1389.000143 1330.00402 c 0
 1433.000143 1261.33702 1468.000143 1193.67002 1494.000143 1127.00302 c 0
 1523.333143 1055.00302 1543.333143 979.33602 1554.000143 900.00302 c 0
 1564.000143 819.33602 1562.000143 741.33602 1548 666.003 c 0
EndSplineSet
EndChar

StartChar: bss-eye-open
Encoding: 110 57605 110
Width: 2048
LayerCount: 2
Back
Fore
SplineSet
1024 1331 m 0
 964.667 1331 913.5 1310.5 870.5 1269.5 c 0
 827.5 1228.5 806 1176.667 806 1114 c 0
 806 1080 814.66699 1045.667 832 1011 c 1
 1024 1114 l 1
 960 922 l 2
 963.33301 922 972.333 919.83301 987 915.5 c 0
 1001.667 911.16699 1014 909 1024 909 c 0
 1083.333 909 1134.5 929.5 1177.5 970.5 c 0
 1220.5 1011.5 1242 1063.333 1242 1126 c 0
 1242 1178 1219.833 1225.167 1175.5 1267.5 c 0
 1131.167 1309.833 1080.667 1331 1024 1331 c 0
1024 602 m 0
 931.333 602 844.668 624.998 764.001 670.998 c 0
 683.334 716.998 619.001 780.331 571.001 860.998 c 0
 523.001 941.665 499.001 1029.998 499.001 1125.998 c 0
 499.001 1217.331 523.168 1299.831 571.501 1373.498 c 0
 619.834 1447.165 683.834 1503.832 763.501 1543.499 c 0
 843.168 1583.166 930.001 1602.999 1024.001 1602.999 c 0
 1118.001 1602.999 1204.834 1582.999 1284.501 1542.999 c 0
 1364.168 1502.999 1428.168 1445.332 1476.501 1369.999 c 0
 1524.834 1294.666 1549.001 1209.333 1549.001 1114 c 0
 1549.001 1022 1525.001 936.5 1477.001 857.5 c 0
 1429.001 778.5 1364.668 716.167 1284.001 670.5 c 0
 1203.334 624.833 1116.667 602 1024 602 c 0
1024 1510 m 0
 914.667 1510 821.167 1471.167 743.5 1393.5 c 0
 665.833 1315.833 627 1222.666 627 1113.999 c 0
 627 1004.666 665.833 911.166 743.5 833.499 c 0
 821.167 755.832 914.667 716.999 1024 716.999 c 0
 1133.333 716.999 1226.833 755.832 1304.5 833.499 c 0
 1382.167 911.166 1421 1004.666 1421 1113.999 c 0
 1421 1222.666 1382.167 1315.833 1304.5 1393.5 c 0
 1226.833 1471.167 1133.333 1510 1024 1510 c 0
1024 1606 m 1
 1213.333 1606 1386.167 1552.832 1542.5 1446.499 c 0
 1698.833 1340.166 1816 1199.333 1894 1024 c 1
 1816.667 850.667 1700.167 713.5 1544.5 612.5 c 0
 1388.833 511.5 1215.333 461 1024 461 c 0
 832.667 461 659.167 511.5 503.5 612.5 c 0
 347.833 713.5 231.333 850.667 154 1024 c 1
 232 1199.333 349 1339.833 505 1445.5 c 0
 661 1551.167 834 1604 1024 1604 c 1
 1024 1606 l 1
1024 1715 m 0
 795.333 1715 589.001 1651.502 405.001 1524.502 c 0
 221.001 1397.502 90.334 1230.669 13.001 1024.002 c 1
 90.334 817.335 221.001 650.502 405.001 523.502 c 0
 589.001 396.502 795.334 333.002 1024.001 333.002 c 0
 1114.668 333.002 1203.668 344.169 1291.001 366.502 c 0
 1378.334 388.835 1459.667 420.668 1535 462.001 c 0
 1610.333 503.334 1680.333 552.334 1745 609.001 c 0
 1809.667 665.668 1866.5 729.168 1915.5 799.501 c 0
 1964.5 869.834 2004.333 944.667 2035 1024 c 1
 1957.667 1230.667 1827 1397.5 1643 1524.5 c 0
 1459 1651.5 1252.667 1715 1024 1715 c 0
EndSplineSet
EndChar

StartChar: bss-eye-close
Encoding: 111 57606 111
Width: 2048
LayerCount: 2
Back
Fore
SplineSet
1280 2022 m 1
 1203.002 1677 l 1
 1169.002 1685.66699 1109.335 1690 1024.002 1690 c 0
 795.335 1690 589.002 1626.333 405.002 1499 c 0
 221.002 1371.667 90.335 1204.667 13.002 998 c 1
 84.335 811.333 200.668 656.333 362.001 533 c 0
 523.334 409.667 705.667 338.667 909 320 c 1
 845 51 l 1
 973 26 l 1
 1408 1997 l 1
 1280 2022 l 1
845.002 998 m 1
 1024.002 1101 l 1
 960.002 896 l 2
 963.33501 896 972.335 893.83301 987.002 889.5 c 0
 1001.669 885.16699 1014.002 883 1024.002 883 c 2
 1037.002 883 l 1
 998.002 704 l 1
 896.002 710.66699 810.835 750.667 742.502 824 c 0
 674.169 897.333 640.002 985.333 640.002 1088 c 0
 640.002 1197.333 679.002 1290.833 757.002 1368.5 c 0
 835.002 1446.167 928.335 1485 1037.002 1485 c 0
 1047.002 1485 1056.502 1484.666992 1065.502 1484 c 0
 1074.502 1483.333008 1084.335 1481.83301 1095.002 1479.5 c 2
 1120.002 1474 l 2
 1126.002 1472.66699 1136.002 1470.16699 1150.002 1466.5 c 0
 1164.002 1462.83301 1173.335 1460.33301 1178.002 1459 c 1
 1114.002 1280 l 1
 1079.335 1297.333 1049.335 1306 1024.002 1306 c 0
 964.669 1306 913.502 1285.333 870.502 1244 c 0
 827.502 1202.667 806.002 1150.667 806.002 1088 c 0
 806.002 1054 819.002 1024 845.002 998 c 1
154.002 998 m 1
 212.002 1120.667 290.169 1227.164 388.502 1317.497 c 0
 486.835 1407.83 596.335 1471.997 717.002 1509.997 c 1
 651.002 1463.33 598.169 1402.997 558.502 1328.997 c 0
 518.835 1254.997 499.002 1174.664 499.002 1087.997 c 0
 499.002 954.664 543.502 839.331 632.502 741.998 c 0
 721.502 644.665 830.669 589.332 960.002 575.999 c 1
 934.002 434.999 l 1
 760.002 454.332 604.002 513.332 466.002 611.999 c 0
 328.002 710.666 224.002 839.333 154.002 998 c 1
1408 1626 m 1
 1382.001 1497.999 l 1
 1492.668 1451.999 1593.168 1385.499 1683.501 1298.499 c 0
 1773.834 1211.499 1844.001 1111.332 1894.001 997.999 c 1
 1824.001 845.332 1722.501 719.665 1589.501 620.998 c 0
 1456.501 522.331 1306.334 460.331 1139.001 434.998 c 1
 1114.001 306.998 l 1
 1323.334 325.665 1509.667 396.998 1673 520.998 c 0
 1836.333 644.998 1957 803.998 2035 997.998 c 1
 1978.333 1142.665 1895.5 1268.832 1786.5 1376.499 c 0
 1677.5 1484.166 1551.333 1567.333 1408 1626 c 1
1216 754.996 m 1
 1178.001 601.997 l 1
 1288.668 634.664 1378.168 695.997 1446.501 785.997 c 0
 1514.834 875.997 1549.001 980.997 1549.001 1100.997 c 0
 1549.001 1178.33 1533.501 1250.497 1502.501 1317.497 c 0
 1471.501 1384.497 1427.334 1440.33 1370.001 1484.997 c 1
 1331.001 1330.997 l 1
 1382.334 1266.33 1408.001 1189.663 1408.001 1100.996 c 1
 1414.001 1027.663 1398.66799 960.163 1362.001 898.496 c 0
 1325.33401 836.829 1276.667 788.996 1216 754.996 c 1
EndSplineSet
EndChar

StartChar: bss-warning-sign
Encoding: 112 57607 112
Width: 2048
LayerCount: 2
Back
Fore
SplineSet
960 576 m 1
 1088 576 l 1
 1088 384 l 1
 960 384 l 1
 960 576 l 1
960 704 m 1
 960 1280 l 1
 1088 1280 l 1
 1088 704 l 1
 960 704 l 1
0 128 m 1
 1024 1920 l 1
 2048 128 l 1
 192 128 l 1
 232 256 l 1
 1814 256 l 1
 1024 1664 l 1
 232 256 l 1
 192 128 l 1
 0 128 l 1
EndSplineSet
EndChar

StartChar: bss-plane
Encoding: 113 57608 113
Width: 2048
LayerCount: 2
Back
Fore
SplineSet
648 0 m 1
 648 192 l 1
 648 272 l 1
 648 340 l 1
 704 376 l 1
 744 404 l 1
 744 704 l 1
 72 488 l 1
 72 896 l 1
 744 1312 l 1
 744 1768 l 2
 744 1845.333 771.333 1911.333 826 1966 c 0
 880.667 2020.667 946.667 2048 1024 2048 c 0
 1101.333 2048 1167.333 2020.667 1222 1966 c 0
 1276.667 1911.333 1304 1845.333 1304 1768 c 2
 1304 1308 l 1
 1976 896 l 1
 1976 488 l 1
 1304 704 l 1
 1304 404 l 1
 1340 380 l 1
 1400 340 l 1
 1400 272 l 1
 1400 192 l 1
 1400 0 l 1
 1224 72 l 1
 1024 152 l 1
 824 72 l 1
 648 0 l 1
776 192 m 1
 1016 288 l 1
 1028 288 l 1
 1272 192 l 1
 1272 272 l 1
 1176 336 l 1
 1176 352 l 1
 1176 876 l 1
 1848 664 l 1
 1848 824 l 1
 1176 1232 l 1
 1176 1768 l 2
 1176 1810 1161 1845.833 1131 1875.5 c 0
 1101 1905.167 1065.333 1920 1024 1920 c 0
 982 1920 946.167 1905.167 916.5 1875.5 c 0
 886.833 1845.833 872 1810 872 1768 c 2
 872 1240 l 1
 200 824 l 1
 200 664 l 1
 872 880 l 1
 872 360 l 1
 872 336 l 1
 776 272 l 1
 776 192 l 1
EndSplineSet
EndChar

StartChar: bss-calendar
Encoding: 114 57609 114
Width: 2048
LayerCount: 2
Back
Fore
SplineSet
448 2048 m 1
 448 1856 l 1
 0 1856 l 1
 0 1488 l 1
 0 0 l 1
 2048 0 l 1
 2048 1472 l 1
 2048 1856 l 1
 1592 1856 l 1
 1592 2048 l 1
 1464 2048 l 1
 1464 1856 l 1
 576 1856 l 1
 576 2048 l 1
 448 2048 l 1
128 1728 m 1
 448 1728 l 1
 448 1600 l 1
 576 1600 l 1
 576 1728 l 1
 1464 1728 l 1
 1464 1600 l 1
 1592 1600 l 1
 1592 1728 l 1
 1920 1728 l 1
 1920 1472 l 1
 128 1472 l 1
 128 1728 l 1
128 1344 m 1
 1920 1344 l 1
 1920 128 l 1
 128 128 l 1
 128 1344 l 1
384 1088 m 1
 384 960 l 1
 640 960 l 1
 640 1088 l 1
 384 1088 l 1
896 1088 m 1
 896 960 l 1
 1152 960 l 1
 1152 1088 l 1
 896 1088 l 1
1408 1088 m 1
 1408 960 l 1
 1664 960 l 1
 1664 1088 l 1
 1408 1088 l 1
384 832 m 1
 384 704 l 1
 640 704 l 1
 640 832 l 1
 384 832 l 1
896 832 m 1
 896 704 l 1
 1152 704 l 1
 1152 832 l 1
 896 832 l 1
1408 832 m 1
 1408 704 l 1
 1664 704 l 1
 1664 832 l 1
 1408 832 l 1
384 576 m 1
 384 448 l 1
 640 448 l 1
 640 576 l 1
 384 576 l 1
896 576 m 1
 896 448 l 1
 1152 448 l 1
 1152 576 l 1
 896 576 l 1
1408 576 m 1
 1408 448 l 1
 1664 448 l 1
 1664 576 l 1
 1408 576 l 1
EndSplineSet
EndChar

StartChar: bss-random
Encoding: 115 57616 115
Width: 2048
LayerCount: 2
Back
Fore
SplineSet
1359 1361 m 1
 1137 1066 l 1
 1056 1172 l 1
 1297 1489 l 1
 1728 1489 l 1
 1536 1678 l 1
 1716 1678 l 1
 1969 1427 l 1
 1710 1169 l 1
 1530 1169 l 1
 1722 1361 l 1
 1359 1361 l 1
608 369 m 1
 0 369 l 1
 0 497 l 1
 544 497 l 1
 906 975 l 1
 987 869 l 1
 608 369 l 1
1710 878 m 1
 1969 621 l 1
 1716 369 l 1
 1536 369 l 1
 1728 558 l 1
 1297 558 l 1
 544 1550 l 1
 0 1550 l 1
 0 1678 l 1
 608 1678 l 1
 1359 686 l 1
 1722 686 l 1
 1530 878 l 1
 1710 878 l 1
EndSplineSet
EndChar

StartChar: bss-comment
Encoding: 116 57617 116
Width: 2048
LayerCount: 2
Back
Fore
SplineSet
1851 2048 m 2
 183 2048 l 2
 132.333 2048 89.166 2030.167 53.499 1994.5 c 0
 17.832 1958.833 -0.001 1915.666 -0.001 1864.999 c 2
 -0.001 813.999 l 2
 -0.001 763.332 17.832 720.165 53.499 684.498 c 0
 89.166 648.831 132.333 630.998 183 630.998 c 2
 483 630.998 l 1
 483 22.998 l 1
 1148 630.998 l 1
 1851 630.998 l 2
 1901.667 630.998 1944.834 648.831 1980.501 684.498 c 0
 2016.168 720.165 2034.001 763.332 2034.001 813.999 c 2
 2034.001 1864.999 l 2
 2033.334008 1915.666 2015.167 1958.833 1979.5 1994.5 c 0
 1943.833 2030.167 1901 2048 1851 2048 c 2
1905 814 m 2
 1905 798.667 1899.66699 785.667 1889 775 c 0
 1878.33301 764.333 1865.333 759 1850 759 c 2
 1097 759 l 1
 609 314 l 1
 609 759 l 1
 183 759 l 2
 167.667 759 154.667 764.33301 144 775 c 0
 133.333 785.66699 128 798.667 128 814 c 2
 128 1865 l 2
 128 1880.333 133.33301 1893.333 144 1904 c 0
 154.66699 1914.667 167.667 1920 183 1920 c 2
 1850 1920 l 2
 1865.333 1920 1878.333 1914.66699 1889 1904 c 0
 1899.667 1893.33301 1905 1880.333 1905 1865 c 2
 1905 814 l 2
EndSplineSet
EndChar

StartChar: bss-magnet
Encoding: 117 57618 117
Width: 2048
LayerCount: 2
Back
Fore
SplineSet
1496 1448 m 1
 1986 1446 l 1
 1984 1574 l 1
 1497 1575 l 1
 1496 1448 l 1
51 1453 m 1
 541 1450 l 1
 541 1573 l 1
 51 1578 l 1
 51 1453 l 1
1498 2048 m 1
 2010 2048 l 1
 2010 1664 l 1
 1498 1664 l 1
 1626 1792 l 1
 1882 1792 l 1
 1882 1920 l 1
 1626 1920 l 1
 1626 1792 l 1
 1498 1664 l 1
 1498 2048 l 1
51 2048 m 1
 563 2048 l 1
 563 1664 l 1
 51 1664 l 1
 179 1792 l 1
 435 1792 l 1
 435 1920 l 1
 179 1920 l 1
 179 1792 l 1
 51 1664 l 1
 51 2048 l 1
1869 1574 m 1
 1869 973 l 2
 1869 859.667 1846.5 751 1801.5 647 c 0
 1756.5 543 1696 453 1620 377 c 0
 1544 301 1454 240.5 1350 195.5 c 0
 1246 150.5 1137.333 128 1024 128 c 0
 910.667 128 802 150.5 698 195.5 c 0
 594 240.5 504 301 428 377 c 0
 352 453 291.5 543 246.5 647 c 0
 201.5 751 179 859.667 179 973 c 2
 179 1574 l 1
 51 1574 l 1
 51 973 l 2
 51 841 76.667 714.833 128 594.5 c 0
 179.333 474.167 248.333 370.667 335 284 c 0
 421.667 197.333 525.167 128.333 645.5 77 c 0
 765.833 25.667 892 0 1024 0 c 0
 1156 0 1282.167 25.667 1402.5 77 c 0
 1522.833 128.333 1626.333 197.333 1713 284 c 0
 1799.667 370.667 1868.667 474.167 1920 594.5 c 0
 1971.333 714.833 1997 841 1997 973 c 2
 1997 1574 l 1
 1869 1574 l 1
1024 371 m 0
 1133.333 371 1234.168 397.832 1326.501 451.499 c 0
 1418.834 505.166 1491.834 578.166 1545.501 670.499 c 0
 1599.168 762.832 1626.001 863.665 1626.001 972.998 c 2
 1626.001 1573.998 l 1
 1498.001 1573.998 l 1
 1498.001 972.998 l 2
 1498.001 884.998 1476.334 804.498 1433.001 731.498 c 0
 1389.668 658.498 1331.835 601.498 1259.502 560.498 c 0
 1187.169 519.498 1108.669 498.998 1024.002 498.998 c 0
 961.335 498.998 900.835 511.831 842.502 537.498 c 0
 784.169 563.165 733.669 597.332 691.002 639.999 c 0
 648.335 682.666 614.168 733.166 588.501 791.499 c 0
 562.834 849.832 550.001 910.332 550.001 972.999 c 2
 550.001 1573.999 l 1
 422.001 1573.999 l 1
 422.001 972.999 l 2
 422.001 863.666 448.834 762.833 502.501 670.5 c 0
 556.168 578.167 629.168 505.167 721.501 451.5 c 0
 813.834 397.833 914.667 371 1024 371 c 0
EndSplineSet
EndChar

StartChar: bss-chevron-up
Encoding: 118 57619 118
Width: 2048
LayerCount: 2
Back
Fore
SplineSet
2048 448 m 1
 1856 448 l 1
 1024 1472 l 1
 192 448 l 1
 0 448 l 1
 1024 1664 l 1
 2048 448 l 1
EndSplineSet
EndChar

StartChar: bss-chevron-down
Encoding: 119 57620 119
Width: 2048
LayerCount: 2
Back
Fore
SplineSet
0 1600 m 1
 192 1600 l 1
 1024 576 l 1
 1856 1600 l 1
 2048 1600 l 1
 1024 384 l 1
 0 1600 l 1
EndSplineSet
EndChar

StartChar: bss-retweet
Encoding: 120 57621 120
Width: 2048
LayerCount: 2
Back
Fore
SplineSet
256 1688 m 1
 0 1432 l 1
 0 1256 l 1
 192 1448 l 1
 192 488 l 1
 192 360 l 1
 320 360 l 1
 1588 360 l 1
 1460 488 l 1
 320 488 l 1
 320 1448 l 1
 512 1268 l 1
 512 1448 l 1
 256 1688 l 1
460 1688 m 1
 588 1560 l 1
 1728 1560 l 1
 1728 600 l 1
 1536 780 l 1
 1536 600 l 1
 1792 360 l 1
 2048 616 l 1
 2048 792 l 1
 1856 600 l 1
 1856 1560 l 1
 1856 1688 l 1
 1728 1688 l 1
 460 1688 l 1
EndSplineSet
EndChar

StartChar: bss-shopping-cart
Encoding: 121 57622 121
Width: 2048
LayerCount: 2
Back
Fore
SplineSet
60 1984 m 1
 60 1804 l 1
 276 1600 l 1
 468 564 l 1
 1840 564 l 1
 1984 1344 l 1
 1992 1344 l 1
 1992 1384 l 1
 2004 1448 l 1
 1992 1448 l 1
 1992 1472 l 1
 428 1472 l 1
 392 1664 l 1
 316 1740 l 1
 60 1984 l 1
456 1344 m 1
 1856 1344 l 1
 1804 1088 l 1
 504 1088 l 1
 456 1344 l 1
532 960 m 1
 1776 960 l 1
 1724 692 l 1
 584 692 l 1
 532 960 l 1
840 448 m 0
 786.667 448 741.334 429.333 704.001 392 c 0
 666.668 354.667 648.001 309.334 648.001 256.001 c 0
 648.001 202.668 666.668 157.335 704.001 120.002 c 0
 741.334 82.669 786.667 64.002 840 64.002 c 0
 893.333 64.002 938.666 82.669 975.999 120.002 c 0
 1013.332 157.335 1031.999 202.668 1031.999 256.001 c 0
 1031.999 309.334 1013.332 354.667 975.999 392 c 0
 938.666 429.333 893.333 448 840 448 c 0
1544 448 m 0
 1490.667 448 1445.334 429.333 1408.001 392 c 0
 1370.668 354.667 1352.001 309.334 1352.001 256.001 c 0
 1352.001 202.668 1370.668 157.335 1408.001 120.002 c 0
 1445.334 82.669 1490.667 64.002 1544 64.002 c 0
 1597.333 64.002 1642.666 82.669 1679.999 120.002 c 0
 1717.332 157.335 1735.999 202.668 1735.999 256.001 c 0
 1735.999 309.334 1717.332 354.667 1679.999 392 c 0
 1642.666 429.333 1597.333 448 1544 448 c 0
840 320 m 0
 857.333 320 872.333 314 885 302 c 0
 897.667 290 904 274.667 904 256 c 0
 904 237.333 897.66699 222 885 210 c 0
 872.33301 198 857.333 192 840 192 c 0
 824 192 809.333 198.5 796 211.5 c 0
 782.667 224.5 776 239.333 776 256 c 0
 776 273.333 782.33301 288.333 795 301 c 0
 807.66699 313.667 822.667 320 840 320 c 0
1544 320 m 0
 1561.333 320 1576.333 314 1589 302 c 0
 1601.667 290 1608 274.667 1608 256 c 0
 1608 237.333 1601.66699 222 1589 210 c 0
 1576.33301 198 1561.333 192 1544 192 c 0
 1528 192 1513.333 198.5 1500 211.5 c 0
 1486.667 224.5 1480 239.333 1480 256 c 0
 1480 273.333 1486.33301 288.333 1499 301 c 0
 1511.66699 313.667 1526.667 320 1544 320 c 0
EndSplineSet
EndChar

StartChar: bss-folder-close
Encoding: 122 57623 122
Width: 2048
LayerCount: 2
Back
Fore
SplineSet
980 1420 m 1
 790 1711 l 1
 0 1711 l 1
 0 334 l 1
 1696 334 l 1
 1696 1420 l 1
 980 1420 l 1
1568 463 m 1
 128 463 l 1
 128 1583 l 1
 721 1583 l 1
 911 1292 l 1
 1568 1292 l 1
 1568 463 l 1
EndSplineSet
EndChar

StartChar: bss-folder-open
Encoding: 123 57624 123
Width: 2048
LayerCount: 2
Back
Fore
SplineSet
1696 1151 m 1
 1696 1420 l 1
 980 1420 l 1
 790 1711 l 1
 0 1711 l 1
 0 334 l 1
 6 334 l 1
 1568 334 l 1
 1693 334 l 1
 1978 1151 l 1
 1696 1151 l 1
128 1583 m 1
 721 1583 l 1
 911 1292 l 1
 1568 1292 l 1
 1568 1151 l 1
 291 1151 l 1
 128 685 l 1
 128 1583 l 1
1603 463 m 1
 1568 463 l 1
 186 463 l 1
 381 1024 l 1
 1798 1024 l 1
 1603 463 l 1
EndSplineSet
EndChar

StartChar: bss-resize-vertical
Encoding: 124 57625 124
Width: 2048
LayerCount: 2
Back
Fore
SplineSet
1024 12 m 1
 764 244 l 1
 764 420 l 1
 960 244 l 1
 960 1808 l 1
 764 1628 l 1
 764 1804 l 1
 1024 2036 l 1
 1284 1800 l 1
 1284 1628 l 1
 1088 1808 l 1
 1088 244 l 1
 1284 420 l 1
 1284 248 l 1
 1024 12 l 1
EndSplineSet
EndChar

StartChar: bss-resize-horizontal
Encoding: 125 57632 125
Width: 2048
LayerCount: 2
Back
Fore
SplineSet
244 764 m 1
 12 1024 l 1
 248 1284 l 1
 420 1284 l 1
 244 1088 l 1
 1808 1088 l 1
 1628 1284 l 1
 1800 1284 l 1
 2036 1024 l 1
 1804 764 l 1
 1628 764 l 1
 1808 960 l 1
 244 960 l 1
 420 764 l 1
 244 764 l 1
EndSplineSet
EndChar

StartChar: bss-hdd
Encoding: 126 57633 126
Width: 2048
LayerCount: 2
Back
Fore
SplineSet
1779 653 m 0
 1779 624.333 1769.16699 600 1749.5 580 c 0
 1729.83301 560 1705.666 550 1676.999 550 c 0
 1648.332 550 1623.999 560 1603.999 580 c 0
 1583.999 600 1573.999 624.333 1573.999 653 c 0
 1573.999 681.667 1583.999 705.834 1603.999 725.501 c 0
 1623.999 745.168 1648.332 755.001 1676.999 755.001 c 0
 1705.666 755.001 1729.833 745.16799 1749.5 725.501 c 0
 1769.167 705.83401 1779 681.667 1779 653 c 0
1920 883 m 1
 1920 435 l 1
 128 435 l 1
 128 883 l 1
 0 883 l 1
 0 307 l 1
 2048 307 l 1
 2048 883 l 1
 1920 883 l 1
1690 1613 m 1
 1882 1011 l 1
 179 1011 l 1
 371 1613 l 1
 1690 1613 l 1
1779 1741 m 1
 269 1741 l 1
 0 883 l 1
 2048 883 l 1
 1779 1741 l 1
1139 717 m 1
 1434 717 l 1
 1434 589 l 1
 1139 589 l 1
 1139 717 l 1
EndSplineSet
EndChar

StartChar: bss-bullhorn
Encoding: 127 57634 127
Width: 2048
LayerCount: 2
Back
Fore
SplineSet
1984 1896 m 1
 1900 1864 l 1
 504 1356 l 1
 128 1356 l 1
 64 1356 l 1
 64 1292 l 1
 64 780 l 1
 64 716 l 1
 128 716 l 1
 504 716 l 1
 804 608 l 1
 764 488 l 1
 760 480 l 2
 747.333 448.667 748.333 417.667 763 387 c 0
 777.667 356.333 802 335.333 836 324 c 2
 1264 172 l 1
 1272 168 l 1
 1272 172 l 1
 1303.333 159.333 1335 160.5 1367 175.5 c 0
 1399 190.5 1420.667 214.667 1432 248 c 1
 1428 248 l 1
 1472 364 l 1
 1900 208 l 1
 1984 176 l 1
 1984 268 l 1
 1984 1804 l 1
 1984 1896 l 1
1856 1712 m 1
 1856 360 l 1
 576 824 l 1
 576 1248 l 1
 1856 1712 l 1
192 1228 m 1
 448 1228 l 1
 448 844 l 1
 192 844 l 1
 192 1228 l 1
920 564 m 1
 1352 408 l 1
 1308 292 l 1
 880 444 l 1
 920 564 l 1
EndSplineSet
EndChar

StartChar: bss-bell
Encoding: 128 57635 128
Width: 2048
LayerCount: 2
Back
Fore
SplineSet
1088 1638 m 0
 1184.667 1638 1275.167 1613.833 1359.5 1565.5 c 0
 1443.833 1517.167 1511.333 1450.5 1562 1365.5 c 0
 1612.667 1280.5 1638 1188 1638 1088 c 2
 1638 678 l 1
 1651 653 l 1
 1728 499 l 1
 448 499 l 1
 538 666 l 1
 550 691 l 1
 550 1088 l 2
 550 1188.667 574.333 1281.167 623 1365.5 c 0
 671.667 1449.833 737.167 1516.333 819.5 1565 c 0
 901.833 1613.667 991.333 1638 1088 1638 c 0
1088 1766 m 0
 966.667 1766 854.832 1735.501 752.499 1674.501 c 0
 650.166 1613.501 569.499 1531.001 510.499 1427.001 c 0
 451.499 1323.001 421.999 1210.001 421.999 1088.001 c 2
 421.999 704.001 l 1
 242.999 358.001 l 1
 1945.999 358.001 l 1
 1765.999 704.001 l 1
 1765.999 1088.001 l 2
 1765.999 1209.334 1735.499 1322.167 1674.499 1426.5 c 0
 1613.499 1530.833 1530.832 1613.5 1426.499 1674.5 c 0
 1322.166 1735.5 1209.333 1766 1088 1766 c 0
1318 294.001 m 1
 1318 230.668 1295.833 178.668 1251.5 138.001 c 0
 1207.167 97.334 1152.667 77.001 1088 77.001 c 0
 1024.667 77.001 970.5 98.668 925.5 142.001 c 0
 880.5 185.334 858 236.001 858 294.001 c 1
 730 294.001 l 1
 730 198.668 765.5 117.335 836.5 50.002 c 0
 907.5 -17.331 991.333 -50.998 1088 -50.998 c 0
 1184.667 -50.998 1268.5 -17.331 1339.5 50.002 c 0
 1410.5 117.335 1446 198.668 1446 294.001 c 1
 1318 294.001 l 1
972.998 1728 m 1
 972.998 1760 984.164 1787.167 1006.497 1809.5 c 0
 1028.83 1831.833 1055.997 1843 1087.997 1843 c 0
 1119.997 1843 1147.164 1831.833 1169.497 1809.5 c 0
 1191.83 1787.167 1202.997 1760 1202.997 1728 c 2
 1202.997 1715 l 1
 1330.997 1677 l 1
 1343.997 1728 l 1
 1343.997 1793.333 1320.83 1850.166 1274.497 1898.499 c 0
 1228.164 1946.832 1170.331 1970.999 1100.998 1970.999 c 0
 1035.665 1970.999 978.832 1947.832 930.499 1901.499 c 0
 882.166 1855.166 857.999 1797.333 857.999 1728 c 2
 857.999 1690 l 1
 895.332 1715.333 933.665 1728 972.998 1728 c 1
EndSplineSet
EndChar

StartChar: bss-certificate
Encoding: 129 57636 129
Width: 2048
LayerCount: 2
Back
Fore
SplineSet
1254 844 m 1
 1254 306 l 1
 1024 511 l 1
 806 306 l 1
 806 844 l 1
 756.667 856.667 710 878 666 908 c 1
 666 12 l 1
 1024 332 l 1
 1382 12 l 1
 1382 908 l 1
 1342.667 881.333 1300 860 1254 844 c 1
1216 1202 m 1
 1024 1318 l 1
 819 1202 l 1
 883 1433 l 1
 717 1574 l 1
 934 1599 l 1
 1024 1804 l 1
 1114 1586 l 1
 1331 1561 l 1
 1165 1420 l 1
 1216 1202 l 1
1024 2048 m 0
 920 2048 823.833 2022.167 735.5 1970.5 c 0
 647.167 1918.833 577.167 1848.833 525.5 1760.5 c 0
 473.833 1672.167 448 1576 448 1472 c 0
 448 1368 473.833 1271.833 525.5 1183.5 c 0
 577.167 1095.167 647.167 1025.167 735.5 973.5 c 0
 823.833 921.833 920 896 1024 896 c 0
 1128 896 1224.167 921.833 1312.5 973.5 c 0
 1400.833 1025.167 1470.833 1095.167 1522.5 1183.5 c 0
 1574.167 1271.833 1600 1368 1600 1472 c 0
 1600 1576 1574.167 1672.167 1522.5 1760.5 c 0
 1470.833 1848.833 1400.833 1918.833 1312.5 1970.5 c 0
 1224.167 2022.167 1128 2048 1024 2048 c 0
1024 1920 m 0
 1148 1920 1253.667 1876.333 1341 1789 c 0
 1428.333 1701.667 1472 1596 1472 1472 c 0
 1472 1348 1428.333 1242.333 1341 1155 c 0
 1253.667 1067.667 1148 1024 1024 1024 c 0
 900 1024 794.333 1067.667 707 1155 c 0
 619.667 1242.333 576 1348 576 1472 c 0
 576 1596 619.667 1701.667 707 1789 c 0
 794.333 1876.333 900 1920 1024 1920 c 0
EndSplineSet
EndChar

StartChar: bss-thumbs-up
Encoding: 130 57637 130
Width: 2048
LayerCount: 2
Back
Fore
SplineSet
256 323 m 1
 384 323 l 1
 384 1155 l 1
 256 1155 l 1
 256 323 l 1
1699 845 m 0
 1701.66699 788.333 1685.333 736.663 1650 689.996 c 1
 1663.333 647.996 1663.333 603.996 1650 557.996 c 0
 1638 515.329 1617.333 479.996 1588 451.996 c 1
 1594 365.996 1575.667 297.663 1533 246.996 c 0
 1485.667 190.996 1411.667 161.663 1311 158.996 c 2
 1271 158.996 l 1
 1185 158.996 l 1
 1166 158.996 l 2
 1112.667 158.996 1058.667 164.996 1004 176.996 c 0
 932 192.996 886.333 203.996 867 209.996 c 2
 800 231.996 l 1
 731 254.996 l 2
 638.333 287.663 579 304.33 553 304.997 c 0
 533 306.33001 516 313.33001 502 325.997 c 0
 487.333 340.664 480 357.331 480 375.998 c 2
 480 1099.998 l 2
 480 1118.665 486.66699 1134.665 500 1147.998 c 0
 514.667 1162.665 531 1170.332 549 1170.999 c 0
 564.333 1171.665992 593 1193.999 635 1237.999 c 0
 669 1273.332 707 1318.999 749 1374.999 c 0
 789 1426.332 827 1471.332 863 1509.999 c 0
 876.333 1523.332 887.666 1541.332 896.999 1563.999 c 0
 906.33201 1585.999 912.665 1604.332 915.998 1618.999 c 0
 921.998 1639.666 927.331 1662.333 931.998 1687 c 0
 935.998 1711 940.66499 1734 945.998 1756 c 0
 948.66499 1768 955.998 1787.667 967.998 1815 c 0
 977.33101 1836.333 989.998 1855 1005.998 1871 c 0
 1020.665 1885.667 1037.665 1893 1056.998 1893 c 0
 1093.665 1893 1124.998 1889.33301 1150.998 1882 c 0
 1177.665 1874 1200.332 1864 1218.999 1852 c 0
 1234.332 1842 1248.999 1826.667 1262.999 1806 c 0
 1275.666 1787.333 1284.666 1770.333 1289.999 1755 c 0
 1295.999 1737 1300.666 1718.333 1303.999 1699 c 0
 1307.332 1679.667 1308.999 1662.334 1308.999 1647.001 c 2
 1308.999 1604.001 l 2
 1308.999 1578.001 1305.66599 1549.334 1298.999 1518.001 c 0
 1288.999 1482.001 1281.666 1459.334 1276.999 1450.001 c 2
 1246.999 1388.001 l 2
 1243.66599 1382.66799 1239.66599 1375.668 1234.999 1367.001 c 0
 1233.66599 1365.001 1231.499 1361.001 1228.499 1355.001 c 0
 1225.499 1349.001 1223.33201 1345.001 1221.999 1343.001 c 0
 1220.66599 1341.66799 1217.66599 1332.668 1212.999 1316.001 c 1
 1525.999 1316.001 l 2
 1582.666 1316.001 1633.333 1294.668 1678 1252.001 c 0
 1720.667 1209.334 1742 1158.667 1742 1100 c 0
 1742 1034.667 1721.667 978.667 1681 932 c 1
 1693 900 1699 871 1699 845 c 0
1617 1098 m 0
 1617 1122 1607.99902 1142.6699 1589.999 1160.0029 c 0
 1571.999 1178.0029 1551.332 1187.0029 1527.999 1187.0029 c 2
 1214.999 1187.0029 l 1
 1045.999 1187.0029 l 1
 1091.999 1349.0029 l 2
 1095.33201 1362.3359 1099.66502 1375.3359 1104.998 1388.0029 c 0
 1109.66499 1400.6699 1116.332 1414.6699 1124.999 1430.0029 c 0
 1128.999 1435.33591 1131.66599 1439.66892 1132.999 1443.0019 c 0
 1145.666 1466.3349 1154.999 1485.0019 1160.999 1499.0019 c 0
 1162.999 1503.66889 1167.999 1520.0019 1175.999 1548.0019 c 0
 1180.66599 1564.6689 1182.999 1583.0019 1182.999 1603.0019 c 2
 1182.999 1644.0019 l 2
 1182.999 1652.0019 1181.66599 1663.6689 1178.999 1679.0019 c 0
 1178.332008 1685.0019 1175.999 1695.3349 1171.999 1710.0019 c 0
 1170.66599 1714.0019 1165.999 1722.6689 1157.999 1736.0019 c 0
 1155.33201 1739.33491 1152.33201 1742.66792 1148.999 1746.00092 c 0
 1145.66599 1749.33392 1134.999 1753.66694 1116.999 1758.99992 c 0
 1110.999 1760.99992 1101.332 1762.66691 1087.999 1763.99992 c 1
 1087.999 1762.99992 l 2
 1087.332008 1762.332928 1086.999 1761.66594 1086.999 1760.99894 c 0
 1078.999 1744.33194 1074.332 1732.33194 1072.999 1724.99894 c 0
 1068.999 1710.99894 1064.999 1690.99894 1060.999 1664.99894 c 0
 1051.66599 1622.33194 1045.999 1597.33194 1043.999 1589.99894 c 0
 1037.999 1566.66594 1029.332 1541.33294 1017.999 1513.99994 c 0
 1000.666 1475.99994 979.999 1444.99994 955.999 1420.99994 c 0
 930.666 1395.66694 895.999 1354.33394 851.999 1297.00094 c 0
 796.666 1229.00094 755.999 1180.66794 729.999 1152.00094 c 0
 683.999 1102.00094 643.332 1070.00094 607.999 1056.00094 c 1
 607.999 425.00094 l 1
 650.666 414.33394 705.666 397.66694 772.999 374.99994 c 0
 843.666 351.66694 887.666 337.66694 904.999 332.99994 c 0
 939.666 321.66694 980.999 311.66694 1028.999 302.99994 c 0
 1078.999 292.99994 1124.666 287.99994 1165.999 287.99994 c 2
 1184.999 287.99994 l 1
 1270.999 287.99994 l 1
 1311.999 287.99994 l 2
 1372.666 288.666932 1413.999 302.66694 1435.999 329.99994 c 0
 1457.332 353.99994 1465.999 391.33294 1461.999 441.99994 c 2
 1456.999 502.99994 l 1
 1500.999 544.99994 l 2
 1513.666 557.66694 1522.333 572.99994 1527 590.99994 c 0
 1533 613.66694 1533.33301 634.66694 1528 653.99994 c 2
 1509 716.99994 l 1
 1548 768.99994 l 2
 1564 790.33294 1571.667 814.66594 1571 841.99894 c 0
 1571 852.66594 1567.33301 869.33294 1560 891.99994 c 2
 1536 960.99994 l 1
 1585 1015.99994 l 2
 1606.333 1037.99994 1617 1065.33294 1617 1098 c 0
EndSplineSet
EndChar

StartChar: bss-thumbs-down
Encoding: 131 57638 131
Width: 2048
LayerCount: 2
Back
Fore
SplineSet
256 1729 m 1
 384 1729 l 1
 384 897 l 1
 256 897 l 1
 256 1729 l 1
1699 1207 m 0
 1701.66699 1263.667 1685.332 1315.333 1649.999 1362 c 1
 1663.332 1404 1663.332 1448 1649.999 1494 c 0
 1637.999 1536.667 1617.332 1572 1587.999 1600 c 1
 1593.999 1686 1575.666 1754.333 1532.999 1805 c 0
 1485.666 1861 1411.666 1890.333 1310.999 1893 c 2
 1270.999 1893 l 1
 1184.999 1893 l 1
 1165.999 1893 l 2
 1112.666 1893 1058.666 1887 1003.999 1875 c 0
 931.999 1859 886.332 1848 866.999 1842 c 2
 799.999 1820 l 1
 730.999 1797 l 2
 638.332 1764.333 578.999 1747.666 552.999 1746.999 c 0
 533.666 1745.66599 516.666 1738.33298 501.999 1725 c 0
 487.332 1710.333 479.999 1694 479.999 1676 c 2
 479.999 952 l 2
 479.999 933.333 486.66599 917.333 499.999 904 c 0
 514.666 889.333 530.999 881.666 548.999 880.999 c 0
 564.332 880.332008 592.999 857.999 634.999 813.999 c 0
 668.999 778.666 706.999 732.999 748.999 676.999 c 0
 792.332 621.666 830.332 576.333 862.999 541 c 0
 876.999 527 888.332 509.333 896.999 488 c 0
 906.33201 466 912.665 447.667 915.998 433 c 0
 921.998 412.333 927.331 389.666 931.998 364.999 c 0
 935.998 340.999 940.66499 317.999 945.998 295.999 c 0
 948.66499 283.999 955.998 264.332 967.998 236.999 c 0
 977.998 214.332 990.665 195.332 1005.998 179.999 c 0
 1019.998 165.999 1036.998 158.999 1056.998 158.999 c 0
 1093.665 158.999 1124.998 162.66599 1150.998 169.999 c 0
 1177.665 177.999 1200.332 187.999 1218.999 199.999 c 0
 1234.332 209.999 1248.999 225.332 1262.999 245.999 c 0
 1275.666 264.666 1284.666 281.666 1289.999 296.999 c 0
 1295.999 314.999 1300.666 333.666 1303.999 352.999 c 0
 1307.332 372.332 1308.999 389.332 1308.999 403.999 c 2
 1308.999 447.999 l 2
 1308.999 473.999 1305.66599 502.666 1298.999 533.999 c 0
 1288.999 569.999 1281.666 592.666 1276.999 601.999 c 2
 1246.999 663.999 l 2
 1243.66599 669.33201 1239.66599 676.332 1234.999 684.999 c 0
 1233.66599 686.999 1231.499 690.999 1228.499 696.999 c 0
 1225.499 702.999 1223.33201 706.999 1221.999 708.999 c 0
 1220.66599 710.33201 1217.66599 719.332 1212.999 735.999 c 1
 1525.999 735.999 l 2
 1582.666 735.999 1633.333 757.332 1678 799.999 c 0
 1720.667 842.666 1742 893.333 1742 952 c 0
 1742 1017.333 1721.667 1073.333 1681 1120 c 1
 1693 1152 1699 1181 1699 1207 c 0
1617 953.999 m 0
 1617 929.999 1608.00098 909.332 1590.001 891.999 c 0
 1572.001 873.999 1551.334 864.999 1528.001 864.999 c 2
 1215.001 864.999 l 1
 1046.001 864.999 l 1
 1092.001 702.999 l 2
 1095.33401 690.332 1099.66702 677.332 1105 663.999 c 0
 1109.66699 651.332 1116.334 637.332 1125.001 621.999 c 0
 1129.001 616.66599 1131.66799 612.33298 1133.001 609 c 0
 1145.668 585.667 1155.001 567 1161.001 553 c 0
 1163.001 548.33301 1168.001 532 1176.001 504 c 0
 1180.66799 487.333 1183.001 469 1183.001 449 c 2
 1183.001 408 l 2
 1183.001 399.33301 1181.66799 387.333 1179.001 372 c 0
 1178.334008 368 1176.001 358 1172.001 342 c 0
 1170.66799 338 1166.001 329.333 1158.001 316 c 0
 1155.33401 312.66699 1152.33401 309.33398 1149.001 306.00098 c 0
 1145.66799 302.66798 1135.001 298.33496 1117.001 293.00198 c 0
 1111.001 291.00198 1101.334 289.33499 1088.001 288.00198 c 1
 1088.001 289.00198 l 2
 1087.334008 289.668972 1087.001 290.33596 1087.001 291.00296 c 0
 1079.001 308.33596 1074.334 320.00296 1073.001 326.00296 c 0
 1069.001 339.33596 1065.001 359.66896 1061.001 387.00196 c 0
 1051.66799 429.66896 1046.001 454.66896 1044.001 462.00196 c 0
 1038.001 485.33496 1029.334 510.66796 1018.001 538.00096 c 0
 1000.668 576.00096 980.001 607.00096 956.001 631.00096 c 0
 930.668 656.33396 896.001 697.66696 852.001 754.99996 c 0
 796.668 822.99996 756.001 871.33296 730.001 899.99996 c 0
 684.001 949.99996 643.334 981.99996 608.001 995.99996 c 1
 608.001 1626.99996 l 1
 650.668 1637.66696 705.668 1654.33396 773.001 1677.00096 c 0
 843.668 1700.33396 887.668 1714.33396 905.001 1719.00096 c 0
 934.334 1728.33397 975.667 1738.00096 1029 1748.00096 c 0
 1082.333 1758.66796 1128 1764.00096 1166 1764.00096 c 2
 1185 1764.00096 l 1
 1271 1764.00096 l 1
 1312 1764.00096 l 2
 1372.667 1763.333968 1414 1749.33396 1436 1722.00096 c 0
 1457.333 1698.00096 1466 1660.66796 1462 1610.00096 c 2
 1457 1549.00096 l 1
 1501 1507.00096 l 2
 1513.667 1494.33396 1522.334 1478.66696 1527.001 1459.99996 c 0
 1532.33401 1437.33296 1532.66702 1416.66596 1528.000023 1397.99896 c 2
 1509.000023 1334.99896 l 1
 1548.000023 1282.99896 l 2
 1564.000023 1261.66596 1571.667023 1237.33296 1571.000023 1209.99996 c 0
 1571.000023 1199.33296 1567.333033 1182.66596 1560.000023 1159.99896 c 2
 1536.000023 1090.99896 l 1
 1585.000023 1035.99896 l 2
 1606.333023 1013.99896 1617.000023 986.66596 1617 953.999 c 0
EndSplineSet
EndChar

StartChar: bss-hand-right
Encoding: 132 57639 132
Width: 2048
LayerCount: 2
Back
Fore
SplineSet
800 1866 m 0
 833.333 1866 863.999 1861.99512 891.999 1853.9951 c 0
 926.666 1843.9951 950.666 1834.6621 963.999 1825.9951 c 0
 980.666 1813.9951 995.333 1797.9951 1008 1777.9951 c 0
 1023.333 1755.3281 1032.666 1739.3281 1035.999 1729.9951 c 0
 1039.999 1719.9951 1043.999 1699.9951 1047.999 1669.9951 c 0
 1052.66599 1643.9951 1055.33298 1627.9951 1055.99998 1621.9951 c 2
 1055.99998 1577.9951 l 2
 1055.99998 1559.3281 1051.99998 1531.3281 1043.99998 1493.9951 c 0
 1031.33298 1450.6621 1024.66598 1427.9951 1023.99898 1425.9951 c 2
 991.99898 1361.9951 l 2
 990.66597 1359.9951 988.66597 1356.82811 985.99898 1352.4951 c 0
 983.33199 1348.16209 981.33199 1344.66209 979.99898 1341.9951 c 2
 973.99898 1329.4951 l 2
 971.33199 1323.82811 969.33199 1319.9951 967.99898 1317.9951 c 2
 964.49898 1304.4951 l 2
 962.83199 1298.16209 961.33199 1293.3291 959.99898 1289.9961 c 2
 1271.99898 1289.9961 l 1
 1295.99898 1289.9961 l 1
 1759.99898 1289.9961 l 2
 1813.33198 1289.9961 1858.66498 1271.3291 1895.99798 1233.9961 c 0
 1933.33098 1196.6631 1951.99798 1151.3301 1951.99798 1097.9971 c 0
 1951.99798 1044.6641 1933.33098 999.3311 1895.99798 961.9981 c 0
 1858.66498 924.6651 1813.33198 905.9981 1759.99898 905.9981 c 2
 1427.99898 905.9981 l 1
 1425.99898 903.9981 l 1
 1423.99898 901.9981 l 1
 1437.33198 865.3311 1443.99898 837.3311 1443.99898 817.9981 c 0
 1446.66597 763.3311 1429.33298 711.3311 1391.99998 661.9981 c 1
 1405.33298 619.9981 1405.33298 575.9981 1391.99998 529.9981 c 0
 1379.99998 487.3311 1359.99998 452.6641 1331.99998 425.9971 c 1
 1337.99998 341.3301 1319.33298 273.3301 1275.99998 221.9971 c 0
 1228.66698 165.9971 1155.33398 136.6641 1056.00098 133.9971 c 2
 1012.00098 133.9971 l 1
 928.00098 133.9971 l 1
 908.00098 133.9971 l 2
 850.00098 133.9971 796.66798 139.33011 748.00098 149.9971 c 0
 684.66798 162.6641 638.00098 173.3311 608.00098 181.9981 c 2
 472.00098 225.9981 l 2
 374.66798 259.9981 316.00098 277.3311 296.00098 277.9981 c 0
 273.33398 279.33111 256.00098 285.9981 244.00098 297.9981 c 0
 230.66798 311.3311 224.00098 328.6641 224.00098 349.9971 c 2
 224.00098 1073.9971 l 2
 224.00098 1092.6641 230.66797 1108.6641 244.00098 1121.9971 c 0
 259.33398 1137.3301 275.33398 1145.3301 292.00098 1145.9971 c 0
 310.00098 1147.33011 338.00098 1168.6631 376.00098 1209.9961 c 0
 409.33398 1244.6631 448.00098 1291.3301 492.00098 1349.9971 c 0
 529.33398 1397.3301 566.66698 1441.3301 603.99998 1481.9971 c 0
 618.66698 1496.6641 630.66698 1515.3311 639.99998 1537.9981 c 0
 650.66698 1561.9981 657.33398 1580.6651 660.00098 1593.9981 c 0
 666.00098 1614.6651 671.33398 1637.3321 676.00098 1661.9991 c 0
 683.33399 1704.6661 687.33398 1727.3331 688.00098 1730.0001 c 0
 689.33399 1736.66709 697.33399 1756.6671 712.00098 1790.0001 c 0
 722.00098 1813.3331 734.00098 1832.0001 748.00098 1846.0001 c 0
 761.33398 1859.3331 778.66698 1866.0001 800 1866 c 0
831.999 1738 m 2
 829.99998 1735.99805 l 1
 827.99998 1733.99805 l 1
 822.66697 1721.99805 818.66697 1709.99805 815.99998 1697.99805 c 0
 811.99998 1683.99805 807.99998 1663.99805 803.99998 1637.99805 c 2
 797.49998 1605.99805 l 1
 791.99998 1578.49805 l 2
 790.66697 1571.49805 789.33396 1565.99805 788.00096 1561.99805 c 0
 784.00096 1546.66505 774.66796 1521.33205 760.00096 1485.99905 c 0
 742.00096 1446.66605 722.00096 1415.99905 700.00096 1393.99905 c 0
 674.66796 1368.66605 640.00096 1327.33305 596.00096 1270.00005 c 0
 554.00096 1214.66705 514.00096 1166.66705 476.00096 1126.00005 c 0
 430.66796 1076.66705 389.33496 1044.66705 352.00196 1030.00005 c 1
 352.00196 398.00005 l 1
 415.33496 382.66705 471.33496 366.66705 520.00196 350.00005 c 0
 575.33496 330.66705 619.33496 316.00005 652.00196 306.00005 c 0
 676.66896 298.00005 718.00196 288.66705 776.00196 278.00005 c 0
 829.33496 267.33305 874.66796 262.00005 912.00096 262.00005 c 2
 928.00096 262.00005 l 1
 1016.00096 262.00005 l 1
 1056.00096 262.00005 l 2
 1118.00096 262.667042 1159.33396 276.00005 1180.00096 302.00005 c 0
 1200.00096 324.66705 1208.00096 362.00005 1204.00096 414.00005 c 2
 1200.00096 478.00005 l 1
 1244.00096 518.00005 l 2
 1258.00096 532.00005 1267.33396 548.00005 1272.00096 566.00005 c 0
 1277.33397 586.66705 1277.33397 606.66705 1272.00096 626.00005 c 2
 1252.00096 690.00005 l 1
 1292.00096 742.00005 l 2
 1309.33396 760.66705 1317.33396 784.66705 1316.00096 814.00005 c 0
 1316.00096 821.33306 1312.00096 837.33305 1304.00096 862.00005 c 2
 1280.00096 934.00005 l 1
 1216.00096 1034.00005 l 1
 1356.00096 1034.00005 l 1
 1360.00096 1034.00005 l 1
 1484.00096 1034.00005 l 1
 1760.00096 1034.00005 l 2
 1778.00096 1034.00005 1793.16796 1040.16704 1805.50096 1052.50005 c 0
 1817.83396 1064.83306 1824.00096 1080.00005 1824.00096 1098.00005 c 0
 1824.00096 1116.00005 1817.83397 1131.16705 1805.50096 1143.50005 c 0
 1793.16795 1155.83305 1778.00096 1162.00005 1760.00096 1162.00005 c 2
 1468.00096 1162.00005 l 1
 1208.00096 1162.00005 l 1
 788.00096 1162.00005 l 1
 836.00096 1322.00005 l 2
 841.33397 1342.00005 845.33397 1355.33305 848.00096 1362.00005 c 0
 851.33397 1372.00005 859.33396 1386.66705 872.00096 1406.00005 c 0
 876.66795 1412.00005 879.33494 1416.00005 880.00194 1418.00005 c 2
 904.00194 1474.00005 l 2
 907.33495 1480.00005 912.66796 1496.00005 920.00094 1522.00005 c 0
 925.33395 1546.00005 928.00094 1564.66705 928.00094 1578.00005 c 2
 928.00094 1618.00005 l 2
 928.00094 1626.66704 926.66793 1638.66705 924.00094 1654.00005 c 0
 923.333948 1659.33306 922.33395 1664.33305 921.00094 1669.00005 c 0
 919.66793 1673.66705 918.50094 1677.50005 917.50094 1680.50005 c 0
 916.50094 1683.50005 916.00094 1685.33306 916.00094 1686.00005 c 0
 914.00094 1692.00005 910.00094 1700.00005 904.00094 1710.00005 c 2
 892.00094 1722.00005 l 2
 891.333948 1722.00005 889.66696 1722.667042 886.99996 1724.00005 c 0
 884.33296 1725.333058 880.66598 1726.83306 875.99896 1728.50005 c 2
 859.99896 1734.00005 l 2
 855.99896 1734.00005 850.99896 1734.667042 844.99896 1736.00005 c 0
 838.99896 1737.333058 834.66596 1738.00005 831.999 1738 c 2
128 1125.99 m 1
 128 293.99 l 1
 0 293.99 l 1
 0 1125.99 l 1
 128 1125.99 l 1
EndSplineSet
EndChar

StartChar: bss-hand-left
Encoding: 133 57640 133
Width: 2048
LayerCount: 2
Back
Fore
SplineSet
1248 1872 m 0
 1214.667 1872 1184.001 1867.99512 1156.001 1859.9951 c 0
 1120.668 1849.9951 1096.668 1840.6621 1084.001 1831.9951 c 0
 1067.334 1819.9951 1052.667 1803.9951 1040 1783.9951 c 0
 1024.667 1761.3281 1015.334 1745.3281 1012.001 1735.9951 c 0
 1008.001 1725.9951 1004.001 1705.9951 1000.001 1675.9951 c 0
 995.33401 1649.9951 992.66702 1633.9951 992.00002 1627.9951 c 2
 992.00002 1583.9951 l 2
 992.00002 1565.3281 996.00002 1537.3281 1004.00002 1499.9951 c 0
 1016.66702 1456.6621 1023.33402 1433.9951 1024.00102 1431.9951 c 2
 1032.50102 1414.4951 l 1
 1044.00102 1390.9951 l 2
 1048.66801 1381.66209 1052.66801 1373.9951 1056.00102 1367.9951 c 0
 1057.33403 1365.9951 1059.33403 1362.82811 1062.00102 1358.4951 c 0
 1064.66801 1354.16209 1066.66801 1350.66209 1068.00102 1347.9951 c 2
 1074.00102 1335.4951 l 2
 1076.66801 1329.82811 1078.66801 1325.9951 1080.00102 1323.9951 c 2
 1083.50102 1310.4951 l 2
 1085.16801 1304.16209 1086.66801 1299.3291 1088.00102 1295.9961 c 2
 776.00102 1295.9961 l 1
 752.00102 1295.9961 l 1
 288.00102 1295.9961 l 2
 234.66802 1295.9961 189.33502 1277.3291 152.00202 1239.9961 c 0
 114.66902 1202.6631 96.00202 1157.3301 96.00202 1103.9971 c 0
 96.00202 1050.6641 114.66902 1005.3311 152.00202 967.9981 c 0
 189.33502 930.6651 234.66802 911.9981 288.00102 911.9981 c 2
 620.00102 911.9981 l 1
 622.00102 909.9981 l 1
 624.00102 907.9981 l 1
 610.66802 871.3311 604.00102 843.3311 604.00102 823.9981 c 0
 601.33403 769.3311 618.66702 717.3311 656.00002 667.9981 c 1
 642.66702 625.9981 642.66702 581.9981 656.00002 535.9981 c 0
 668.00002 493.3311 688.00002 458.6641 716.00002 431.9971 c 1
 710.00002 347.3301 728.66702 279.3301 772.00002 227.9971 c 0
 819.33302 171.9971 892.66602 142.6641 991.99902 139.9971 c 2
 1035.99902 139.9971 l 1
 1119.99902 139.9971 l 1
 1139.99902 139.9971 l 2
 1197.99902 139.9971 1251.33202 145.33011 1299.99902 155.9971 c 0
 1363.33202 168.6641 1409.99902 179.3311 1439.99902 187.9981 c 2
 1575.99902 231.9981 l 2
 1673.33202 265.9981 1731.99902 283.3311 1751.99902 283.9981 c 0
 1774.66602 285.33111 1791.99902 291.9981 1803.99902 303.9981 c 0
 1817.33202 317.3311 1823.99902 334.6641 1823.99902 355.9971 c 2
 1823.99902 1079.9971 l 2
 1823.99902 1098.6641 1817.33203 1114.6641 1803.99902 1127.9971 c 0
 1788.66602 1143.3301 1772.66602 1151.3301 1755.99902 1151.9971 c 0
 1737.99902 1153.33011 1709.99902 1174.6631 1671.99902 1215.9961 c 0
 1638.66602 1250.6631 1599.99902 1297.3301 1555.99902 1355.9971 c 0
 1518.66602 1403.3301 1481.33302 1447.3301 1444.00002 1487.9971 c 0
 1429.33302 1502.6641 1417.33302 1521.3311 1408.00002 1543.9981 c 0
 1397.33302 1567.9981 1390.66602 1586.6651 1387.99902 1599.9981 c 0
 1381.99902 1620.6651 1376.66602 1643.3321 1371.99902 1667.9991 c 0
 1364.66601 1710.6661 1360.66602 1733.3331 1359.99902 1736.0001 c 0
 1358.66601 1742.66709 1350.66601 1762.6671 1335.99902 1796.0001 c 0
 1325.99902 1819.3331 1313.99902 1838.0001 1299.99902 1852.0001 c 0
 1286.66602 1865.3331 1269.33302 1872.0001 1248 1872 c 0
1216 1744 m 2
 1217.99902 1741.99609 l 1
 1219.99902 1739.99609 l 1
 1225.33203 1727.99609 1229.33203 1715.99609 1231.99902 1703.99609 c 0
 1235.99902 1689.99609 1239.99902 1669.99609 1243.99902 1643.99609 c 2
 1250.49902 1611.99609 l 1
 1255.99902 1584.49609 l 2
 1257.33203 1577.49609 1258.66504 1571.99609 1259.99804 1567.99609 c 0
 1263.99804 1552.66309 1273.33104 1527.33009 1287.99804 1491.99709 c 0
 1305.99804 1452.66409 1325.99804 1421.99709 1347.99804 1399.99709 c 0
 1373.33104 1374.66409 1407.99804 1333.33109 1451.99804 1275.99809 c 0
 1493.99804 1220.66509 1533.99804 1172.66509 1571.99804 1131.99809 c 0
 1617.33104 1082.66509 1658.66404 1050.66509 1695.99704 1035.99809 c 1
 1695.99704 403.99809 l 1
 1632.66404 388.66509 1576.66404 372.66509 1527.99704 355.99809 c 0
 1472.66404 336.66509 1428.66404 321.99809 1395.99704 311.99809 c 0
 1371.33004 303.99809 1329.99704 294.66509 1271.99704 283.99809 c 0
 1218.66404 273.33109 1173.33104 267.99809 1135.99804 267.99809 c 2
 1119.99804 267.99809 l 1
 1031.99804 267.99809 l 1
 991.99804 267.99809 l 2
 929.99804 268.665082 888.66504 281.99809 867.99804 307.99809 c 0
 847.99804 330.66509 839.99804 367.99809 843.99804 419.99809 c 2
 847.99804 483.99809 l 1
 803.99804 523.99809 l 2
 789.99804 537.99809 780.66504 553.99809 775.99804 571.99809 c 0
 770.66503 592.66509 770.66503 612.66509 775.99804 631.99809 c 2
 795.99804 695.99809 l 1
 755.99804 747.99809 l 2
 738.66504 766.66509 730.66504 790.66509 731.99804 819.99809 c 0
 731.99804 827.3311 735.99804 843.33109 743.99804 867.99809 c 2
 767.99804 939.99809 l 1
 831.99804 1039.99809 l 1
 691.99804 1039.99809 l 1
 687.99804 1039.99809 l 1
 563.99804 1039.99809 l 1
 287.99804 1039.99809 l 2
 269.99804 1039.99809 254.83104 1046.16508 242.49804 1058.49809 c 0
 230.16504 1070.8311 223.99804 1085.99809 223.99804 1103.99809 c 0
 223.99804 1121.99809 230.16503 1137.16509 242.49804 1149.49809 c 0
 254.83105 1161.83109 269.99804 1167.99809 287.99804 1167.99809 c 2
 579.99804 1167.99809 l 1
 839.99804 1167.99809 l 1
 1259.99804 1167.99809 l 1
 1211.99804 1327.99809 l 2
 1206.66503 1347.99809 1202.66503 1361.33109 1199.99804 1367.99809 c 0
 1196.66503 1377.99809 1188.66504 1392.66509 1175.99804 1411.99809 c 0
 1171.33105 1417.99809 1168.66406 1421.99809 1167.99706 1423.99809 c 2
 1158.49706 1445.99809 l 2
 1155.49706 1452.66508 1152.66405 1459.33209 1149.99706 1465.99909 c 0
 1147.33007 1472.66609 1145.33007 1477.33309 1143.99706 1480.00009 c 0
 1140.66405 1486.00009 1135.33104 1502.00009 1127.99806 1528.00009 c 0
 1122.66505 1552.00009 1119.99806 1570.66709 1119.99806 1584.00009 c 2
 1119.99806 1624.00009 l 2
 1119.99806 1632.66708 1121.33107 1644.66709 1123.99806 1660.00009 c 0
 1124.665052 1665.3331 1125.66505 1670.33309 1126.99806 1675.00009 c 0
 1128.33107 1679.66709 1129.49806 1683.50009 1130.49806 1686.50009 c 0
 1131.49806 1689.50009 1131.99806 1691.3331 1131.99806 1692.00009 c 0
 1133.99806 1698.00009 1137.99806 1706.00009 1143.99806 1716.00009 c 0
 1145.33107 1717.3331 1146.66408 1718.8331 1147.99708 1720.50009 c 0
 1149.33008 1722.16708 1150.83009 1723.66708 1152.49708 1725.00009 c 0
 1154.16407 1726.3331 1155.33106 1727.3331 1155.99806 1728.00009 c 0
 1156.665052 1728.00009 1158.33204 1728.667082 1160.99904 1730.00009 c 0
 1163.66604 1731.333098 1167.33302 1732.8331 1172.00004 1734.50009 c 2
 1188.00004 1740.00009 l 2
 1192.00004 1740.00009 1197.00004 1740.667082 1203.00004 1742.00009 c 0
 1209.00004 1743.333098 1213.33304 1744.00009 1216 1744 c 2
1920 1131.99 m 1
 1920 299.99 l 1
 2048 299.99 l 1
 2048 1131.99 l 1
 1920 1131.99 l 1
EndSplineSet
EndChar

StartChar: bss-hand-up
Encoding: 134 57641 134
Width: 2048
LayerCount: 2
Back
Fore
SplineSet
906 1952 m 0
 959.333 1952 1004.6641 1933.3369 1041.997 1896.0039 c 0
 1079.3299 1858.6709 1097.997 1813.3379 1097.997 1760.0049 c 2
 1097.997 1427.0049 l 1
 1098.997 1426.0049 l 1
 1100.997 1426.0049 l 1
 1132.33 1437.3379 1160.997 1443.0049 1186.997 1443.0049 c 0
 1242.997 1445.67189 1294.33 1429.3389 1340.997 1394.0059 c 1
 1382.997 1407.3389 1426.997 1407.3389 1472.997 1394.0059 c 0
 1516.33 1381.3389 1551.997 1360.6719 1579.997 1332.0049 c 1
 1665.33 1338.0049 1733.33 1319.6719 1783.997 1277.0049 c 0
 1840.664 1229.6719 1870.331 1155.6719 1872.998 1055.0049 c 2
 1872.998 1015.0049 l 1
 1872.998 929.0049 l 1
 1872.998 910.0049 l 2
 1872.998 856.6719 1866.998 802.6719 1854.998 748.0049 c 0
 1843.665 692.0049 1832.998 646.3379 1822.998 611.0049 c 2
 1800.998 544.0049 l 1
 1777.998 475.0049 l 2
 1745.331 382.3379 1728.664 323.0049 1727.997 297.0049 c 0
 1726.66399 276.3379 1719.33098 259.3379 1705.998 246.0049 c 0
 1691.331 231.3379 1674.664 224.0049 1655.997 224.0049 c 2
 931.997 224.0049 l 2
 913.33 224.0049 896.663 230.67189 881.996 244.0049 c 0
 869.996 257.3379 862.329 273.6709 858.996 293.0039 c 0
 857.66299 313.0039 835.33 341.6709 791.997 379.0039 c 0
 760.664 409.0039 715.664 447.0039 656.997 493.0039 c 0
 601.664 536.3369 556.331 574.3369 520.998 607.0039 c 0
 507.665 620.3369 489.665 631.6699 466.998 641.0029 c 0
 443.665 651.0029 425.332 658.0029 411.999 662.0029 c 0
 398.666 666.0029 375.999 671.0029 343.999 677.0029 c 0
 319.999 681.0029 296.999 685.66989 274.999 691.0029 c 0
 262.999 693.66989 243.332 701.0029 215.999 713.0029 c 0
 194.666 722.33591 175.999 735.0029 159.999 751.0029 c 0
 145.332 765.6699 137.999 783.0029 137.999 803.0029 c 0
 137.999 837.0029 141.999 868.0029 149.999 896.0029 c 0
 157.999 923.3359 167.666 945.6689 178.999 963.0019 c 0
 192.999 982.3349 208.332 997.6679 224.999 1009.0009 c 0
 244.332 1021.6679 261.332 1030.6679 275.999 1036.0009 c 0
 290.666 1041.3339 309.666 1045.33391 332.999 1048.0009 c 0
 351.666 1051.33391 368.666 1053.66692 383.999 1054.99992 c 2
 427.999 1054.99992 l 2
 450.666 1054.99992 478.999 1051.33293 512.999 1043.99992 c 0
 552.999 1032.66692 575.666 1025.66692 580.999 1022.99992 c 2
 643.999 991.99992 l 1
 663.999 979.99992 l 2
 666.66599 978.66691 670.999 976.66691 676.999 973.99992 c 0
 682.999 971.33293 686.999 969.33293 688.999 967.99992 c 2
 715.999 958.99992 l 1
 715.999 1270.99992 l 1
 715.999 1283.99992 l 1
 715.999 1296.99992 l 1
 713.999 1760.99992 l 2
 713.999 1813.66692 732.832 1858.66692 770.499 1895.99992 c 0
 808.166 1933.33292 853.333 1951.99992 906 1952 c 0
905.998 1824 m 0
 887.998 1824 872.833 1817.84082 860.5 1805.5078 c 0
 848.167 1793.17478 842 1778.0078 842 1760.0078 c 2
 842 1467.0078 l 1
 842 1207.0078 l 1
 842 790.0078 l 1
 681 836.0078 l 2
 670.333 838.67479 657.666 843.0078 642.999 849.0078 c 0
 627.666 854.34081 613.333 861.3408 600 870.0078 c 0
 594 874.67479 590 877.34178 588 878.00878 c 0
 566.667 889.34178 547.667 898.67478 531 906.00778 c 0
 529 906.00778 526.16699 906.674772 522.5 908.00778 c 0
 518.83301 909.340788 513 911.1738 505 913.5068 c 0
 497 915.8398 489 918.0068 481 920.0068 c 0
 460.333 924.67379 442.666 927.0068 427.999 927.0068 c 2
 386.999 927.0068 l 2
 378.33201 927.0068 366.332 925.67379 350.999 923.0068 c 0
 338.999 920.33981 328.999 917.67282 320.999 915.00582 c 0
 318.33201 914.338828 309.999 909.67184 295.999 901.00482 c 0
 290.66599 896.33783 287.66599 893.33783 286.999 892.00482 c 0
 286.999 891.337828 286.332008 889.67084 284.999 887.00384 c 0
 283.665992 884.33684 281.999 880.66986 279.999 876.00284 c 0
 277.999 871.33582 275.999 866.00284 273.999 860.00284 c 0
 271.33201 851.33585 269.33201 841.66884 267.999 831.00184 c 1
 268.999 830.00184 l 1
 269.999 829.00184 l 1
 286.666 821.00184 298.666 816.33484 305.999 815.00184 c 2
 365.999 803.00184 l 2
 411.332 793.00184 436.665 787.33484 441.998 786.00184 c 0
 465.998 780.66883 490.998 771.66884 516.998 759.00184 c 0
 557.665 740.33484 588.998 720.00184 610.998 698.00184 c 0
 643.665 667.33484 684.998 632.66784 734.998 594.00084 c 0
 786.998 554.66784 834.665 514.66784 877.998 474.00084 c 0
 928.665 428.66784 960.998 388.00084 974.998 352.00084 c 1
 1604.998 352.00084 l 1
 1615.665 394.66784 1632.332 449.66784 1654.999 517.00084 c 0
 1674.332 572.33384 1688.999 616.33384 1698.999 649.00084 c 0
 1702.33201 659.00084 1711.999 700.33384 1727.999 773.00084 c 0
 1737.999 823.00084 1742.999 869.00084 1742.999 911.00084 c 2
 1742.999 931.00084 l 1
 1742.999 1016.00084 l 1
 1742.999 1057.00084 l 2
 1742.332008 1117.66784 1728.332 1159.00084 1700.999 1181.00084 c 0
 1676.999 1202.33384 1639.999 1211.00084 1589.999 1207.00084 c 2
 1527.999 1202.00084 l 1
 1485.999 1247.00084 l 2
 1473.999 1259.00084 1458.666 1267.33384 1439.999 1272.00084 c 0
 1415.999 1278.00084 1394.999 1278.66783 1376.999 1274.00084 c 2
 1314.999 1254.00084 l 1
 1262.999 1293.00084 l 2
 1240.999 1309.00084 1216.666 1316.66784 1189.999 1316.00084 c 0
 1177.332 1316.00084 1160.665 1312.66783 1139.998 1306.00084 c 2
 1069.998 1281.00084 l 1
 969.998 1216.00084 l 1
 969.998 1354.00084 l 1
 969.998 1361.00084 l 1
 969.998 1486.00084 l 1
 969.998 1761.00084 l 2
 969.998 1778.33384 963.83101 1793.16684 951.498 1805.49984 c 0
 939.16499 1817.83284 923.998 1823.99984 905.998 1824 c 0
EndSplineSet
EndChar

